<?xml version="1.0" encoding="utf-8" standalone="no"?>
<!DOCTYPE svg PUBLIC "-//W3C//DTD SVG 1.1//EN"
  "http://www.w3.org/Graphics/SVG/1.1/DTD/svg11.dtd">
<!-- Created with matplotlib (https://matplotlib.org/) -->
<svg height="582.479937pt" version="1.1" viewBox="0 0 844.350625 582.479937" width="844.350625pt" xmlns="http://www.w3.org/2000/svg" xmlns:xlink="http://www.w3.org/1999/xlink">
 <metadata>
  <rdf:RDF xmlns:cc="http://creativecommons.org/ns#" xmlns:dc="http://purl.org/dc/elements/1.1/" xmlns:rdf="http://www.w3.org/1999/02/22-rdf-syntax-ns#">
   <cc:Work>
    <dc:type rdf:resource="http://purl.org/dc/dcmitype/StillImage"/>
    <dc:date>2020-12-08T08:47:26.606533</dc:date>
    <dc:format>image/svg+xml</dc:format>
    <dc:creator>
     <cc:Agent>
      <dc:title>Matplotlib v3.3.1, https://matplotlib.org/</dc:title>
     </cc:Agent>
    </dc:creator>
   </cc:Work>
  </rdf:RDF>
 </metadata>
 <defs>
  <style type="text/css">*{stroke-linecap:butt;stroke-linejoin:round;}</style>
 </defs>
 <g id="figure_1">
  <g id="patch_1">
   <path d="M 0 582.479937 
L 844.350625 582.479937 
L 844.350625 0 
L 0 0 
z
" style="fill:none;"/>
  </g>
  <g id="axes_1">
   <g id="patch_2">
    <path d="M 55.950625 463.276875 
L 837.150625 463.276875 
L 837.150625 28.396875 
L 55.950625 28.396875 
z
" style="fill:#ffffff;"/>
   </g>
   <g id="patch_3">
    <path clip-path="url(#pb5ebb75d6e)" d="M 91.459716 463.276875 
L 112.659173 463.276875 
L 112.659173 226.607487 
L 91.459716 226.607487 
z
" style="fill:#80d1ca;"/>
   </g>
   <g id="patch_4">
    <path clip-path="url(#pb5ebb75d6e)" d="M 117.959037 463.276875 
L 139.158495 463.276875 
L 139.158495 266.052385 
L 117.959037 266.052385 
z
" style="fill:#80d1ca;"/>
   </g>
   <g id="patch_5">
    <path clip-path="url(#pb5ebb75d6e)" d="M 144.458359 463.276875 
L 165.657816 463.276875 
L 165.657816 127.995242 
L 144.458359 127.995242 
z
" style="fill:#80d1ca;"/>
   </g>
   <g id="patch_6">
    <path clip-path="url(#pb5ebb75d6e)" d="M 170.957681 463.276875 
L 192.157138 463.276875 
L 192.157138 127.995242 
L 170.957681 127.995242 
z
" style="fill:#80d1ca;"/>
   </g>
   <g id="patch_7">
    <path clip-path="url(#pb5ebb75d6e)" d="M 197.457002 463.276875 
L 218.656459 463.276875 
L 218.656459 49.105446 
L 197.457002 49.105446 
z
" style="fill:#80d1ca;"/>
   </g>
   <g id="patch_8">
    <path clip-path="url(#pb5ebb75d6e)" d="M 223.956324 463.276875 
L 245.155781 463.276875 
L 245.155781 108.272793 
L 223.956324 108.272793 
z
" style="fill:#80d1ca;"/>
   </g>
   <g id="patch_9">
    <path clip-path="url(#pb5ebb75d6e)" d="M 250.455645 463.276875 
L 271.655103 463.276875 
L 271.655103 167.44014 
L 250.455645 167.44014 
z
" style="fill:#80d1ca;"/>
   </g>
   <g id="patch_10">
    <path clip-path="url(#pb5ebb75d6e)" d="M 276.954967 463.276875 
L 298.154424 463.276875 
L 298.154424 68.827895 
L 276.954967 68.827895 
z
" style="fill:#80d1ca;"/>
   </g>
   <g id="patch_11">
    <path clip-path="url(#pb5ebb75d6e)" d="M 303.454289 463.276875 
L 324.653746 463.276875 
L 324.653746 266.052385 
L 303.454289 266.052385 
z
" style="fill:#80d1ca;"/>
   </g>
   <g id="patch_12">
    <path clip-path="url(#pb5ebb75d6e)" d="M 329.95361 463.276875 
L 351.153067 463.276875 
L 351.153067 246.329936 
L 329.95361 246.329936 
z
" style="fill:#80d1ca;"/>
   </g>
   <g id="patch_13">
    <path clip-path="url(#pb5ebb75d6e)" d="M 356.452932 463.276875 
L 377.652389 463.276875 
L 377.652389 325.219732 
L 356.452932 325.219732 
z
" style="fill:#80d1ca;"/>
   </g>
   <g id="patch_14">
    <path clip-path="url(#pb5ebb75d6e)" d="M 382.952253 463.276875 
L 404.15171 463.276875 
L 404.15171 285.774834 
L 382.952253 285.774834 
z
" style="fill:#80d1ca;"/>
   </g>
   <g id="patch_15">
    <path clip-path="url(#pb5ebb75d6e)" d="M 409.451575 463.276875 
L 430.651032 463.276875 
L 430.651032 325.219732 
L 409.451575 325.219732 
z
" style="fill:#80d1ca;"/>
   </g>
   <g id="patch_16">
    <path clip-path="url(#pb5ebb75d6e)" d="M 435.950896 463.276875 
L 457.150354 463.276875 
L 457.150354 285.774834 
L 435.950896 285.774834 
z
" style="fill:#80d1ca;"/>
   </g>
   <g id="patch_17">
    <path clip-path="url(#pb5ebb75d6e)" d="M 462.450218 463.276875 
L 483.649675 463.276875 
L 483.649675 266.052385 
L 462.450218 266.052385 
z
" style="fill:#80d1ca;"/>
   </g>
   <g id="patch_18">
    <path clip-path="url(#pb5ebb75d6e)" d="M 488.94954 463.276875 
L 510.148997 463.276875 
L 510.148997 285.774834 
L 488.94954 285.774834 
z
" style="fill:#80d1ca;"/>
   </g>
   <g id="patch_19">
    <path clip-path="url(#pb5ebb75d6e)" d="M 515.448861 463.276875 
L 536.648318 463.276875 
L 536.648318 167.44014 
L 515.448861 167.44014 
z
" style="fill:#80d1ca;"/>
   </g>
   <g id="patch_20">
    <path clip-path="url(#pb5ebb75d6e)" d="M 541.948183 463.276875 
L 563.14764 463.276875 
L 563.14764 147.717691 
L 541.948183 147.717691 
z
" style="fill:#80d1ca;"/>
   </g>
   <g id="patch_21">
    <path clip-path="url(#pb5ebb75d6e)" d="M 568.447504 463.276875 
L 589.646961 463.276875 
L 589.646961 187.162589 
L 568.447504 187.162589 
z
" style="fill:#80d1ca;"/>
   </g>
   <g id="patch_22">
    <path clip-path="url(#pb5ebb75d6e)" d="M 594.946826 463.276875 
L 616.146283 463.276875 
L 616.146283 147.717691 
L 594.946826 147.717691 
z
" style="fill:#80d1ca;"/>
   </g>
   <g id="patch_23">
    <path clip-path="url(#pb5ebb75d6e)" d="M 621.446147 463.276875 
L 642.645605 463.276875 
L 642.645605 167.44014 
L 621.446147 167.44014 
z
" style="fill:#80d1ca;"/>
   </g>
   <g id="patch_24">
    <path clip-path="url(#pb5ebb75d6e)" d="M 647.945469 463.276875 
L 669.144926 463.276875 
L 669.144926 167.44014 
L 647.945469 167.44014 
z
" style="fill:#80d1ca;"/>
   </g>
   <g id="patch_25">
    <path clip-path="url(#pb5ebb75d6e)" d="M 674.444791 463.276875 
L 695.644248 463.276875 
L 695.644248 187.162589 
L 674.444791 187.162589 
z
" style="fill:#80d1ca;"/>
   </g>
   <g id="patch_26">
    <path clip-path="url(#pb5ebb75d6e)" d="M 700.944112 463.276875 
L 722.143569 463.276875 
L 722.143569 127.995242 
L 700.944112 127.995242 
z
" style="fill:#80d1ca;"/>
   </g>
   <g id="patch_27">
    <path clip-path="url(#pb5ebb75d6e)" d="M 727.443434 463.276875 
L 748.642891 463.276875 
L 748.642891 108.272793 
L 727.443434 108.272793 
z
" style="fill:#80d1ca;"/>
   </g>
   <g id="patch_28">
    <path clip-path="url(#pb5ebb75d6e)" d="M 753.942755 463.276875 
L 775.142213 463.276875 
L 775.142213 147.717691 
L 753.942755 147.717691 
z
" style="fill:#80d1ca;"/>
   </g>
   <g id="patch_29">
    <path clip-path="url(#pb5ebb75d6e)" d="M 780.442077 463.276875 
L 801.641534 463.276875 
L 801.641534 187.162589 
L 780.442077 187.162589 
z
" style="fill:#80d1ca;"/>
   </g>
   <g id="patch_30">
    <path clip-path="url(#pb5ebb75d6e)" d="M 91.459716 463.276875 
L 112.659173 463.276875 
L 112.659173 226.607487 
L 91.459716 226.607487 
z
" style="fill:#138279;"/>
   </g>
   <g id="patch_31">
    <path clip-path="url(#pb5ebb75d6e)" d="M 117.959037 463.276875 
L 139.158495 463.276875 
L 139.158495 266.052385 
L 117.959037 266.052385 
z
" style="fill:#138279;"/>
   </g>
   <g id="patch_32">
    <path clip-path="url(#pb5ebb75d6e)" d="M 144.458359 463.276875 
L 165.657816 463.276875 
L 165.657816 127.995242 
L 144.458359 127.995242 
z
" style="fill:#138279;"/>
   </g>
   <g id="patch_33">
    <path clip-path="url(#pb5ebb75d6e)" d="M 170.957681 463.276875 
L 192.157138 463.276875 
L 192.157138 127.995242 
L 170.957681 127.995242 
z
" style="fill:#138279;"/>
   </g>
   <g id="patch_34">
    <path clip-path="url(#pb5ebb75d6e)" d="M 197.457002 463.276875 
L 218.656459 463.276875 
L 218.656459 49.105446 
L 197.457002 49.105446 
z
" style="fill:#138279;"/>
   </g>
   <g id="patch_35">
    <path clip-path="url(#pb5ebb75d6e)" d="M 223.956324 463.276875 
L 245.155781 463.276875 
L 245.155781 108.272793 
L 223.956324 108.272793 
z
" style="fill:#138279;"/>
   </g>
   <g id="patch_36">
    <path clip-path="url(#pb5ebb75d6e)" d="M 250.455645 463.276875 
L 271.655103 463.276875 
L 271.655103 167.44014 
L 250.455645 167.44014 
z
" style="fill:#138279;"/>
   </g>
   <g id="patch_37">
    <path clip-path="url(#pb5ebb75d6e)" d="M 276.954967 463.276875 
L 298.154424 463.276875 
L 298.154424 68.827895 
L 276.954967 68.827895 
z
" style="fill:#138279;"/>
   </g>
   <g id="patch_38">
    <path clip-path="url(#pb5ebb75d6e)" d="M 303.454289 463.276875 
L 324.653746 463.276875 
L 324.653746 266.052385 
L 303.454289 266.052385 
z
" style="fill:#138279;"/>
   </g>
   <g id="patch_39">
    <path clip-path="url(#pb5ebb75d6e)" d="M 329.95361 463.276875 
L 351.153067 463.276875 
L 351.153067 246.329936 
L 329.95361 246.329936 
z
" style="fill:#138279;"/>
   </g>
   <g id="patch_40">
    <path clip-path="url(#pb5ebb75d6e)" d="M 356.452932 463.276875 
L 377.652389 463.276875 
L 377.652389 325.219732 
L 356.452932 325.219732 
z
" style="fill:#138279;"/>
   </g>
   <g id="patch_41">
    <path clip-path="url(#pb5ebb75d6e)" d="M 382.952253 463.276875 
L 404.15171 463.276875 
L 404.15171 285.774834 
L 382.952253 285.774834 
z
" style="fill:#138279;"/>
   </g>
   <g id="patch_42">
    <path clip-path="url(#pb5ebb75d6e)" d="M 409.451575 463.276875 
L 430.651032 463.276875 
L 430.651032 325.219732 
L 409.451575 325.219732 
z
" style="fill:#138279;"/>
   </g>
   <g id="patch_43">
    <path clip-path="url(#pb5ebb75d6e)" d="M 435.950896 463.276875 
L 457.150354 463.276875 
L 457.150354 285.774834 
L 435.950896 285.774834 
z
" style="fill:#138279;"/>
   </g>
   <g id="patch_44">
    <path clip-path="url(#pb5ebb75d6e)" d="M 462.450218 463.276875 
L 483.649675 463.276875 
L 483.649675 266.052385 
L 462.450218 266.052385 
z
" style="fill:#138279;"/>
   </g>
   <g id="patch_45">
    <path clip-path="url(#pb5ebb75d6e)" d="M 488.94954 463.276875 
L 510.148997 463.276875 
L 510.148997 285.774834 
L 488.94954 285.774834 
z
" style="fill:#138279;"/>
   </g>
   <g id="patch_46">
    <path clip-path="url(#pb5ebb75d6e)" d="M 515.448861 463.276875 
L 536.648318 463.276875 
L 536.648318 167.44014 
L 515.448861 167.44014 
z
" style="fill:#138279;"/>
   </g>
   <g id="patch_47">
    <path clip-path="url(#pb5ebb75d6e)" d="M 541.948183 463.276875 
L 563.14764 463.276875 
L 563.14764 147.717691 
L 541.948183 147.717691 
z
" style="fill:#138279;"/>
   </g>
   <g id="patch_48">
    <path clip-path="url(#pb5ebb75d6e)" d="M 568.447504 463.276875 
L 589.646961 463.276875 
L 589.646961 187.162589 
L 568.447504 187.162589 
z
" style="fill:#138279;"/>
   </g>
   <g id="patch_49">
    <path clip-path="url(#pb5ebb75d6e)" d="M 594.946826 463.276875 
L 616.146283 463.276875 
L 616.146283 147.717691 
L 594.946826 147.717691 
z
" style="fill:#138279;"/>
   </g>
   <g id="patch_50">
    <path clip-path="url(#pb5ebb75d6e)" d="M 621.446147 463.276875 
L 642.645605 463.276875 
L 642.645605 167.44014 
L 621.446147 167.44014 
z
" style="fill:#138279;"/>
   </g>
   <g id="patch_51">
    <path clip-path="url(#pb5ebb75d6e)" d="M 647.945469 463.276875 
L 669.144926 463.276875 
L 669.144926 167.44014 
L 647.945469 167.44014 
z
" style="fill:#138279;"/>
   </g>
   <g id="patch_52">
    <path clip-path="url(#pb5ebb75d6e)" d="M 674.444791 463.276875 
L 695.644248 463.276875 
L 695.644248 187.162589 
L 674.444791 187.162589 
z
" style="fill:#138279;"/>
   </g>
   <g id="patch_53">
    <path clip-path="url(#pb5ebb75d6e)" d="M 700.944112 463.276875 
L 722.143569 463.276875 
L 722.143569 127.995242 
L 700.944112 127.995242 
z
" style="fill:#138279;"/>
   </g>
   <g id="patch_54">
    <path clip-path="url(#pb5ebb75d6e)" d="M 727.443434 463.276875 
L 748.642891 463.276875 
L 748.642891 108.272793 
L 727.443434 108.272793 
z
" style="fill:#138279;"/>
   </g>
   <g id="patch_55">
    <path clip-path="url(#pb5ebb75d6e)" d="M 753.942755 463.276875 
L 775.142213 463.276875 
L 775.142213 147.717691 
L 753.942755 147.717691 
z
" style="fill:#138279;"/>
   </g>
   <g id="patch_56">
    <path clip-path="url(#pb5ebb75d6e)" d="M 780.442077 463.276875 
L 801.641534 463.276875 
L 801.641534 187.162589 
L 780.442077 187.162589 
z
" style="fill:#138279;"/>
   </g>
   <g id="matplotlib.axis_1">
    <g id="xtick_1">
     <g id="line2d_1">
      <defs>
       <path d="M 0 0 
L 0 3.5 
" id="md99f95c545" style="stroke:#000000;stroke-width:0.8;"/>
      </defs>
      <g>
       <use style="stroke:#000000;stroke-width:0.8;" x="102.059445" xlink:href="#md99f95c545" y="463.276875"/>
      </g>
     </g>
     <g id="text_1">
      <!-- 01/01 - 01/07 -->
      <g transform="translate(104.81882 537.878437)rotate(-90)scale(0.1 -0.1)">
       <defs>
        <path d="M 31.78125 66.40625 
Q 24.171875 66.40625 20.328125 58.90625 
Q 16.5 51.421875 16.5 36.375 
Q 16.5 21.390625 20.328125 13.890625 
Q 24.171875 6.390625 31.78125 6.390625 
Q 39.453125 6.390625 43.28125 13.890625 
Q 47.125 21.390625 47.125 36.375 
Q 47.125 51.421875 43.28125 58.90625 
Q 39.453125 66.40625 31.78125 66.40625 
z
M 31.78125 74.21875 
Q 44.046875 74.21875 50.515625 64.515625 
Q 56.984375 54.828125 56.984375 36.375 
Q 56.984375 17.96875 50.515625 8.265625 
Q 44.046875 -1.421875 31.78125 -1.421875 
Q 19.53125 -1.421875 13.0625 8.265625 
Q 6.59375 17.96875 6.59375 36.375 
Q 6.59375 54.828125 13.0625 64.515625 
Q 19.53125 74.21875 31.78125 74.21875 
z
" id="DejaVuSans-48"/>
        <path d="M 12.40625 8.296875 
L 28.515625 8.296875 
L 28.515625 63.921875 
L 10.984375 60.40625 
L 10.984375 69.390625 
L 28.421875 72.90625 
L 38.28125 72.90625 
L 38.28125 8.296875 
L 54.390625 8.296875 
L 54.390625 0 
L 12.40625 0 
z
" id="DejaVuSans-49"/>
        <path d="M 25.390625 72.90625 
L 33.6875 72.90625 
L 8.296875 -9.28125 
L 0 -9.28125 
z
" id="DejaVuSans-47"/>
        <path id="DejaVuSans-32"/>
        <path d="M 4.890625 31.390625 
L 31.203125 31.390625 
L 31.203125 23.390625 
L 4.890625 23.390625 
z
" id="DejaVuSans-45"/>
        <path d="M 8.203125 72.90625 
L 55.078125 72.90625 
L 55.078125 68.703125 
L 28.609375 0 
L 18.3125 0 
L 43.21875 64.59375 
L 8.203125 64.59375 
z
" id="DejaVuSans-55"/>
       </defs>
       <use xlink:href="#DejaVuSans-48"/>
       <use x="63.623047" xlink:href="#DejaVuSans-49"/>
       <use x="127.246094" xlink:href="#DejaVuSans-47"/>
       <use x="160.9375" xlink:href="#DejaVuSans-48"/>
       <use x="224.560547" xlink:href="#DejaVuSans-49"/>
       <use x="288.183594" xlink:href="#DejaVuSans-32"/>
       <use x="319.970703" xlink:href="#DejaVuSans-45"/>
       <use x="356.054688" xlink:href="#DejaVuSans-32"/>
       <use x="387.841797" xlink:href="#DejaVuSans-48"/>
       <use x="451.464844" xlink:href="#DejaVuSans-49"/>
       <use x="515.087891" xlink:href="#DejaVuSans-47"/>
       <use x="548.779297" xlink:href="#DejaVuSans-48"/>
       <use x="612.402344" xlink:href="#DejaVuSans-55"/>
      </g>
     </g>
    </g>
    <g id="xtick_2">
     <g id="line2d_2">
      <g>
       <use style="stroke:#000000;stroke-width:0.8;" x="128.558766" xlink:href="#md99f95c545" y="463.276875"/>
      </g>
     </g>
     <g id="text_2">
      <!-- 01/08 - 01/14 -->
      <g transform="translate(131.318141 537.878437)rotate(-90)scale(0.1 -0.1)">
       <defs>
        <path d="M 31.78125 34.625 
Q 24.75 34.625 20.71875 30.859375 
Q 16.703125 27.09375 16.703125 20.515625 
Q 16.703125 13.921875 20.71875 10.15625 
Q 24.75 6.390625 31.78125 6.390625 
Q 38.8125 6.390625 42.859375 10.171875 
Q 46.921875 13.96875 46.921875 20.515625 
Q 46.921875 27.09375 42.890625 30.859375 
Q 38.875 34.625 31.78125 34.625 
z
M 21.921875 38.8125 
Q 15.578125 40.375 12.03125 44.71875 
Q 8.5 49.078125 8.5 55.328125 
Q 8.5 64.0625 14.71875 69.140625 
Q 20.953125 74.21875 31.78125 74.21875 
Q 42.671875 74.21875 48.875 69.140625 
Q 55.078125 64.0625 55.078125 55.328125 
Q 55.078125 49.078125 51.53125 44.71875 
Q 48 40.375 41.703125 38.8125 
Q 48.828125 37.15625 52.796875 32.3125 
Q 56.78125 27.484375 56.78125 20.515625 
Q 56.78125 9.90625 50.3125 4.234375 
Q 43.84375 -1.421875 31.78125 -1.421875 
Q 19.734375 -1.421875 13.25 4.234375 
Q 6.78125 9.90625 6.78125 20.515625 
Q 6.78125 27.484375 10.78125 32.3125 
Q 14.796875 37.15625 21.921875 38.8125 
z
M 18.3125 54.390625 
Q 18.3125 48.734375 21.84375 45.5625 
Q 25.390625 42.390625 31.78125 42.390625 
Q 38.140625 42.390625 41.71875 45.5625 
Q 45.3125 48.734375 45.3125 54.390625 
Q 45.3125 60.0625 41.71875 63.234375 
Q 38.140625 66.40625 31.78125 66.40625 
Q 25.390625 66.40625 21.84375 63.234375 
Q 18.3125 60.0625 18.3125 54.390625 
z
" id="DejaVuSans-56"/>
        <path d="M 37.796875 64.3125 
L 12.890625 25.390625 
L 37.796875 25.390625 
z
M 35.203125 72.90625 
L 47.609375 72.90625 
L 47.609375 25.390625 
L 58.015625 25.390625 
L 58.015625 17.1875 
L 47.609375 17.1875 
L 47.609375 0 
L 37.796875 0 
L 37.796875 17.1875 
L 4.890625 17.1875 
L 4.890625 26.703125 
z
" id="DejaVuSans-52"/>
       </defs>
       <use xlink:href="#DejaVuSans-48"/>
       <use x="63.623047" xlink:href="#DejaVuSans-49"/>
       <use x="127.246094" xlink:href="#DejaVuSans-47"/>
       <use x="160.9375" xlink:href="#DejaVuSans-48"/>
       <use x="224.560547" xlink:href="#DejaVuSans-56"/>
       <use x="288.183594" xlink:href="#DejaVuSans-32"/>
       <use x="319.970703" xlink:href="#DejaVuSans-45"/>
       <use x="356.054688" xlink:href="#DejaVuSans-32"/>
       <use x="387.841797" xlink:href="#DejaVuSans-48"/>
       <use x="451.464844" xlink:href="#DejaVuSans-49"/>
       <use x="515.087891" xlink:href="#DejaVuSans-47"/>
       <use x="548.779297" xlink:href="#DejaVuSans-49"/>
       <use x="612.402344" xlink:href="#DejaVuSans-52"/>
      </g>
     </g>
    </g>
    <g id="xtick_3">
     <g id="line2d_3">
      <g>
       <use style="stroke:#000000;stroke-width:0.8;" x="155.058088" xlink:href="#md99f95c545" y="463.276875"/>
      </g>
     </g>
     <g id="text_3">
      <!-- 01/15 - 01/21 -->
      <g transform="translate(157.817463 537.878437)rotate(-90)scale(0.1 -0.1)">
       <defs>
        <path d="M 10.796875 72.90625 
L 49.515625 72.90625 
L 49.515625 64.59375 
L 19.828125 64.59375 
L 19.828125 46.734375 
Q 21.96875 47.46875 24.109375 47.828125 
Q 26.265625 48.1875 28.421875 48.1875 
Q 40.625 48.1875 47.75 41.5 
Q 54.890625 34.8125 54.890625 23.390625 
Q 54.890625 11.625 47.5625 5.09375 
Q 40.234375 -1.421875 26.90625 -1.421875 
Q 22.3125 -1.421875 17.546875 -0.640625 
Q 12.796875 0.140625 7.71875 1.703125 
L 7.71875 11.625 
Q 12.109375 9.234375 16.796875 8.0625 
Q 21.484375 6.890625 26.703125 6.890625 
Q 35.15625 6.890625 40.078125 11.328125 
Q 45.015625 15.765625 45.015625 23.390625 
Q 45.015625 31 40.078125 35.4375 
Q 35.15625 39.890625 26.703125 39.890625 
Q 22.75 39.890625 18.8125 39.015625 
Q 14.890625 38.140625 10.796875 36.28125 
z
" id="DejaVuSans-53"/>
        <path d="M 19.1875 8.296875 
L 53.609375 8.296875 
L 53.609375 0 
L 7.328125 0 
L 7.328125 8.296875 
Q 12.9375 14.109375 22.625 23.890625 
Q 32.328125 33.6875 34.8125 36.53125 
Q 39.546875 41.84375 41.421875 45.53125 
Q 43.3125 49.21875 43.3125 52.78125 
Q 43.3125 58.59375 39.234375 62.25 
Q 35.15625 65.921875 28.609375 65.921875 
Q 23.96875 65.921875 18.8125 64.3125 
Q 13.671875 62.703125 7.8125 59.421875 
L 7.8125 69.390625 
Q 13.765625 71.78125 18.9375 73 
Q 24.125 74.21875 28.421875 74.21875 
Q 39.75 74.21875 46.484375 68.546875 
Q 53.21875 62.890625 53.21875 53.421875 
Q 53.21875 48.921875 51.53125 44.890625 
Q 49.859375 40.875 45.40625 35.40625 
Q 44.1875 33.984375 37.640625 27.21875 
Q 31.109375 20.453125 19.1875 8.296875 
z
" id="DejaVuSans-50"/>
       </defs>
       <use xlink:href="#DejaVuSans-48"/>
       <use x="63.623047" xlink:href="#DejaVuSans-49"/>
       <use x="127.246094" xlink:href="#DejaVuSans-47"/>
       <use x="160.9375" xlink:href="#DejaVuSans-49"/>
       <use x="224.560547" xlink:href="#DejaVuSans-53"/>
       <use x="288.183594" xlink:href="#DejaVuSans-32"/>
       <use x="319.970703" xlink:href="#DejaVuSans-45"/>
       <use x="356.054688" xlink:href="#DejaVuSans-32"/>
       <use x="387.841797" xlink:href="#DejaVuSans-48"/>
       <use x="451.464844" xlink:href="#DejaVuSans-49"/>
       <use x="515.087891" xlink:href="#DejaVuSans-47"/>
       <use x="548.779297" xlink:href="#DejaVuSans-50"/>
       <use x="612.402344" xlink:href="#DejaVuSans-49"/>
      </g>
     </g>
    </g>
    <g id="xtick_4">
     <g id="line2d_4">
      <g>
       <use style="stroke:#000000;stroke-width:0.8;" x="181.557409" xlink:href="#md99f95c545" y="463.276875"/>
      </g>
     </g>
     <g id="text_4">
      <!-- 01/22 - 01/28 -->
      <g transform="translate(184.316784 537.878437)rotate(-90)scale(0.1 -0.1)">
       <use xlink:href="#DejaVuSans-48"/>
       <use x="63.623047" xlink:href="#DejaVuSans-49"/>
       <use x="127.246094" xlink:href="#DejaVuSans-47"/>
       <use x="160.9375" xlink:href="#DejaVuSans-50"/>
       <use x="224.560547" xlink:href="#DejaVuSans-50"/>
       <use x="288.183594" xlink:href="#DejaVuSans-32"/>
       <use x="319.970703" xlink:href="#DejaVuSans-45"/>
       <use x="356.054688" xlink:href="#DejaVuSans-32"/>
       <use x="387.841797" xlink:href="#DejaVuSans-48"/>
       <use x="451.464844" xlink:href="#DejaVuSans-49"/>
       <use x="515.087891" xlink:href="#DejaVuSans-47"/>
       <use x="548.779297" xlink:href="#DejaVuSans-50"/>
       <use x="612.402344" xlink:href="#DejaVuSans-56"/>
      </g>
     </g>
    </g>
    <g id="xtick_5">
     <g id="line2d_5">
      <g>
       <use style="stroke:#000000;stroke-width:0.8;" x="208.056731" xlink:href="#md99f95c545" y="463.276875"/>
      </g>
     </g>
     <g id="text_5">
      <!-- 01/29 - 02/04 -->
      <g transform="translate(210.816106 537.878437)rotate(-90)scale(0.1 -0.1)">
       <defs>
        <path d="M 10.984375 1.515625 
L 10.984375 10.5 
Q 14.703125 8.734375 18.5 7.8125 
Q 22.3125 6.890625 25.984375 6.890625 
Q 35.75 6.890625 40.890625 13.453125 
Q 46.046875 20.015625 46.78125 33.40625 
Q 43.953125 29.203125 39.59375 26.953125 
Q 35.25 24.703125 29.984375 24.703125 
Q 19.046875 24.703125 12.671875 31.3125 
Q 6.296875 37.9375 6.296875 49.421875 
Q 6.296875 60.640625 12.9375 67.421875 
Q 19.578125 74.21875 30.609375 74.21875 
Q 43.265625 74.21875 49.921875 64.515625 
Q 56.59375 54.828125 56.59375 36.375 
Q 56.59375 19.140625 48.40625 8.859375 
Q 40.234375 -1.421875 26.421875 -1.421875 
Q 22.703125 -1.421875 18.890625 -0.6875 
Q 15.09375 0.046875 10.984375 1.515625 
z
M 30.609375 32.421875 
Q 37.25 32.421875 41.125 36.953125 
Q 45.015625 41.5 45.015625 49.421875 
Q 45.015625 57.28125 41.125 61.84375 
Q 37.25 66.40625 30.609375 66.40625 
Q 23.96875 66.40625 20.09375 61.84375 
Q 16.21875 57.28125 16.21875 49.421875 
Q 16.21875 41.5 20.09375 36.953125 
Q 23.96875 32.421875 30.609375 32.421875 
z
" id="DejaVuSans-57"/>
       </defs>
       <use xlink:href="#DejaVuSans-48"/>
       <use x="63.623047" xlink:href="#DejaVuSans-49"/>
       <use x="127.246094" xlink:href="#DejaVuSans-47"/>
       <use x="160.9375" xlink:href="#DejaVuSans-50"/>
       <use x="224.560547" xlink:href="#DejaVuSans-57"/>
       <use x="288.183594" xlink:href="#DejaVuSans-32"/>
       <use x="319.970703" xlink:href="#DejaVuSans-45"/>
       <use x="356.054688" xlink:href="#DejaVuSans-32"/>
       <use x="387.841797" xlink:href="#DejaVuSans-48"/>
       <use x="451.464844" xlink:href="#DejaVuSans-50"/>
       <use x="515.087891" xlink:href="#DejaVuSans-47"/>
       <use x="548.779297" xlink:href="#DejaVuSans-48"/>
       <use x="612.402344" xlink:href="#DejaVuSans-52"/>
      </g>
     </g>
    </g>
    <g id="xtick_6">
     <g id="line2d_6">
      <g>
       <use style="stroke:#000000;stroke-width:0.8;" x="234.556052" xlink:href="#md99f95c545" y="463.276875"/>
      </g>
     </g>
     <g id="text_6">
      <!-- 02/05 - 02/11 -->
      <g transform="translate(237.315427 537.878437)rotate(-90)scale(0.1 -0.1)">
       <use xlink:href="#DejaVuSans-48"/>
       <use x="63.623047" xlink:href="#DejaVuSans-50"/>
       <use x="127.246094" xlink:href="#DejaVuSans-47"/>
       <use x="160.9375" xlink:href="#DejaVuSans-48"/>
       <use x="224.560547" xlink:href="#DejaVuSans-53"/>
       <use x="288.183594" xlink:href="#DejaVuSans-32"/>
       <use x="319.970703" xlink:href="#DejaVuSans-45"/>
       <use x="356.054688" xlink:href="#DejaVuSans-32"/>
       <use x="387.841797" xlink:href="#DejaVuSans-48"/>
       <use x="451.464844" xlink:href="#DejaVuSans-50"/>
       <use x="515.087891" xlink:href="#DejaVuSans-47"/>
       <use x="548.779297" xlink:href="#DejaVuSans-49"/>
       <use x="612.402344" xlink:href="#DejaVuSans-49"/>
      </g>
     </g>
    </g>
    <g id="xtick_7">
     <g id="line2d_7">
      <g>
       <use style="stroke:#000000;stroke-width:0.8;" x="261.055374" xlink:href="#md99f95c545" y="463.276875"/>
      </g>
     </g>
     <g id="text_7">
      <!-- 02/12 - 02/18 -->
      <g transform="translate(263.814749 537.878437)rotate(-90)scale(0.1 -0.1)">
       <use xlink:href="#DejaVuSans-48"/>
       <use x="63.623047" xlink:href="#DejaVuSans-50"/>
       <use x="127.246094" xlink:href="#DejaVuSans-47"/>
       <use x="160.9375" xlink:href="#DejaVuSans-49"/>
       <use x="224.560547" xlink:href="#DejaVuSans-50"/>
       <use x="288.183594" xlink:href="#DejaVuSans-32"/>
       <use x="319.970703" xlink:href="#DejaVuSans-45"/>
       <use x="356.054688" xlink:href="#DejaVuSans-32"/>
       <use x="387.841797" xlink:href="#DejaVuSans-48"/>
       <use x="451.464844" xlink:href="#DejaVuSans-50"/>
       <use x="515.087891" xlink:href="#DejaVuSans-47"/>
       <use x="548.779297" xlink:href="#DejaVuSans-49"/>
       <use x="612.402344" xlink:href="#DejaVuSans-56"/>
      </g>
     </g>
    </g>
    <g id="xtick_8">
     <g id="line2d_8">
      <g>
       <use style="stroke:#000000;stroke-width:0.8;" x="287.554696" xlink:href="#md99f95c545" y="463.276875"/>
      </g>
     </g>
     <g id="text_8">
      <!-- 02/19 - 02/25 -->
      <g transform="translate(290.314071 537.878437)rotate(-90)scale(0.1 -0.1)">
       <use xlink:href="#DejaVuSans-48"/>
       <use x="63.623047" xlink:href="#DejaVuSans-50"/>
       <use x="127.246094" xlink:href="#DejaVuSans-47"/>
       <use x="160.9375" xlink:href="#DejaVuSans-49"/>
       <use x="224.560547" xlink:href="#DejaVuSans-57"/>
       <use x="288.183594" xlink:href="#DejaVuSans-32"/>
       <use x="319.970703" xlink:href="#DejaVuSans-45"/>
       <use x="356.054688" xlink:href="#DejaVuSans-32"/>
       <use x="387.841797" xlink:href="#DejaVuSans-48"/>
       <use x="451.464844" xlink:href="#DejaVuSans-50"/>
       <use x="515.087891" xlink:href="#DejaVuSans-47"/>
       <use x="548.779297" xlink:href="#DejaVuSans-50"/>
       <use x="612.402344" xlink:href="#DejaVuSans-53"/>
      </g>
     </g>
    </g>
    <g id="xtick_9">
     <g id="line2d_9">
      <g>
       <use style="stroke:#000000;stroke-width:0.8;" x="314.054017" xlink:href="#md99f95c545" y="463.276875"/>
      </g>
     </g>
     <g id="text_9">
      <!-- 02/26 - 03/04 -->
      <g transform="translate(316.813392 537.878437)rotate(-90)scale(0.1 -0.1)">
       <defs>
        <path d="M 33.015625 40.375 
Q 26.375 40.375 22.484375 35.828125 
Q 18.609375 31.296875 18.609375 23.390625 
Q 18.609375 15.53125 22.484375 10.953125 
Q 26.375 6.390625 33.015625 6.390625 
Q 39.65625 6.390625 43.53125 10.953125 
Q 47.40625 15.53125 47.40625 23.390625 
Q 47.40625 31.296875 43.53125 35.828125 
Q 39.65625 40.375 33.015625 40.375 
z
M 52.59375 71.296875 
L 52.59375 62.3125 
Q 48.875 64.0625 45.09375 64.984375 
Q 41.3125 65.921875 37.59375 65.921875 
Q 27.828125 65.921875 22.671875 59.328125 
Q 17.53125 52.734375 16.796875 39.40625 
Q 19.671875 43.65625 24.015625 45.921875 
Q 28.375 48.1875 33.59375 48.1875 
Q 44.578125 48.1875 50.953125 41.515625 
Q 57.328125 34.859375 57.328125 23.390625 
Q 57.328125 12.15625 50.6875 5.359375 
Q 44.046875 -1.421875 33.015625 -1.421875 
Q 20.359375 -1.421875 13.671875 8.265625 
Q 6.984375 17.96875 6.984375 36.375 
Q 6.984375 53.65625 15.1875 63.9375 
Q 23.390625 74.21875 37.203125 74.21875 
Q 40.921875 74.21875 44.703125 73.484375 
Q 48.484375 72.75 52.59375 71.296875 
z
" id="DejaVuSans-54"/>
        <path d="M 40.578125 39.3125 
Q 47.65625 37.796875 51.625 33 
Q 55.609375 28.21875 55.609375 21.1875 
Q 55.609375 10.40625 48.1875 4.484375 
Q 40.765625 -1.421875 27.09375 -1.421875 
Q 22.515625 -1.421875 17.65625 -0.515625 
Q 12.796875 0.390625 7.625 2.203125 
L 7.625 11.71875 
Q 11.71875 9.328125 16.59375 8.109375 
Q 21.484375 6.890625 26.8125 6.890625 
Q 36.078125 6.890625 40.9375 10.546875 
Q 45.796875 14.203125 45.796875 21.1875 
Q 45.796875 27.640625 41.28125 31.265625 
Q 36.765625 34.90625 28.71875 34.90625 
L 20.21875 34.90625 
L 20.21875 43.015625 
L 29.109375 43.015625 
Q 36.375 43.015625 40.234375 45.921875 
Q 44.09375 48.828125 44.09375 54.296875 
Q 44.09375 59.90625 40.109375 62.90625 
Q 36.140625 65.921875 28.71875 65.921875 
Q 24.65625 65.921875 20.015625 65.03125 
Q 15.375 64.15625 9.8125 62.3125 
L 9.8125 71.09375 
Q 15.4375 72.65625 20.34375 73.4375 
Q 25.25 74.21875 29.59375 74.21875 
Q 40.828125 74.21875 47.359375 69.109375 
Q 53.90625 64.015625 53.90625 55.328125 
Q 53.90625 49.265625 50.4375 45.09375 
Q 46.96875 40.921875 40.578125 39.3125 
z
" id="DejaVuSans-51"/>
       </defs>
       <use xlink:href="#DejaVuSans-48"/>
       <use x="63.623047" xlink:href="#DejaVuSans-50"/>
       <use x="127.246094" xlink:href="#DejaVuSans-47"/>
       <use x="160.9375" xlink:href="#DejaVuSans-50"/>
       <use x="224.560547" xlink:href="#DejaVuSans-54"/>
       <use x="288.183594" xlink:href="#DejaVuSans-32"/>
       <use x="319.970703" xlink:href="#DejaVuSans-45"/>
       <use x="356.054688" xlink:href="#DejaVuSans-32"/>
       <use x="387.841797" xlink:href="#DejaVuSans-48"/>
       <use x="451.464844" xlink:href="#DejaVuSans-51"/>
       <use x="515.087891" xlink:href="#DejaVuSans-47"/>
       <use x="548.779297" xlink:href="#DejaVuSans-48"/>
       <use x="612.402344" xlink:href="#DejaVuSans-52"/>
      </g>
     </g>
    </g>
    <g id="xtick_10">
     <g id="line2d_10">
      <g>
       <use style="stroke:#000000;stroke-width:0.8;" x="340.553339" xlink:href="#md99f95c545" y="463.276875"/>
      </g>
     </g>
     <g id="text_10">
      <!-- 03/05 - 03/11 -->
      <g transform="translate(343.312714 537.878437)rotate(-90)scale(0.1 -0.1)">
       <use xlink:href="#DejaVuSans-48"/>
       <use x="63.623047" xlink:href="#DejaVuSans-51"/>
       <use x="127.246094" xlink:href="#DejaVuSans-47"/>
       <use x="160.9375" xlink:href="#DejaVuSans-48"/>
       <use x="224.560547" xlink:href="#DejaVuSans-53"/>
       <use x="288.183594" xlink:href="#DejaVuSans-32"/>
       <use x="319.970703" xlink:href="#DejaVuSans-45"/>
       <use x="356.054688" xlink:href="#DejaVuSans-32"/>
       <use x="387.841797" xlink:href="#DejaVuSans-48"/>
       <use x="451.464844" xlink:href="#DejaVuSans-51"/>
       <use x="515.087891" xlink:href="#DejaVuSans-47"/>
       <use x="548.779297" xlink:href="#DejaVuSans-49"/>
       <use x="612.402344" xlink:href="#DejaVuSans-49"/>
      </g>
     </g>
    </g>
    <g id="xtick_11">
     <g id="line2d_11">
      <g>
       <use style="stroke:#000000;stroke-width:0.8;" x="367.05266" xlink:href="#md99f95c545" y="463.276875"/>
      </g>
     </g>
     <g id="text_11">
      <!-- 03/12 - 03/18 -->
      <g transform="translate(369.812035 537.878437)rotate(-90)scale(0.1 -0.1)">
       <use xlink:href="#DejaVuSans-48"/>
       <use x="63.623047" xlink:href="#DejaVuSans-51"/>
       <use x="127.246094" xlink:href="#DejaVuSans-47"/>
       <use x="160.9375" xlink:href="#DejaVuSans-49"/>
       <use x="224.560547" xlink:href="#DejaVuSans-50"/>
       <use x="288.183594" xlink:href="#DejaVuSans-32"/>
       <use x="319.970703" xlink:href="#DejaVuSans-45"/>
       <use x="356.054688" xlink:href="#DejaVuSans-32"/>
       <use x="387.841797" xlink:href="#DejaVuSans-48"/>
       <use x="451.464844" xlink:href="#DejaVuSans-51"/>
       <use x="515.087891" xlink:href="#DejaVuSans-47"/>
       <use x="548.779297" xlink:href="#DejaVuSans-49"/>
       <use x="612.402344" xlink:href="#DejaVuSans-56"/>
      </g>
     </g>
    </g>
    <g id="xtick_12">
     <g id="line2d_12">
      <g>
       <use style="stroke:#000000;stroke-width:0.8;" x="393.551982" xlink:href="#md99f95c545" y="463.276875"/>
      </g>
     </g>
     <g id="text_12">
      <!-- 03/19 - 03/25 -->
      <g transform="translate(396.311357 537.878437)rotate(-90)scale(0.1 -0.1)">
       <use xlink:href="#DejaVuSans-48"/>
       <use x="63.623047" xlink:href="#DejaVuSans-51"/>
       <use x="127.246094" xlink:href="#DejaVuSans-47"/>
       <use x="160.9375" xlink:href="#DejaVuSans-49"/>
       <use x="224.560547" xlink:href="#DejaVuSans-57"/>
       <use x="288.183594" xlink:href="#DejaVuSans-32"/>
       <use x="319.970703" xlink:href="#DejaVuSans-45"/>
       <use x="356.054688" xlink:href="#DejaVuSans-32"/>
       <use x="387.841797" xlink:href="#DejaVuSans-48"/>
       <use x="451.464844" xlink:href="#DejaVuSans-51"/>
       <use x="515.087891" xlink:href="#DejaVuSans-47"/>
       <use x="548.779297" xlink:href="#DejaVuSans-50"/>
       <use x="612.402344" xlink:href="#DejaVuSans-53"/>
      </g>
     </g>
    </g>
    <g id="xtick_13">
     <g id="line2d_13">
      <g>
       <use style="stroke:#000000;stroke-width:0.8;" x="420.051303" xlink:href="#md99f95c545" y="463.276875"/>
      </g>
     </g>
     <g id="text_13">
      <!-- 03/26 - 04/01 -->
      <g transform="translate(422.810678 537.878437)rotate(-90)scale(0.1 -0.1)">
       <use xlink:href="#DejaVuSans-48"/>
       <use x="63.623047" xlink:href="#DejaVuSans-51"/>
       <use x="127.246094" xlink:href="#DejaVuSans-47"/>
       <use x="160.9375" xlink:href="#DejaVuSans-50"/>
       <use x="224.560547" xlink:href="#DejaVuSans-54"/>
       <use x="288.183594" xlink:href="#DejaVuSans-32"/>
       <use x="319.970703" xlink:href="#DejaVuSans-45"/>
       <use x="356.054688" xlink:href="#DejaVuSans-32"/>
       <use x="387.841797" xlink:href="#DejaVuSans-48"/>
       <use x="451.464844" xlink:href="#DejaVuSans-52"/>
       <use x="515.087891" xlink:href="#DejaVuSans-47"/>
       <use x="548.779297" xlink:href="#DejaVuSans-48"/>
       <use x="612.402344" xlink:href="#DejaVuSans-49"/>
      </g>
     </g>
    </g>
    <g id="xtick_14">
     <g id="line2d_14">
      <g>
       <use style="stroke:#000000;stroke-width:0.8;" x="446.550625" xlink:href="#md99f95c545" y="463.276875"/>
      </g>
     </g>
     <g id="text_14">
      <!-- 04/02 - 04/08 -->
      <g transform="translate(449.31 537.878437)rotate(-90)scale(0.1 -0.1)">
       <use xlink:href="#DejaVuSans-48"/>
       <use x="63.623047" xlink:href="#DejaVuSans-52"/>
       <use x="127.246094" xlink:href="#DejaVuSans-47"/>
       <use x="160.9375" xlink:href="#DejaVuSans-48"/>
       <use x="224.560547" xlink:href="#DejaVuSans-50"/>
       <use x="288.183594" xlink:href="#DejaVuSans-32"/>
       <use x="319.970703" xlink:href="#DejaVuSans-45"/>
       <use x="356.054688" xlink:href="#DejaVuSans-32"/>
       <use x="387.841797" xlink:href="#DejaVuSans-48"/>
       <use x="451.464844" xlink:href="#DejaVuSans-52"/>
       <use x="515.087891" xlink:href="#DejaVuSans-47"/>
       <use x="548.779297" xlink:href="#DejaVuSans-48"/>
       <use x="612.402344" xlink:href="#DejaVuSans-56"/>
      </g>
     </g>
    </g>
    <g id="xtick_15">
     <g id="line2d_15">
      <g>
       <use style="stroke:#000000;stroke-width:0.8;" x="473.049947" xlink:href="#md99f95c545" y="463.276875"/>
      </g>
     </g>
     <g id="text_15">
      <!-- 04/09 - 04/15 -->
      <g transform="translate(475.809322 537.878437)rotate(-90)scale(0.1 -0.1)">
       <use xlink:href="#DejaVuSans-48"/>
       <use x="63.623047" xlink:href="#DejaVuSans-52"/>
       <use x="127.246094" xlink:href="#DejaVuSans-47"/>
       <use x="160.9375" xlink:href="#DejaVuSans-48"/>
       <use x="224.560547" xlink:href="#DejaVuSans-57"/>
       <use x="288.183594" xlink:href="#DejaVuSans-32"/>
       <use x="319.970703" xlink:href="#DejaVuSans-45"/>
       <use x="356.054688" xlink:href="#DejaVuSans-32"/>
       <use x="387.841797" xlink:href="#DejaVuSans-48"/>
       <use x="451.464844" xlink:href="#DejaVuSans-52"/>
       <use x="515.087891" xlink:href="#DejaVuSans-47"/>
       <use x="548.779297" xlink:href="#DejaVuSans-49"/>
       <use x="612.402344" xlink:href="#DejaVuSans-53"/>
      </g>
     </g>
    </g>
    <g id="xtick_16">
     <g id="line2d_16">
      <g>
       <use style="stroke:#000000;stroke-width:0.8;" x="499.549268" xlink:href="#md99f95c545" y="463.276875"/>
      </g>
     </g>
     <g id="text_16">
      <!-- 04/16 - 04/22 -->
      <g transform="translate(502.308643 537.878437)rotate(-90)scale(0.1 -0.1)">
       <use xlink:href="#DejaVuSans-48"/>
       <use x="63.623047" xlink:href="#DejaVuSans-52"/>
       <use x="127.246094" xlink:href="#DejaVuSans-47"/>
       <use x="160.9375" xlink:href="#DejaVuSans-49"/>
       <use x="224.560547" xlink:href="#DejaVuSans-54"/>
       <use x="288.183594" xlink:href="#DejaVuSans-32"/>
       <use x="319.970703" xlink:href="#DejaVuSans-45"/>
       <use x="356.054688" xlink:href="#DejaVuSans-32"/>
       <use x="387.841797" xlink:href="#DejaVuSans-48"/>
       <use x="451.464844" xlink:href="#DejaVuSans-52"/>
       <use x="515.087891" xlink:href="#DejaVuSans-47"/>
       <use x="548.779297" xlink:href="#DejaVuSans-50"/>
       <use x="612.402344" xlink:href="#DejaVuSans-50"/>
      </g>
     </g>
    </g>
    <g id="xtick_17">
     <g id="line2d_17">
      <g>
       <use style="stroke:#000000;stroke-width:0.8;" x="526.04859" xlink:href="#md99f95c545" y="463.276875"/>
      </g>
     </g>
     <g id="text_17">
      <!-- 04/23 - 04/29 -->
      <g transform="translate(528.807965 537.878437)rotate(-90)scale(0.1 -0.1)">
       <use xlink:href="#DejaVuSans-48"/>
       <use x="63.623047" xlink:href="#DejaVuSans-52"/>
       <use x="127.246094" xlink:href="#DejaVuSans-47"/>
       <use x="160.9375" xlink:href="#DejaVuSans-50"/>
       <use x="224.560547" xlink:href="#DejaVuSans-51"/>
       <use x="288.183594" xlink:href="#DejaVuSans-32"/>
       <use x="319.970703" xlink:href="#DejaVuSans-45"/>
       <use x="356.054688" xlink:href="#DejaVuSans-32"/>
       <use x="387.841797" xlink:href="#DejaVuSans-48"/>
       <use x="451.464844" xlink:href="#DejaVuSans-52"/>
       <use x="515.087891" xlink:href="#DejaVuSans-47"/>
       <use x="548.779297" xlink:href="#DejaVuSans-50"/>
       <use x="612.402344" xlink:href="#DejaVuSans-57"/>
      </g>
     </g>
    </g>
    <g id="xtick_18">
     <g id="line2d_18">
      <g>
       <use style="stroke:#000000;stroke-width:0.8;" x="552.547911" xlink:href="#md99f95c545" y="463.276875"/>
      </g>
     </g>
     <g id="text_18">
      <!-- 04/30 - 05/06 -->
      <g transform="translate(555.307286 537.878437)rotate(-90)scale(0.1 -0.1)">
       <use xlink:href="#DejaVuSans-48"/>
       <use x="63.623047" xlink:href="#DejaVuSans-52"/>
       <use x="127.246094" xlink:href="#DejaVuSans-47"/>
       <use x="160.9375" xlink:href="#DejaVuSans-51"/>
       <use x="224.560547" xlink:href="#DejaVuSans-48"/>
       <use x="288.183594" xlink:href="#DejaVuSans-32"/>
       <use x="319.970703" xlink:href="#DejaVuSans-45"/>
       <use x="356.054688" xlink:href="#DejaVuSans-32"/>
       <use x="387.841797" xlink:href="#DejaVuSans-48"/>
       <use x="451.464844" xlink:href="#DejaVuSans-53"/>
       <use x="515.087891" xlink:href="#DejaVuSans-47"/>
       <use x="548.779297" xlink:href="#DejaVuSans-48"/>
       <use x="612.402344" xlink:href="#DejaVuSans-54"/>
      </g>
     </g>
    </g>
    <g id="xtick_19">
     <g id="line2d_19">
      <g>
       <use style="stroke:#000000;stroke-width:0.8;" x="579.047233" xlink:href="#md99f95c545" y="463.276875"/>
      </g>
     </g>
     <g id="text_19">
      <!-- 05/07 - 05/13 -->
      <g transform="translate(581.806608 537.878437)rotate(-90)scale(0.1 -0.1)">
       <use xlink:href="#DejaVuSans-48"/>
       <use x="63.623047" xlink:href="#DejaVuSans-53"/>
       <use x="127.246094" xlink:href="#DejaVuSans-47"/>
       <use x="160.9375" xlink:href="#DejaVuSans-48"/>
       <use x="224.560547" xlink:href="#DejaVuSans-55"/>
       <use x="288.183594" xlink:href="#DejaVuSans-32"/>
       <use x="319.970703" xlink:href="#DejaVuSans-45"/>
       <use x="356.054688" xlink:href="#DejaVuSans-32"/>
       <use x="387.841797" xlink:href="#DejaVuSans-48"/>
       <use x="451.464844" xlink:href="#DejaVuSans-53"/>
       <use x="515.087891" xlink:href="#DejaVuSans-47"/>
       <use x="548.779297" xlink:href="#DejaVuSans-49"/>
       <use x="612.402344" xlink:href="#DejaVuSans-51"/>
      </g>
     </g>
    </g>
    <g id="xtick_20">
     <g id="line2d_20">
      <g>
       <use style="stroke:#000000;stroke-width:0.8;" x="605.546554" xlink:href="#md99f95c545" y="463.276875"/>
      </g>
     </g>
     <g id="text_20">
      <!-- 05/14 - 05/20 -->
      <g transform="translate(608.305929 537.878437)rotate(-90)scale(0.1 -0.1)">
       <use xlink:href="#DejaVuSans-48"/>
       <use x="63.623047" xlink:href="#DejaVuSans-53"/>
       <use x="127.246094" xlink:href="#DejaVuSans-47"/>
       <use x="160.9375" xlink:href="#DejaVuSans-49"/>
       <use x="224.560547" xlink:href="#DejaVuSans-52"/>
       <use x="288.183594" xlink:href="#DejaVuSans-32"/>
       <use x="319.970703" xlink:href="#DejaVuSans-45"/>
       <use x="356.054688" xlink:href="#DejaVuSans-32"/>
       <use x="387.841797" xlink:href="#DejaVuSans-48"/>
       <use x="451.464844" xlink:href="#DejaVuSans-53"/>
       <use x="515.087891" xlink:href="#DejaVuSans-47"/>
       <use x="548.779297" xlink:href="#DejaVuSans-50"/>
       <use x="612.402344" xlink:href="#DejaVuSans-48"/>
      </g>
     </g>
    </g>
    <g id="xtick_21">
     <g id="line2d_21">
      <g>
       <use style="stroke:#000000;stroke-width:0.8;" x="632.045876" xlink:href="#md99f95c545" y="463.276875"/>
      </g>
     </g>
     <g id="text_21">
      <!-- 05/21 - 05/27 -->
      <g transform="translate(634.805251 537.878437)rotate(-90)scale(0.1 -0.1)">
       <use xlink:href="#DejaVuSans-48"/>
       <use x="63.623047" xlink:href="#DejaVuSans-53"/>
       <use x="127.246094" xlink:href="#DejaVuSans-47"/>
       <use x="160.9375" xlink:href="#DejaVuSans-50"/>
       <use x="224.560547" xlink:href="#DejaVuSans-49"/>
       <use x="288.183594" xlink:href="#DejaVuSans-32"/>
       <use x="319.970703" xlink:href="#DejaVuSans-45"/>
       <use x="356.054688" xlink:href="#DejaVuSans-32"/>
       <use x="387.841797" xlink:href="#DejaVuSans-48"/>
       <use x="451.464844" xlink:href="#DejaVuSans-53"/>
       <use x="515.087891" xlink:href="#DejaVuSans-47"/>
       <use x="548.779297" xlink:href="#DejaVuSans-50"/>
       <use x="612.402344" xlink:href="#DejaVuSans-55"/>
      </g>
     </g>
    </g>
    <g id="xtick_22">
     <g id="line2d_22">
      <g>
       <use style="stroke:#000000;stroke-width:0.8;" x="658.545198" xlink:href="#md99f95c545" y="463.276875"/>
      </g>
     </g>
     <g id="text_22">
      <!-- 05/28 - 06/03 -->
      <g transform="translate(661.304573 537.878437)rotate(-90)scale(0.1 -0.1)">
       <use xlink:href="#DejaVuSans-48"/>
       <use x="63.623047" xlink:href="#DejaVuSans-53"/>
       <use x="127.246094" xlink:href="#DejaVuSans-47"/>
       <use x="160.9375" xlink:href="#DejaVuSans-50"/>
       <use x="224.560547" xlink:href="#DejaVuSans-56"/>
       <use x="288.183594" xlink:href="#DejaVuSans-32"/>
       <use x="319.970703" xlink:href="#DejaVuSans-45"/>
       <use x="356.054688" xlink:href="#DejaVuSans-32"/>
       <use x="387.841797" xlink:href="#DejaVuSans-48"/>
       <use x="451.464844" xlink:href="#DejaVuSans-54"/>
       <use x="515.087891" xlink:href="#DejaVuSans-47"/>
       <use x="548.779297" xlink:href="#DejaVuSans-48"/>
       <use x="612.402344" xlink:href="#DejaVuSans-51"/>
      </g>
     </g>
    </g>
    <g id="xtick_23">
     <g id="line2d_23">
      <g>
       <use style="stroke:#000000;stroke-width:0.8;" x="685.044519" xlink:href="#md99f95c545" y="463.276875"/>
      </g>
     </g>
     <g id="text_23">
      <!-- 06/04 - 06/10 -->
      <g transform="translate(687.803894 537.878437)rotate(-90)scale(0.1 -0.1)">
       <use xlink:href="#DejaVuSans-48"/>
       <use x="63.623047" xlink:href="#DejaVuSans-54"/>
       <use x="127.246094" xlink:href="#DejaVuSans-47"/>
       <use x="160.9375" xlink:href="#DejaVuSans-48"/>
       <use x="224.560547" xlink:href="#DejaVuSans-52"/>
       <use x="288.183594" xlink:href="#DejaVuSans-32"/>
       <use x="319.970703" xlink:href="#DejaVuSans-45"/>
       <use x="356.054688" xlink:href="#DejaVuSans-32"/>
       <use x="387.841797" xlink:href="#DejaVuSans-48"/>
       <use x="451.464844" xlink:href="#DejaVuSans-54"/>
       <use x="515.087891" xlink:href="#DejaVuSans-47"/>
       <use x="548.779297" xlink:href="#DejaVuSans-49"/>
       <use x="612.402344" xlink:href="#DejaVuSans-48"/>
      </g>
     </g>
    </g>
    <g id="xtick_24">
     <g id="line2d_24">
      <g>
       <use style="stroke:#000000;stroke-width:0.8;" x="711.543841" xlink:href="#md99f95c545" y="463.276875"/>
      </g>
     </g>
     <g id="text_24">
      <!-- 06/11 - 06/17 -->
      <g transform="translate(714.303216 537.878437)rotate(-90)scale(0.1 -0.1)">
       <use xlink:href="#DejaVuSans-48"/>
       <use x="63.623047" xlink:href="#DejaVuSans-54"/>
       <use x="127.246094" xlink:href="#DejaVuSans-47"/>
       <use x="160.9375" xlink:href="#DejaVuSans-49"/>
       <use x="224.560547" xlink:href="#DejaVuSans-49"/>
       <use x="288.183594" xlink:href="#DejaVuSans-32"/>
       <use x="319.970703" xlink:href="#DejaVuSans-45"/>
       <use x="356.054688" xlink:href="#DejaVuSans-32"/>
       <use x="387.841797" xlink:href="#DejaVuSans-48"/>
       <use x="451.464844" xlink:href="#DejaVuSans-54"/>
       <use x="515.087891" xlink:href="#DejaVuSans-47"/>
       <use x="548.779297" xlink:href="#DejaVuSans-49"/>
       <use x="612.402344" xlink:href="#DejaVuSans-55"/>
      </g>
     </g>
    </g>
    <g id="xtick_25">
     <g id="line2d_25">
      <g>
       <use style="stroke:#000000;stroke-width:0.8;" x="738.043162" xlink:href="#md99f95c545" y="463.276875"/>
      </g>
     </g>
     <g id="text_25">
      <!-- 06/18 - 06/24 -->
      <g transform="translate(740.802537 537.878437)rotate(-90)scale(0.1 -0.1)">
       <use xlink:href="#DejaVuSans-48"/>
       <use x="63.623047" xlink:href="#DejaVuSans-54"/>
       <use x="127.246094" xlink:href="#DejaVuSans-47"/>
       <use x="160.9375" xlink:href="#DejaVuSans-49"/>
       <use x="224.560547" xlink:href="#DejaVuSans-56"/>
       <use x="288.183594" xlink:href="#DejaVuSans-32"/>
       <use x="319.970703" xlink:href="#DejaVuSans-45"/>
       <use x="356.054688" xlink:href="#DejaVuSans-32"/>
       <use x="387.841797" xlink:href="#DejaVuSans-48"/>
       <use x="451.464844" xlink:href="#DejaVuSans-54"/>
       <use x="515.087891" xlink:href="#DejaVuSans-47"/>
       <use x="548.779297" xlink:href="#DejaVuSans-50"/>
       <use x="612.402344" xlink:href="#DejaVuSans-52"/>
      </g>
     </g>
    </g>
    <g id="xtick_26">
     <g id="line2d_26">
      <g>
       <use style="stroke:#000000;stroke-width:0.8;" x="764.542484" xlink:href="#md99f95c545" y="463.276875"/>
      </g>
     </g>
     <g id="text_26">
      <!-- 06/25 - 07/01 -->
      <g transform="translate(767.301859 537.878437)rotate(-90)scale(0.1 -0.1)">
       <use xlink:href="#DejaVuSans-48"/>
       <use x="63.623047" xlink:href="#DejaVuSans-54"/>
       <use x="127.246094" xlink:href="#DejaVuSans-47"/>
       <use x="160.9375" xlink:href="#DejaVuSans-50"/>
       <use x="224.560547" xlink:href="#DejaVuSans-53"/>
       <use x="288.183594" xlink:href="#DejaVuSans-32"/>
       <use x="319.970703" xlink:href="#DejaVuSans-45"/>
       <use x="356.054688" xlink:href="#DejaVuSans-32"/>
       <use x="387.841797" xlink:href="#DejaVuSans-48"/>
       <use x="451.464844" xlink:href="#DejaVuSans-55"/>
       <use x="515.087891" xlink:href="#DejaVuSans-47"/>
       <use x="548.779297" xlink:href="#DejaVuSans-48"/>
       <use x="612.402344" xlink:href="#DejaVuSans-49"/>
      </g>
     </g>
    </g>
    <g id="xtick_27">
     <g id="line2d_27">
      <g>
       <use style="stroke:#000000;stroke-width:0.8;" x="791.041805" xlink:href="#md99f95c545" y="463.276875"/>
      </g>
     </g>
     <g id="text_27">
      <!-- 07/02 - 07/08 -->
      <g transform="translate(793.80118 537.878437)rotate(-90)scale(0.1 -0.1)">
       <use xlink:href="#DejaVuSans-48"/>
       <use x="63.623047" xlink:href="#DejaVuSans-55"/>
       <use x="127.246094" xlink:href="#DejaVuSans-47"/>
       <use x="160.9375" xlink:href="#DejaVuSans-48"/>
       <use x="224.560547" xlink:href="#DejaVuSans-50"/>
       <use x="288.183594" xlink:href="#DejaVuSans-32"/>
       <use x="319.970703" xlink:href="#DejaVuSans-45"/>
       <use x="356.054688" xlink:href="#DejaVuSans-32"/>
       <use x="387.841797" xlink:href="#DejaVuSans-48"/>
       <use x="451.464844" xlink:href="#DejaVuSans-55"/>
       <use x="515.087891" xlink:href="#DejaVuSans-47"/>
       <use x="548.779297" xlink:href="#DejaVuSans-48"/>
       <use x="612.402344" xlink:href="#DejaVuSans-56"/>
      </g>
     </g>
    </g>
    <g id="text_28">
     <!--  -->
     <g transform="translate(446.550625 554.035937)scale(0.16 -0.16)"/>
     <!--  User Registration Cohort Date -->
     <g transform="translate(323.913125 571.952437)scale(0.16 -0.16)">
      <defs>
       <path d="M 8.6875 72.90625 
L 18.609375 72.90625 
L 18.609375 28.609375 
Q 18.609375 16.890625 22.84375 11.734375 
Q 27.09375 6.59375 36.625 6.59375 
Q 46.09375 6.59375 50.34375 11.734375 
Q 54.59375 16.890625 54.59375 28.609375 
L 54.59375 72.90625 
L 64.5 72.90625 
L 64.5 27.390625 
Q 64.5 13.140625 57.4375 5.859375 
Q 50.390625 -1.421875 36.625 -1.421875 
Q 22.796875 -1.421875 15.734375 5.859375 
Q 8.6875 13.140625 8.6875 27.390625 
z
" id="DejaVuSans-85"/>
       <path d="M 44.28125 53.078125 
L 44.28125 44.578125 
Q 40.484375 46.53125 36.375 47.5 
Q 32.28125 48.484375 27.875 48.484375 
Q 21.1875 48.484375 17.84375 46.4375 
Q 14.5 44.390625 14.5 40.28125 
Q 14.5 37.15625 16.890625 35.375 
Q 19.28125 33.59375 26.515625 31.984375 
L 29.59375 31.296875 
Q 39.15625 29.25 43.1875 25.515625 
Q 47.21875 21.78125 47.21875 15.09375 
Q 47.21875 7.46875 41.1875 3.015625 
Q 35.15625 -1.421875 24.609375 -1.421875 
Q 20.21875 -1.421875 15.453125 -0.5625 
Q 10.6875 0.296875 5.421875 2 
L 5.421875 11.28125 
Q 10.40625 8.6875 15.234375 7.390625 
Q 20.0625 6.109375 24.8125 6.109375 
Q 31.15625 6.109375 34.5625 8.28125 
Q 37.984375 10.453125 37.984375 14.40625 
Q 37.984375 18.0625 35.515625 20.015625 
Q 33.0625 21.96875 24.703125 23.78125 
L 21.578125 24.515625 
Q 13.234375 26.265625 9.515625 29.90625 
Q 5.8125 33.546875 5.8125 39.890625 
Q 5.8125 47.609375 11.28125 51.796875 
Q 16.75 56 26.8125 56 
Q 31.78125 56 36.171875 55.265625 
Q 40.578125 54.546875 44.28125 53.078125 
z
" id="DejaVuSans-115"/>
       <path d="M 56.203125 29.59375 
L 56.203125 25.203125 
L 14.890625 25.203125 
Q 15.484375 15.921875 20.484375 11.0625 
Q 25.484375 6.203125 34.421875 6.203125 
Q 39.59375 6.203125 44.453125 7.46875 
Q 49.3125 8.734375 54.109375 11.28125 
L 54.109375 2.78125 
Q 49.265625 0.734375 44.1875 -0.34375 
Q 39.109375 -1.421875 33.890625 -1.421875 
Q 20.796875 -1.421875 13.15625 6.1875 
Q 5.515625 13.8125 5.515625 26.8125 
Q 5.515625 40.234375 12.765625 48.109375 
Q 20.015625 56 32.328125 56 
Q 43.359375 56 49.78125 48.890625 
Q 56.203125 41.796875 56.203125 29.59375 
z
M 47.21875 32.234375 
Q 47.125 39.59375 43.09375 43.984375 
Q 39.0625 48.390625 32.421875 48.390625 
Q 24.90625 48.390625 20.390625 44.140625 
Q 15.875 39.890625 15.1875 32.171875 
z
" id="DejaVuSans-101"/>
       <path d="M 41.109375 46.296875 
Q 39.59375 47.171875 37.8125 47.578125 
Q 36.03125 48 33.890625 48 
Q 26.265625 48 22.1875 43.046875 
Q 18.109375 38.09375 18.109375 28.8125 
L 18.109375 0 
L 9.078125 0 
L 9.078125 54.6875 
L 18.109375 54.6875 
L 18.109375 46.1875 
Q 20.953125 51.171875 25.484375 53.578125 
Q 30.03125 56 36.53125 56 
Q 37.453125 56 38.578125 55.875 
Q 39.703125 55.765625 41.0625 55.515625 
z
" id="DejaVuSans-114"/>
       <path d="M 44.390625 34.1875 
Q 47.5625 33.109375 50.5625 29.59375 
Q 53.5625 26.078125 56.59375 19.921875 
L 66.609375 0 
L 56 0 
L 46.6875 18.703125 
Q 43.0625 26.03125 39.671875 28.421875 
Q 36.28125 30.8125 30.421875 30.8125 
L 19.671875 30.8125 
L 19.671875 0 
L 9.8125 0 
L 9.8125 72.90625 
L 32.078125 72.90625 
Q 44.578125 72.90625 50.734375 67.671875 
Q 56.890625 62.453125 56.890625 51.90625 
Q 56.890625 45.015625 53.6875 40.46875 
Q 50.484375 35.9375 44.390625 34.1875 
z
M 19.671875 64.796875 
L 19.671875 38.921875 
L 32.078125 38.921875 
Q 39.203125 38.921875 42.84375 42.21875 
Q 46.484375 45.515625 46.484375 51.90625 
Q 46.484375 58.296875 42.84375 61.546875 
Q 39.203125 64.796875 32.078125 64.796875 
z
" id="DejaVuSans-82"/>
       <path d="M 45.40625 27.984375 
Q 45.40625 37.75 41.375 43.109375 
Q 37.359375 48.484375 30.078125 48.484375 
Q 22.859375 48.484375 18.828125 43.109375 
Q 14.796875 37.75 14.796875 27.984375 
Q 14.796875 18.265625 18.828125 12.890625 
Q 22.859375 7.515625 30.078125 7.515625 
Q 37.359375 7.515625 41.375 12.890625 
Q 45.40625 18.265625 45.40625 27.984375 
z
M 54.390625 6.78125 
Q 54.390625 -7.171875 48.1875 -13.984375 
Q 42 -20.796875 29.203125 -20.796875 
Q 24.46875 -20.796875 20.265625 -20.09375 
Q 16.0625 -19.390625 12.109375 -17.921875 
L 12.109375 -9.1875 
Q 16.0625 -11.328125 19.921875 -12.34375 
Q 23.78125 -13.375 27.78125 -13.375 
Q 36.625 -13.375 41.015625 -8.765625 
Q 45.40625 -4.15625 45.40625 5.171875 
L 45.40625 9.625 
Q 42.625 4.78125 38.28125 2.390625 
Q 33.9375 0 27.875 0 
Q 17.828125 0 11.671875 7.65625 
Q 5.515625 15.328125 5.515625 27.984375 
Q 5.515625 40.671875 11.671875 48.328125 
Q 17.828125 56 27.875 56 
Q 33.9375 56 38.28125 53.609375 
Q 42.625 51.21875 45.40625 46.390625 
L 45.40625 54.6875 
L 54.390625 54.6875 
z
" id="DejaVuSans-103"/>
       <path d="M 9.421875 54.6875 
L 18.40625 54.6875 
L 18.40625 0 
L 9.421875 0 
z
M 9.421875 75.984375 
L 18.40625 75.984375 
L 18.40625 64.59375 
L 9.421875 64.59375 
z
" id="DejaVuSans-105"/>
       <path d="M 18.3125 70.21875 
L 18.3125 54.6875 
L 36.8125 54.6875 
L 36.8125 47.703125 
L 18.3125 47.703125 
L 18.3125 18.015625 
Q 18.3125 11.328125 20.140625 9.421875 
Q 21.96875 7.515625 27.59375 7.515625 
L 36.8125 7.515625 
L 36.8125 0 
L 27.59375 0 
Q 17.1875 0 13.234375 3.875 
Q 9.28125 7.765625 9.28125 18.015625 
L 9.28125 47.703125 
L 2.6875 47.703125 
L 2.6875 54.6875 
L 9.28125 54.6875 
L 9.28125 70.21875 
z
" id="DejaVuSans-116"/>
       <path d="M 34.28125 27.484375 
Q 23.390625 27.484375 19.1875 25 
Q 14.984375 22.515625 14.984375 16.5 
Q 14.984375 11.71875 18.140625 8.90625 
Q 21.296875 6.109375 26.703125 6.109375 
Q 34.1875 6.109375 38.703125 11.40625 
Q 43.21875 16.703125 43.21875 25.484375 
L 43.21875 27.484375 
z
M 52.203125 31.203125 
L 52.203125 0 
L 43.21875 0 
L 43.21875 8.296875 
Q 40.140625 3.328125 35.546875 0.953125 
Q 30.953125 -1.421875 24.3125 -1.421875 
Q 15.921875 -1.421875 10.953125 3.296875 
Q 6 8.015625 6 15.921875 
Q 6 25.140625 12.171875 29.828125 
Q 18.359375 34.515625 30.609375 34.515625 
L 43.21875 34.515625 
L 43.21875 35.40625 
Q 43.21875 41.609375 39.140625 45 
Q 35.0625 48.390625 27.6875 48.390625 
Q 23 48.390625 18.546875 47.265625 
Q 14.109375 46.140625 10.015625 43.890625 
L 10.015625 52.203125 
Q 14.9375 54.109375 19.578125 55.046875 
Q 24.21875 56 28.609375 56 
Q 40.484375 56 46.34375 49.84375 
Q 52.203125 43.703125 52.203125 31.203125 
z
" id="DejaVuSans-97"/>
       <path d="M 30.609375 48.390625 
Q 23.390625 48.390625 19.1875 42.75 
Q 14.984375 37.109375 14.984375 27.296875 
Q 14.984375 17.484375 19.15625 11.84375 
Q 23.34375 6.203125 30.609375 6.203125 
Q 37.796875 6.203125 41.984375 11.859375 
Q 46.1875 17.53125 46.1875 27.296875 
Q 46.1875 37.015625 41.984375 42.703125 
Q 37.796875 48.390625 30.609375 48.390625 
z
M 30.609375 56 
Q 42.328125 56 49.015625 48.375 
Q 55.71875 40.765625 55.71875 27.296875 
Q 55.71875 13.875 49.015625 6.21875 
Q 42.328125 -1.421875 30.609375 -1.421875 
Q 18.84375 -1.421875 12.171875 6.21875 
Q 5.515625 13.875 5.515625 27.296875 
Q 5.515625 40.765625 12.171875 48.375 
Q 18.84375 56 30.609375 56 
z
" id="DejaVuSans-111"/>
       <path d="M 54.890625 33.015625 
L 54.890625 0 
L 45.90625 0 
L 45.90625 32.71875 
Q 45.90625 40.484375 42.875 44.328125 
Q 39.84375 48.1875 33.796875 48.1875 
Q 26.515625 48.1875 22.3125 43.546875 
Q 18.109375 38.921875 18.109375 30.90625 
L 18.109375 0 
L 9.078125 0 
L 9.078125 54.6875 
L 18.109375 54.6875 
L 18.109375 46.1875 
Q 21.34375 51.125 25.703125 53.5625 
Q 30.078125 56 35.796875 56 
Q 45.21875 56 50.046875 50.171875 
Q 54.890625 44.34375 54.890625 33.015625 
z
" id="DejaVuSans-110"/>
       <path d="M 64.40625 67.28125 
L 64.40625 56.890625 
Q 59.421875 61.53125 53.78125 63.8125 
Q 48.140625 66.109375 41.796875 66.109375 
Q 29.296875 66.109375 22.65625 58.46875 
Q 16.015625 50.828125 16.015625 36.375 
Q 16.015625 21.96875 22.65625 14.328125 
Q 29.296875 6.6875 41.796875 6.6875 
Q 48.140625 6.6875 53.78125 8.984375 
Q 59.421875 11.28125 64.40625 15.921875 
L 64.40625 5.609375 
Q 59.234375 2.09375 53.4375 0.328125 
Q 47.65625 -1.421875 41.21875 -1.421875 
Q 24.65625 -1.421875 15.125 8.703125 
Q 5.609375 18.84375 5.609375 36.375 
Q 5.609375 53.953125 15.125 64.078125 
Q 24.65625 74.21875 41.21875 74.21875 
Q 47.75 74.21875 53.53125 72.484375 
Q 59.328125 70.75 64.40625 67.28125 
z
" id="DejaVuSans-67"/>
       <path d="M 54.890625 33.015625 
L 54.890625 0 
L 45.90625 0 
L 45.90625 32.71875 
Q 45.90625 40.484375 42.875 44.328125 
Q 39.84375 48.1875 33.796875 48.1875 
Q 26.515625 48.1875 22.3125 43.546875 
Q 18.109375 38.921875 18.109375 30.90625 
L 18.109375 0 
L 9.078125 0 
L 9.078125 75.984375 
L 18.109375 75.984375 
L 18.109375 46.1875 
Q 21.34375 51.125 25.703125 53.5625 
Q 30.078125 56 35.796875 56 
Q 45.21875 56 50.046875 50.171875 
Q 54.890625 44.34375 54.890625 33.015625 
z
" id="DejaVuSans-104"/>
       <path d="M 19.671875 64.796875 
L 19.671875 8.109375 
L 31.59375 8.109375 
Q 46.6875 8.109375 53.6875 14.9375 
Q 60.6875 21.78125 60.6875 36.53125 
Q 60.6875 51.171875 53.6875 57.984375 
Q 46.6875 64.796875 31.59375 64.796875 
z
M 9.8125 72.90625 
L 30.078125 72.90625 
Q 51.265625 72.90625 61.171875 64.09375 
Q 71.09375 55.28125 71.09375 36.53125 
Q 71.09375 17.671875 61.125 8.828125 
Q 51.171875 0 30.078125 0 
L 9.8125 0 
z
" id="DejaVuSans-68"/>
      </defs>
      <use xlink:href="#DejaVuSans-32"/>
      <use x="31.787109" xlink:href="#DejaVuSans-85"/>
      <use x="104.980469" xlink:href="#DejaVuSans-115"/>
      <use x="157.080078" xlink:href="#DejaVuSans-101"/>
      <use x="218.603516" xlink:href="#DejaVuSans-114"/>
      <use x="259.716797" xlink:href="#DejaVuSans-32"/>
      <use x="291.503906" xlink:href="#DejaVuSans-82"/>
      <use x="356.486328" xlink:href="#DejaVuSans-101"/>
      <use x="418.009766" xlink:href="#DejaVuSans-103"/>
      <use x="481.486328" xlink:href="#DejaVuSans-105"/>
      <use x="509.269531" xlink:href="#DejaVuSans-115"/>
      <use x="561.369141" xlink:href="#DejaVuSans-116"/>
      <use x="600.578125" xlink:href="#DejaVuSans-114"/>
      <use x="641.691406" xlink:href="#DejaVuSans-97"/>
      <use x="702.970703" xlink:href="#DejaVuSans-116"/>
      <use x="742.179688" xlink:href="#DejaVuSans-105"/>
      <use x="769.962891" xlink:href="#DejaVuSans-111"/>
      <use x="831.144531" xlink:href="#DejaVuSans-110"/>
      <use x="894.523438" xlink:href="#DejaVuSans-32"/>
      <use x="926.310547" xlink:href="#DejaVuSans-67"/>
      <use x="996.134766" xlink:href="#DejaVuSans-111"/>
      <use x="1057.316406" xlink:href="#DejaVuSans-104"/>
      <use x="1120.695312" xlink:href="#DejaVuSans-111"/>
      <use x="1181.876953" xlink:href="#DejaVuSans-114"/>
      <use x="1222.990234" xlink:href="#DejaVuSans-116"/>
      <use x="1262.199219" xlink:href="#DejaVuSans-32"/>
      <use x="1293.986328" xlink:href="#DejaVuSans-68"/>
      <use x="1370.988281" xlink:href="#DejaVuSans-97"/>
      <use x="1432.267578" xlink:href="#DejaVuSans-116"/>
      <use x="1471.476562" xlink:href="#DejaVuSans-101"/>
     </g>
    </g>
   </g>
   <g id="matplotlib.axis_2">
    <g id="ytick_1">
     <g id="line2d_28">
      <defs>
       <path d="M 0 0 
L -3.5 0 
" id="mb764c312b3" style="stroke:#000000;stroke-width:0.8;"/>
      </defs>
      <g>
       <use style="stroke:#000000;stroke-width:0.8;" x="55.950625" xlink:href="#mb764c312b3" y="463.276875"/>
      </g>
     </g>
     <g id="text_29">
      <!-- 0.0 -->
      <g transform="translate(33.0475 467.076094)scale(0.1 -0.1)">
       <defs>
        <path d="M 10.6875 12.40625 
L 21 12.40625 
L 21 0 
L 10.6875 0 
z
" id="DejaVuSans-46"/>
       </defs>
       <use xlink:href="#DejaVuSans-48"/>
       <use x="63.623047" xlink:href="#DejaVuSans-46"/>
       <use x="95.410156" xlink:href="#DejaVuSans-48"/>
      </g>
     </g>
    </g>
    <g id="ytick_2">
     <g id="line2d_29">
      <g>
       <use style="stroke:#000000;stroke-width:0.8;" x="55.950625" xlink:href="#mb764c312b3" y="413.970753"/>
      </g>
     </g>
     <g id="text_30">
      <!-- 2.5 -->
      <g transform="translate(33.0475 417.769971)scale(0.1 -0.1)">
       <use xlink:href="#DejaVuSans-50"/>
       <use x="63.623047" xlink:href="#DejaVuSans-46"/>
       <use x="95.410156" xlink:href="#DejaVuSans-53"/>
      </g>
     </g>
    </g>
    <g id="ytick_3">
     <g id="line2d_30">
      <g>
       <use style="stroke:#000000;stroke-width:0.8;" x="55.950625" xlink:href="#mb764c312b3" y="364.66463"/>
      </g>
     </g>
     <g id="text_31">
      <!-- 5.0 -->
      <g transform="translate(33.0475 368.463849)scale(0.1 -0.1)">
       <use xlink:href="#DejaVuSans-53"/>
       <use x="63.623047" xlink:href="#DejaVuSans-46"/>
       <use x="95.410156" xlink:href="#DejaVuSans-48"/>
      </g>
     </g>
    </g>
    <g id="ytick_4">
     <g id="line2d_31">
      <g>
       <use style="stroke:#000000;stroke-width:0.8;" x="55.950625" xlink:href="#mb764c312b3" y="315.358508"/>
      </g>
     </g>
     <g id="text_32">
      <!-- 7.5 -->
      <g transform="translate(33.0475 319.157726)scale(0.1 -0.1)">
       <use xlink:href="#DejaVuSans-55"/>
       <use x="63.623047" xlink:href="#DejaVuSans-46"/>
       <use x="95.410156" xlink:href="#DejaVuSans-53"/>
      </g>
     </g>
    </g>
    <g id="ytick_5">
     <g id="line2d_32">
      <g>
       <use style="stroke:#000000;stroke-width:0.8;" x="55.950625" xlink:href="#mb764c312b3" y="266.052385"/>
      </g>
     </g>
     <g id="text_33">
      <!-- 10.0 -->
      <g transform="translate(26.685 269.851604)scale(0.1 -0.1)">
       <use xlink:href="#DejaVuSans-49"/>
       <use x="63.623047" xlink:href="#DejaVuSans-48"/>
       <use x="127.246094" xlink:href="#DejaVuSans-46"/>
       <use x="159.033203" xlink:href="#DejaVuSans-48"/>
      </g>
     </g>
    </g>
    <g id="ytick_6">
     <g id="line2d_33">
      <g>
       <use style="stroke:#000000;stroke-width:0.8;" x="55.950625" xlink:href="#mb764c312b3" y="216.746263"/>
      </g>
     </g>
     <g id="text_34">
      <!-- 12.5 -->
      <g transform="translate(26.685 220.545482)scale(0.1 -0.1)">
       <use xlink:href="#DejaVuSans-49"/>
       <use x="63.623047" xlink:href="#DejaVuSans-50"/>
       <use x="127.246094" xlink:href="#DejaVuSans-46"/>
       <use x="159.033203" xlink:href="#DejaVuSans-53"/>
      </g>
     </g>
    </g>
    <g id="ytick_7">
     <g id="line2d_34">
      <g>
       <use style="stroke:#000000;stroke-width:0.8;" x="55.950625" xlink:href="#mb764c312b3" y="167.44014"/>
      </g>
     </g>
     <g id="text_35">
      <!-- 15.0 -->
      <g transform="translate(26.685 171.239359)scale(0.1 -0.1)">
       <use xlink:href="#DejaVuSans-49"/>
       <use x="63.623047" xlink:href="#DejaVuSans-53"/>
       <use x="127.246094" xlink:href="#DejaVuSans-46"/>
       <use x="159.033203" xlink:href="#DejaVuSans-48"/>
      </g>
     </g>
    </g>
    <g id="ytick_8">
     <g id="line2d_35">
      <g>
       <use style="stroke:#000000;stroke-width:0.8;" x="55.950625" xlink:href="#mb764c312b3" y="118.134018"/>
      </g>
     </g>
     <g id="text_36">
      <!-- 17.5 -->
      <g transform="translate(26.685 121.933237)scale(0.1 -0.1)">
       <use xlink:href="#DejaVuSans-49"/>
       <use x="63.623047" xlink:href="#DejaVuSans-55"/>
       <use x="127.246094" xlink:href="#DejaVuSans-46"/>
       <use x="159.033203" xlink:href="#DejaVuSans-53"/>
      </g>
     </g>
    </g>
    <g id="ytick_9">
     <g id="line2d_36">
      <g>
       <use style="stroke:#000000;stroke-width:0.8;" x="55.950625" xlink:href="#mb764c312b3" y="68.827895"/>
      </g>
     </g>
     <g id="text_37">
      <!-- 20.0 -->
      <g transform="translate(26.685 72.627114)scale(0.1 -0.1)">
       <use xlink:href="#DejaVuSans-50"/>
       <use x="63.623047" xlink:href="#DejaVuSans-48"/>
       <use x="127.246094" xlink:href="#DejaVuSans-46"/>
       <use x="159.033203" xlink:href="#DejaVuSans-48"/>
      </g>
     </g>
    </g>
    <g id="text_38">
     <!-- Percent of Tests Ordered -->
     <g transform="translate(19.3575 343.745625)rotate(-90)scale(0.16 -0.16)">
      <defs>
       <path d="M 19.671875 64.796875 
L 19.671875 37.40625 
L 32.078125 37.40625 
Q 38.96875 37.40625 42.71875 40.96875 
Q 46.484375 44.53125 46.484375 51.125 
Q 46.484375 57.671875 42.71875 61.234375 
Q 38.96875 64.796875 32.078125 64.796875 
z
M 9.8125 72.90625 
L 32.078125 72.90625 
Q 44.34375 72.90625 50.609375 67.359375 
Q 56.890625 61.8125 56.890625 51.125 
Q 56.890625 40.328125 50.609375 34.8125 
Q 44.34375 29.296875 32.078125 29.296875 
L 19.671875 29.296875 
L 19.671875 0 
L 9.8125 0 
z
" id="DejaVuSans-80"/>
       <path d="M 48.78125 52.59375 
L 48.78125 44.1875 
Q 44.96875 46.296875 41.140625 47.34375 
Q 37.3125 48.390625 33.40625 48.390625 
Q 24.65625 48.390625 19.8125 42.84375 
Q 14.984375 37.3125 14.984375 27.296875 
Q 14.984375 17.28125 19.8125 11.734375 
Q 24.65625 6.203125 33.40625 6.203125 
Q 37.3125 6.203125 41.140625 7.25 
Q 44.96875 8.296875 48.78125 10.40625 
L 48.78125 2.09375 
Q 45.015625 0.34375 40.984375 -0.53125 
Q 36.96875 -1.421875 32.421875 -1.421875 
Q 20.0625 -1.421875 12.78125 6.34375 
Q 5.515625 14.109375 5.515625 27.296875 
Q 5.515625 40.671875 12.859375 48.328125 
Q 20.21875 56 33.015625 56 
Q 37.15625 56 41.109375 55.140625 
Q 45.0625 54.296875 48.78125 52.59375 
z
" id="DejaVuSans-99"/>
       <path d="M 37.109375 75.984375 
L 37.109375 68.5 
L 28.515625 68.5 
Q 23.6875 68.5 21.796875 66.546875 
Q 19.921875 64.59375 19.921875 59.515625 
L 19.921875 54.6875 
L 34.71875 54.6875 
L 34.71875 47.703125 
L 19.921875 47.703125 
L 19.921875 0 
L 10.890625 0 
L 10.890625 47.703125 
L 2.296875 47.703125 
L 2.296875 54.6875 
L 10.890625 54.6875 
L 10.890625 58.5 
Q 10.890625 67.625 15.140625 71.796875 
Q 19.390625 75.984375 28.609375 75.984375 
z
" id="DejaVuSans-102"/>
       <path d="M -0.296875 72.90625 
L 61.375 72.90625 
L 61.375 64.59375 
L 35.5 64.59375 
L 35.5 0 
L 25.59375 0 
L 25.59375 64.59375 
L -0.296875 64.59375 
z
" id="DejaVuSans-84"/>
       <path d="M 39.40625 66.21875 
Q 28.65625 66.21875 22.328125 58.203125 
Q 16.015625 50.203125 16.015625 36.375 
Q 16.015625 22.609375 22.328125 14.59375 
Q 28.65625 6.59375 39.40625 6.59375 
Q 50.140625 6.59375 56.421875 14.59375 
Q 62.703125 22.609375 62.703125 36.375 
Q 62.703125 50.203125 56.421875 58.203125 
Q 50.140625 66.21875 39.40625 66.21875 
z
M 39.40625 74.21875 
Q 54.734375 74.21875 63.90625 63.9375 
Q 73.09375 53.65625 73.09375 36.375 
Q 73.09375 19.140625 63.90625 8.859375 
Q 54.734375 -1.421875 39.40625 -1.421875 
Q 24.03125 -1.421875 14.8125 8.828125 
Q 5.609375 19.09375 5.609375 36.375 
Q 5.609375 53.65625 14.8125 63.9375 
Q 24.03125 74.21875 39.40625 74.21875 
z
" id="DejaVuSans-79"/>
       <path d="M 45.40625 46.390625 
L 45.40625 75.984375 
L 54.390625 75.984375 
L 54.390625 0 
L 45.40625 0 
L 45.40625 8.203125 
Q 42.578125 3.328125 38.25 0.953125 
Q 33.9375 -1.421875 27.875 -1.421875 
Q 17.96875 -1.421875 11.734375 6.484375 
Q 5.515625 14.40625 5.515625 27.296875 
Q 5.515625 40.1875 11.734375 48.09375 
Q 17.96875 56 27.875 56 
Q 33.9375 56 38.25 53.625 
Q 42.578125 51.265625 45.40625 46.390625 
z
M 14.796875 27.296875 
Q 14.796875 17.390625 18.875 11.75 
Q 22.953125 6.109375 30.078125 6.109375 
Q 37.203125 6.109375 41.296875 11.75 
Q 45.40625 17.390625 45.40625 27.296875 
Q 45.40625 37.203125 41.296875 42.84375 
Q 37.203125 48.484375 30.078125 48.484375 
Q 22.953125 48.484375 18.875 42.84375 
Q 14.796875 37.203125 14.796875 27.296875 
z
" id="DejaVuSans-100"/>
      </defs>
      <use xlink:href="#DejaVuSans-80"/>
      <use x="56.677734" xlink:href="#DejaVuSans-101"/>
      <use x="118.201172" xlink:href="#DejaVuSans-114"/>
      <use x="157.064453" xlink:href="#DejaVuSans-99"/>
      <use x="212.044922" xlink:href="#DejaVuSans-101"/>
      <use x="273.568359" xlink:href="#DejaVuSans-110"/>
      <use x="336.947266" xlink:href="#DejaVuSans-116"/>
      <use x="376.15625" xlink:href="#DejaVuSans-32"/>
      <use x="407.943359" xlink:href="#DejaVuSans-111"/>
      <use x="469.125" xlink:href="#DejaVuSans-102"/>
      <use x="504.330078" xlink:href="#DejaVuSans-32"/>
      <use x="536.117188" xlink:href="#DejaVuSans-84"/>
      <use x="580.201172" xlink:href="#DejaVuSans-101"/>
      <use x="641.724609" xlink:href="#DejaVuSans-115"/>
      <use x="693.824219" xlink:href="#DejaVuSans-116"/>
      <use x="733.033203" xlink:href="#DejaVuSans-115"/>
      <use x="785.132812" xlink:href="#DejaVuSans-32"/>
      <use x="816.919922" xlink:href="#DejaVuSans-79"/>
      <use x="895.630859" xlink:href="#DejaVuSans-114"/>
      <use x="934.994141" xlink:href="#DejaVuSans-100"/>
      <use x="998.470703" xlink:href="#DejaVuSans-101"/>
      <use x="1059.994141" xlink:href="#DejaVuSans-114"/>
      <use x="1098.857422" xlink:href="#DejaVuSans-101"/>
      <use x="1160.380859" xlink:href="#DejaVuSans-100"/>
     </g>
    </g>
   </g>
   <g id="patch_57">
    <path d="M 55.950625 463.276875 
L 55.950625 28.396875 
" style="fill:none;stroke:#000000;stroke-linecap:square;stroke-linejoin:miter;stroke-width:0.8;"/>
   </g>
   <g id="patch_58">
    <path d="M 837.150625 463.276875 
L 837.150625 28.396875 
" style="fill:none;stroke:#000000;stroke-linecap:square;stroke-linejoin:miter;stroke-width:0.8;"/>
   </g>
   <g id="patch_59">
    <path d="M 55.950625 463.276875 
L 837.150625 463.276875 
" style="fill:none;stroke:#000000;stroke-linecap:square;stroke-linejoin:miter;stroke-width:0.8;"/>
   </g>
   <g id="patch_60">
    <path d="M 55.950625 28.396875 
L 837.150625 28.396875 
" style="fill:none;stroke:#000000;stroke-linecap:square;stroke-linejoin:miter;stroke-width:0.8;"/>
   </g>
   <g id="text_39">
    <!-- Invitae Percent of Orders 0-6 Days after User Registration -->
    <g transform="translate(158.014688 22.396875)scale(0.2 -0.2)">
     <defs>
      <path d="M 9.8125 72.90625 
L 19.671875 72.90625 
L 19.671875 0 
L 9.8125 0 
z
" id="DejaVuSans-73"/>
      <path d="M 2.984375 54.6875 
L 12.5 54.6875 
L 29.59375 8.796875 
L 46.6875 54.6875 
L 56.203125 54.6875 
L 35.6875 0 
L 23.484375 0 
z
" id="DejaVuSans-118"/>
      <path d="M 32.171875 -5.078125 
Q 28.375 -14.84375 24.75 -17.8125 
Q 21.140625 -20.796875 15.09375 -20.796875 
L 7.90625 -20.796875 
L 7.90625 -13.28125 
L 13.1875 -13.28125 
Q 16.890625 -13.28125 18.9375 -11.515625 
Q 21 -9.765625 23.484375 -3.21875 
L 25.09375 0.875 
L 2.984375 54.6875 
L 12.5 54.6875 
L 29.59375 11.921875 
L 46.6875 54.6875 
L 56.203125 54.6875 
z
" id="DejaVuSans-121"/>
     </defs>
     <use xlink:href="#DejaVuSans-73"/>
     <use x="29.492188" xlink:href="#DejaVuSans-110"/>
     <use x="92.871094" xlink:href="#DejaVuSans-118"/>
     <use x="152.050781" xlink:href="#DejaVuSans-105"/>
     <use x="179.833984" xlink:href="#DejaVuSans-116"/>
     <use x="219.042969" xlink:href="#DejaVuSans-97"/>
     <use x="280.322266" xlink:href="#DejaVuSans-101"/>
     <use x="341.845703" xlink:href="#DejaVuSans-32"/>
     <use x="373.632812" xlink:href="#DejaVuSans-80"/>
     <use x="430.310547" xlink:href="#DejaVuSans-101"/>
     <use x="491.833984" xlink:href="#DejaVuSans-114"/>
     <use x="530.697266" xlink:href="#DejaVuSans-99"/>
     <use x="585.677734" xlink:href="#DejaVuSans-101"/>
     <use x="647.201172" xlink:href="#DejaVuSans-110"/>
     <use x="710.580078" xlink:href="#DejaVuSans-116"/>
     <use x="749.789062" xlink:href="#DejaVuSans-32"/>
     <use x="781.576172" xlink:href="#DejaVuSans-111"/>
     <use x="842.757812" xlink:href="#DejaVuSans-102"/>
     <use x="877.962891" xlink:href="#DejaVuSans-32"/>
     <use x="909.75" xlink:href="#DejaVuSans-79"/>
     <use x="988.460938" xlink:href="#DejaVuSans-114"/>
     <use x="1027.824219" xlink:href="#DejaVuSans-100"/>
     <use x="1091.300781" xlink:href="#DejaVuSans-101"/>
     <use x="1152.824219" xlink:href="#DejaVuSans-114"/>
     <use x="1193.9375" xlink:href="#DejaVuSans-115"/>
     <use x="1246.037109" xlink:href="#DejaVuSans-32"/>
     <use x="1277.824219" xlink:href="#DejaVuSans-48"/>
     <use x="1341.447266" xlink:href="#DejaVuSans-45"/>
     <use x="1377.53125" xlink:href="#DejaVuSans-54"/>
     <use x="1441.154297" xlink:href="#DejaVuSans-32"/>
     <use x="1472.941406" xlink:href="#DejaVuSans-68"/>
     <use x="1549.943359" xlink:href="#DejaVuSans-97"/>
     <use x="1611.222656" xlink:href="#DejaVuSans-121"/>
     <use x="1670.402344" xlink:href="#DejaVuSans-115"/>
     <use x="1722.501953" xlink:href="#DejaVuSans-32"/>
     <use x="1754.289062" xlink:href="#DejaVuSans-97"/>
     <use x="1815.568359" xlink:href="#DejaVuSans-102"/>
     <use x="1849.023438" xlink:href="#DejaVuSans-116"/>
     <use x="1888.232422" xlink:href="#DejaVuSans-101"/>
     <use x="1949.755859" xlink:href="#DejaVuSans-114"/>
     <use x="1990.869141" xlink:href="#DejaVuSans-32"/>
     <use x="2022.65625" xlink:href="#DejaVuSans-85"/>
     <use x="2095.849609" xlink:href="#DejaVuSans-115"/>
     <use x="2147.949219" xlink:href="#DejaVuSans-101"/>
     <use x="2209.472656" xlink:href="#DejaVuSans-114"/>
     <use x="2250.585938" xlink:href="#DejaVuSans-32"/>
     <use x="2282.373047" xlink:href="#DejaVuSans-82"/>
     <use x="2347.355469" xlink:href="#DejaVuSans-101"/>
     <use x="2408.878906" xlink:href="#DejaVuSans-103"/>
     <use x="2472.355469" xlink:href="#DejaVuSans-105"/>
     <use x="2500.138672" xlink:href="#DejaVuSans-115"/>
     <use x="2552.238281" xlink:href="#DejaVuSans-116"/>
     <use x="2591.447266" xlink:href="#DejaVuSans-114"/>
     <use x="2632.560547" xlink:href="#DejaVuSans-97"/>
     <use x="2693.839844" xlink:href="#DejaVuSans-116"/>
     <use x="2733.048828" xlink:href="#DejaVuSans-105"/>
     <use x="2760.832031" xlink:href="#DejaVuSans-111"/>
     <use x="2822.013672" xlink:href="#DejaVuSans-110"/>
    </g>
   </g>
   <g id="legend_1">
    <g id="patch_61">
     <path d="M 696.669375 65.753125 
L 830.150625 65.753125 
Q 832.150625 65.753125 832.150625 63.753125 
L 832.150625 35.396875 
Q 832.150625 33.396875 830.150625 33.396875 
L 696.669375 33.396875 
Q 694.669375 33.396875 694.669375 35.396875 
L 694.669375 63.753125 
Q 694.669375 65.753125 696.669375 65.753125 
z
" style="fill:#ffffff;opacity:0.8;stroke:#cccccc;stroke-linejoin:miter;"/>
    </g>
    <g id="patch_62">
     <path d="M 698.669375 44.995312 
L 718.669375 44.995312 
L 718.669375 37.995312 
L 698.669375 37.995312 
z
" style="fill:#80d1ca;"/>
    </g>
    <g id="text_40">
     <!-- Total Distinct Orders -->
     <g transform="translate(726.669375 44.995312)scale(0.1 -0.1)">
      <defs>
       <path d="M 9.421875 75.984375 
L 18.40625 75.984375 
L 18.40625 0 
L 9.421875 0 
z
" id="DejaVuSans-108"/>
      </defs>
      <use xlink:href="#DejaVuSans-84"/>
      <use x="44.083984" xlink:href="#DejaVuSans-111"/>
      <use x="105.265625" xlink:href="#DejaVuSans-116"/>
      <use x="144.474609" xlink:href="#DejaVuSans-97"/>
      <use x="205.753906" xlink:href="#DejaVuSans-108"/>
      <use x="233.537109" xlink:href="#DejaVuSans-32"/>
      <use x="265.324219" xlink:href="#DejaVuSans-68"/>
      <use x="342.326172" xlink:href="#DejaVuSans-105"/>
      <use x="370.109375" xlink:href="#DejaVuSans-115"/>
      <use x="422.208984" xlink:href="#DejaVuSans-116"/>
      <use x="461.417969" xlink:href="#DejaVuSans-105"/>
      <use x="489.201172" xlink:href="#DejaVuSans-110"/>
      <use x="552.580078" xlink:href="#DejaVuSans-99"/>
      <use x="607.560547" xlink:href="#DejaVuSans-116"/>
      <use x="646.769531" xlink:href="#DejaVuSans-32"/>
      <use x="678.556641" xlink:href="#DejaVuSans-79"/>
      <use x="757.267578" xlink:href="#DejaVuSans-114"/>
      <use x="796.630859" xlink:href="#DejaVuSans-100"/>
      <use x="860.107422" xlink:href="#DejaVuSans-101"/>
      <use x="921.630859" xlink:href="#DejaVuSans-114"/>
      <use x="962.744141" xlink:href="#DejaVuSans-115"/>
     </g>
    </g>
    <g id="patch_63">
     <path d="M 698.669375 59.673437 
L 718.669375 59.673437 
L 718.669375 52.673437 
L 698.669375 52.673437 
z
" style="fill:#138279;"/>
    </g>
    <g id="text_41">
     <!-- First-Time Orders -->
     <g transform="translate(726.669375 59.673437)scale(0.1 -0.1)">
      <defs>
       <path d="M 9.8125 72.90625 
L 51.703125 72.90625 
L 51.703125 64.59375 
L 19.671875 64.59375 
L 19.671875 43.109375 
L 48.578125 43.109375 
L 48.578125 34.8125 
L 19.671875 34.8125 
L 19.671875 0 
L 9.8125 0 
z
" id="DejaVuSans-70"/>
       <path d="M 52 44.1875 
Q 55.375 50.25 60.0625 53.125 
Q 64.75 56 71.09375 56 
Q 79.640625 56 84.28125 50.015625 
Q 88.921875 44.046875 88.921875 33.015625 
L 88.921875 0 
L 79.890625 0 
L 79.890625 32.71875 
Q 79.890625 40.578125 77.09375 44.375 
Q 74.3125 48.1875 68.609375 48.1875 
Q 61.625 48.1875 57.5625 43.546875 
Q 53.515625 38.921875 53.515625 30.90625 
L 53.515625 0 
L 44.484375 0 
L 44.484375 32.71875 
Q 44.484375 40.625 41.703125 44.40625 
Q 38.921875 48.1875 33.109375 48.1875 
Q 26.21875 48.1875 22.15625 43.53125 
Q 18.109375 38.875 18.109375 30.90625 
L 18.109375 0 
L 9.078125 0 
L 9.078125 54.6875 
L 18.109375 54.6875 
L 18.109375 46.1875 
Q 21.1875 51.21875 25.484375 53.609375 
Q 29.78125 56 35.6875 56 
Q 41.65625 56 45.828125 52.96875 
Q 50 49.953125 52 44.1875 
z
" id="DejaVuSans-109"/>
      </defs>
      <use xlink:href="#DejaVuSans-70"/>
      <use x="50.269531" xlink:href="#DejaVuSans-105"/>
      <use x="78.052734" xlink:href="#DejaVuSans-114"/>
      <use x="119.166016" xlink:href="#DejaVuSans-115"/>
      <use x="171.265625" xlink:href="#DejaVuSans-116"/>
      <use x="210.474609" xlink:href="#DejaVuSans-45"/>
      <use x="237.433594" xlink:href="#DejaVuSans-84"/>
      <use x="295.392578" xlink:href="#DejaVuSans-105"/>
      <use x="323.175781" xlink:href="#DejaVuSans-109"/>
      <use x="420.587891" xlink:href="#DejaVuSans-101"/>
      <use x="482.111328" xlink:href="#DejaVuSans-32"/>
      <use x="513.898438" xlink:href="#DejaVuSans-79"/>
      <use x="592.609375" xlink:href="#DejaVuSans-114"/>
      <use x="631.972656" xlink:href="#DejaVuSans-100"/>
      <use x="695.449219" xlink:href="#DejaVuSans-101"/>
      <use x="756.972656" xlink:href="#DejaVuSans-114"/>
      <use x="798.085938" xlink:href="#DejaVuSans-115"/>
     </g>
    </g>
   </g>
  </g>
 </g>
 <defs>
  <clipPath id="pb5ebb75d6e">
   <rect height="434.88" width="781.2" x="55.950625" y="28.396875"/>
  </clipPath>
 </defs>
</svg>
