<?xml version="1.0" encoding="utf-8" standalone="no"?>
<!DOCTYPE svg PUBLIC "-//W3C//DTD SVG 1.1//EN"
  "http://www.w3.org/Graphics/SVG/1.1/DTD/svg11.dtd">
<!-- Created with matplotlib (https://matplotlib.org/) -->
<svg height="582.479937pt" version="1.1" viewBox="0 0 847.535 582.479937" width="847.535pt" xmlns="http://www.w3.org/2000/svg" xmlns:xlink="http://www.w3.org/1999/xlink">
 <metadata>
  <rdf:RDF xmlns:cc="http://creativecommons.org/ns#" xmlns:dc="http://purl.org/dc/elements/1.1/" xmlns:rdf="http://www.w3.org/1999/02/22-rdf-syntax-ns#">
   <cc:Work>
    <dc:type rdf:resource="http://purl.org/dc/dcmitype/StillImage"/>
    <dc:date>2020-12-08T09:43:36.684933</dc:date>
    <dc:format>image/svg+xml</dc:format>
    <dc:creator>
     <cc:Agent>
      <dc:title>Matplotlib v3.3.1, https://matplotlib.org/</dc:title>
     </cc:Agent>
    </dc:creator>
   </cc:Work>
  </rdf:RDF>
 </metadata>
 <defs>
  <style type="text/css">*{stroke-linecap:butt;stroke-linejoin:round;}</style>
 </defs>
 <g id="figure_1">
  <g id="patch_1">
   <path d="M 0 582.479937 
L 847.535 582.479937 
L 847.535 0 
L 0 0 
z
" style="fill:none;"/>
  </g>
  <g id="axes_1">
   <g id="patch_2">
    <path d="M 59.135 463.276875 
L 840.335 463.276875 
L 840.335 28.396875 
L 59.135 28.396875 
z
" style="fill:#ffffff;"/>
   </g>
   <g id="patch_3">
    <path clip-path="url(#p05cc96529b)" d="M 66.368333 463.276875 
L 73.601667 463.276875 
L 73.601667 405.555246 
L 66.368333 405.555246 
z
" style="fill:#194066;"/>
   </g>
   <g id="patch_4">
    <path clip-path="url(#p05cc96529b)" d="M 95.301667 463.276875 
L 102.535 463.276875 
L 102.535 49.105446 
L 95.301667 49.105446 
z
" style="fill:#194066;"/>
   </g>
   <g id="patch_5">
    <path clip-path="url(#p05cc96529b)" d="M 124.235 463.276875 
L 131.468333 463.276875 
L 131.468333 315.224645 
L 124.235 315.224645 
z
" style="fill:#194066;"/>
   </g>
   <g id="patch_6">
    <path clip-path="url(#p05cc96529b)" d="M 153.168333 463.276875 
L 160.401667 463.276875 
L 160.401667 210.463636 
L 153.168333 210.463636 
z
" style="fill:#194066;"/>
   </g>
   <g id="patch_7">
    <path clip-path="url(#p05cc96529b)" d="M 182.101667 463.276875 
L 189.335 463.276875 
L 189.335 360.389945 
L 182.101667 360.389945 
z
" style="fill:#194066;"/>
   </g>
   <g id="patch_8">
    <path clip-path="url(#p05cc96529b)" d="M 211.035 463.276875 
L 218.268333 463.276875 
L 218.268333 374.258129 
L 211.035 374.258129 
z
" style="fill:#194066;"/>
   </g>
   <g id="patch_9">
    <path clip-path="url(#p05cc96529b)" d="M 239.968333 463.276875 
L 247.201667 463.276875 
L 247.201667 378.755918 
L 239.968333 378.755918 
z
" style="fill:#194066;"/>
   </g>
   <g id="patch_10">
    <path clip-path="url(#p05cc96529b)" d="M 268.901667 463.276875 
L 276.135 463.276875 
L 276.135 385.127786 
L 268.901667 385.127786 
z
" style="fill:#194066;"/>
   </g>
   <g id="patch_11">
    <path clip-path="url(#p05cc96529b)" d="M 297.835 463.276875 
L 305.068333 463.276875 
L 305.068333 64.285485 
L 297.835 64.285485 
z
" style="fill:#194066;"/>
   </g>
   <g id="patch_12">
    <path clip-path="url(#p05cc96529b)" d="M 326.768333 463.276875 
L 334.001667 463.276875 
L 334.001667 192.472479 
L 326.768333 192.472479 
z
" style="fill:#194066;"/>
   </g>
   <g id="patch_13">
    <path clip-path="url(#p05cc96529b)" d="M 355.701667 463.276875 
L 362.935 463.276875 
L 362.935 241.760753 
L 355.701667 241.760753 
z
" style="fill:#194066;"/>
   </g>
   <g id="patch_14">
    <path clip-path="url(#p05cc96529b)" d="M 384.635 463.276875 
L 391.868333 463.276875 
L 391.868333 278.305291 
L 384.635 278.305291 
z
" style="fill:#194066;"/>
   </g>
   <g id="patch_15">
    <path clip-path="url(#p05cc96529b)" d="M 413.568333 463.276875 
L 420.801667 463.276875 
L 420.801667 274.369726 
L 413.568333 274.369726 
z
" style="fill:#194066;"/>
   </g>
   <g id="patch_16">
    <path clip-path="url(#p05cc96529b)" d="M 442.501667 463.276875 
L 449.735 463.276875 
L 449.735 258.252647 
L 442.501667 258.252647 
z
" style="fill:#194066;"/>
   </g>
   <g id="patch_17">
    <path clip-path="url(#p05cc96529b)" d="M 471.435 463.276875 
L 478.668333 463.276875 
L 478.668333 298.920159 
L 471.435 298.920159 
z
" style="fill:#194066;"/>
   </g>
   <g id="patch_18">
    <path clip-path="url(#p05cc96529b)" d="M 500.368333 463.276875 
L 507.601667 463.276875 
L 507.601667 295.359409 
L 500.368333 295.359409 
z
" style="fill:#194066;"/>
   </g>
   <g id="patch_19">
    <path clip-path="url(#p05cc96529b)" d="M 529.301667 463.276875 
L 536.535 463.276875 
L 536.535 281.678633 
L 529.301667 281.678633 
z
" style="fill:#194066;"/>
   </g>
   <g id="patch_20">
    <path clip-path="url(#p05cc96529b)" d="M 558.235 463.276875 
L 565.468333 463.276875 
L 565.468333 330.966907 
L 558.235 330.966907 
z
" style="fill:#194066;"/>
   </g>
   <g id="patch_21">
    <path clip-path="url(#p05cc96529b)" d="M 587.168333 463.276875 
L 594.401667 463.276875 
L 594.401667 328.155789 
L 587.168333 328.155789 
z
" style="fill:#194066;"/>
   </g>
   <g id="patch_22">
    <path clip-path="url(#p05cc96529b)" d="M 616.101667 463.276875 
L 623.335 463.276875 
L 623.335 345.209907 
L 616.101667 345.209907 
z
" style="fill:#194066;"/>
   </g>
   <g id="patch_23">
    <path clip-path="url(#p05cc96529b)" d="M 645.035 463.276875 
L 652.268333 463.276875 
L 652.268333 291.423843 
L 645.035 291.423843 
z
" style="fill:#194066;"/>
   </g>
   <g id="patch_24">
    <path clip-path="url(#p05cc96529b)" d="M 673.968333 463.276875 
L 681.201667 463.276875 
L 681.201667 281.11641 
L 673.968333 281.11641 
z
" style="fill:#194066;"/>
   </g>
   <g id="patch_25">
    <path clip-path="url(#p05cc96529b)" d="M 702.901667 463.276875 
L 710.135 463.276875 
L 710.135 302.480909 
L 702.901667 302.480909 
z
" style="fill:#194066;"/>
   </g>
   <g id="patch_26">
    <path clip-path="url(#p05cc96529b)" d="M 731.835 463.276875 
L 739.068333 463.276875 
L 739.068333 263.500068 
L 731.835 263.500068 
z
" style="fill:#194066;"/>
   </g>
   <g id="patch_27">
    <path clip-path="url(#p05cc96529b)" d="M 760.768333 463.276875 
L 768.001667 463.276875 
L 768.001667 285.989015 
L 760.768333 285.989015 
z
" style="fill:#194066;"/>
   </g>
   <g id="patch_28">
    <path clip-path="url(#p05cc96529b)" d="M 789.701667 463.276875 
L 796.935 463.276875 
L 796.935 316.911316 
L 789.701667 316.911316 
z
" style="fill:#194066;"/>
   </g>
   <g id="patch_29">
    <path clip-path="url(#p05cc96529b)" d="M 818.635 463.276875 
L 825.868333 463.276875 
L 825.868333 279.054923 
L 818.635 279.054923 
z
" style="fill:#194066;"/>
   </g>
   <g id="patch_30">
    <path clip-path="url(#p05cc96529b)" d="M 73.601667 463.276875 
L 80.835 463.276875 
L 80.835 432.354574 
L 73.601667 432.354574 
z
" style="fill:#d8b7ce;"/>
   </g>
   <g id="patch_31">
    <path clip-path="url(#p05cc96529b)" d="M 102.535 463.276875 
L 109.768333 463.276875 
L 109.768333 367.324037 
L 102.535 367.324037 
z
" style="fill:#d8b7ce;"/>
   </g>
   <g id="patch_32">
    <path clip-path="url(#p05cc96529b)" d="M 131.468333 463.276875 
L 138.701667 463.276875 
L 138.701667 406.11747 
L 131.468333 406.11747 
z
" style="fill:#d8b7ce;"/>
   </g>
   <g id="patch_33">
    <path clip-path="url(#p05cc96529b)" d="M 160.401667 463.276875 
L 167.635 463.276875 
L 167.635 379.880366 
L 160.401667 379.880366 
z
" style="fill:#d8b7ce;"/>
   </g>
   <g id="patch_34">
    <path clip-path="url(#p05cc96529b)" d="M 189.335 463.276875 
L 196.568333 463.276875 
L 196.568333 427.669377 
L 189.335 427.669377 
z
" style="fill:#d8b7ce;"/>
   </g>
   <g id="patch_35">
    <path clip-path="url(#p05cc96529b)" d="M 218.268333 463.276875 
L 225.501667 463.276875 
L 225.501667 434.790876 
L 218.268333 434.790876 
z
" style="fill:#d8b7ce;"/>
   </g>
   <g id="patch_36">
    <path clip-path="url(#p05cc96529b)" d="M 247.201667 463.276875 
L 254.435 463.276875 
L 254.435 437.414587 
L 247.201667 437.414587 
z
" style="fill:#d8b7ce;"/>
   </g>
   <g id="patch_37">
    <path clip-path="url(#p05cc96529b)" d="M 276.135 463.276875 
L 283.368333 463.276875 
L 283.368333 433.104205 
L 276.135 433.104205 
z
" style="fill:#d8b7ce;"/>
   </g>
   <g id="patch_38">
    <path clip-path="url(#p05cc96529b)" d="M 305.068333 463.276875 
L 312.301667 463.276875 
L 312.301667 400.120417 
L 305.068333 400.120417 
z
" style="fill:#d8b7ce;"/>
   </g>
   <g id="patch_39">
    <path clip-path="url(#p05cc96529b)" d="M 334.001667 463.276875 
L 341.235 463.276875 
L 341.235 416.424903 
L 334.001667 416.424903 
z
" style="fill:#d8b7ce;"/>
   </g>
   <g id="patch_40">
    <path clip-path="url(#p05cc96529b)" d="M 362.935 463.276875 
L 370.168333 463.276875 
L 370.168333 434.041245 
L 362.935 434.041245 
z
" style="fill:#d8b7ce;"/>
   </g>
   <g id="patch_41">
    <path clip-path="url(#p05cc96529b)" d="M 391.868333 463.276875 
L 399.101667 463.276875 
L 399.101667 437.414587 
L 391.868333 437.414587 
z
" style="fill:#d8b7ce;"/>
   </g>
   <g id="patch_42">
    <path clip-path="url(#p05cc96529b)" d="M 420.801667 463.276875 
L 428.035 463.276875 
L 428.035 438.351626 
L 420.801667 438.351626 
z
" style="fill:#d8b7ce;"/>
   </g>
   <g id="patch_43">
    <path clip-path="url(#p05cc96529b)" d="M 449.735 463.276875 
L 456.968333 463.276875 
L 456.968333 436.102731 
L 449.735 436.102731 
z
" style="fill:#d8b7ce;"/>
   </g>
   <g id="patch_44">
    <path clip-path="url(#p05cc96529b)" d="M 478.668333 463.276875 
L 485.901667 463.276875 
L 485.901667 435.3531 
L 478.668333 435.3531 
z
" style="fill:#d8b7ce;"/>
   </g>
   <g id="patch_45">
    <path clip-path="url(#p05cc96529b)" d="M 507.601667 463.276875 
L 514.835 463.276875 
L 514.835 439.476073 
L 507.601667 439.476073 
z
" style="fill:#d8b7ce;"/>
   </g>
   <g id="patch_46">
    <path clip-path="url(#p05cc96529b)" d="M 536.535 463.276875 
L 543.768333 463.276875 
L 543.768333 426.544929 
L 536.535 426.544929 
z
" style="fill:#d8b7ce;"/>
   </g>
   <g id="patch_47">
    <path clip-path="url(#p05cc96529b)" d="M 565.468333 463.276875 
L 572.701667 463.276875 
L 572.701667 433.853837 
L 565.468333 433.853837 
z
" style="fill:#d8b7ce;"/>
   </g>
   <g id="patch_48">
    <path clip-path="url(#p05cc96529b)" d="M 594.401667 463.276875 
L 601.635 463.276875 
L 601.635 435.915324 
L 594.401667 435.915324 
z
" style="fill:#d8b7ce;"/>
   </g>
   <g id="patch_49">
    <path clip-path="url(#p05cc96529b)" d="M 623.335 463.276875 
L 630.568333 463.276875 
L 630.568333 436.664955 
L 623.335 436.664955 
z
" style="fill:#d8b7ce;"/>
   </g>
   <g id="patch_50">
    <path clip-path="url(#p05cc96529b)" d="M 652.268333 463.276875 
L 659.501667 463.276875 
L 659.501667 427.856785 
L 652.268333 427.856785 
z
" style="fill:#d8b7ce;"/>
   </g>
   <g id="patch_51">
    <path clip-path="url(#p05cc96529b)" d="M 681.201667 463.276875 
L 688.435 463.276875 
L 688.435 426.919745 
L 681.201667 426.919745 
z
" style="fill:#d8b7ce;"/>
   </g>
   <g id="patch_52">
    <path clip-path="url(#p05cc96529b)" d="M 710.135 463.276875 
L 717.368333 463.276875 
L 717.368333 432.541982 
L 710.135 432.541982 
z
" style="fill:#d8b7ce;"/>
   </g>
   <g id="patch_53">
    <path clip-path="url(#p05cc96529b)" d="M 739.068333 463.276875 
L 746.301667 463.276875 
L 746.301667 424.108627 
L 739.068333 424.108627 
z
" style="fill:#d8b7ce;"/>
   </g>
   <g id="patch_54">
    <path clip-path="url(#p05cc96529b)" d="M 768.001667 463.276875 
L 775.235 463.276875 
L 775.235 428.2316 
L 768.001667 428.2316 
z
" style="fill:#d8b7ce;"/>
   </g>
   <g id="patch_55">
    <path clip-path="url(#p05cc96529b)" d="M 796.935 463.276875 
L 804.168333 463.276875 
L 804.168333 437.97681 
L 796.935 437.97681 
z
" style="fill:#d8b7ce;"/>
   </g>
   <g id="patch_56">
    <path clip-path="url(#p05cc96529b)" d="M 825.868333 463.276875 
L 833.101667 463.276875 
L 833.101667 437.789402 
L 825.868333 437.789402 
z
" style="fill:#d8b7ce;"/>
   </g>
   <g id="matplotlib.axis_1">
    <g id="xtick_1">
     <g id="line2d_1">
      <defs>
       <path d="M 0 0 
L 0 3.5 
" id="mbc0609467a" style="stroke:#000000;stroke-width:0.8;"/>
      </defs>
      <g>
       <use style="stroke:#000000;stroke-width:0.8;" x="73.601667" xlink:href="#mbc0609467a" y="463.276875"/>
      </g>
     </g>
     <g id="text_1">
      <!-- 01/01 - 01/07 -->
      <g transform="translate(76.361042 537.878437)rotate(-90)scale(0.1 -0.1)">
       <defs>
        <path d="M 31.78125 66.40625 
Q 24.171875 66.40625 20.328125 58.90625 
Q 16.5 51.421875 16.5 36.375 
Q 16.5 21.390625 20.328125 13.890625 
Q 24.171875 6.390625 31.78125 6.390625 
Q 39.453125 6.390625 43.28125 13.890625 
Q 47.125 21.390625 47.125 36.375 
Q 47.125 51.421875 43.28125 58.90625 
Q 39.453125 66.40625 31.78125 66.40625 
z
M 31.78125 74.21875 
Q 44.046875 74.21875 50.515625 64.515625 
Q 56.984375 54.828125 56.984375 36.375 
Q 56.984375 17.96875 50.515625 8.265625 
Q 44.046875 -1.421875 31.78125 -1.421875 
Q 19.53125 -1.421875 13.0625 8.265625 
Q 6.59375 17.96875 6.59375 36.375 
Q 6.59375 54.828125 13.0625 64.515625 
Q 19.53125 74.21875 31.78125 74.21875 
z
" id="DejaVuSans-48"/>
        <path d="M 12.40625 8.296875 
L 28.515625 8.296875 
L 28.515625 63.921875 
L 10.984375 60.40625 
L 10.984375 69.390625 
L 28.421875 72.90625 
L 38.28125 72.90625 
L 38.28125 8.296875 
L 54.390625 8.296875 
L 54.390625 0 
L 12.40625 0 
z
" id="DejaVuSans-49"/>
        <path d="M 25.390625 72.90625 
L 33.6875 72.90625 
L 8.296875 -9.28125 
L 0 -9.28125 
z
" id="DejaVuSans-47"/>
        <path id="DejaVuSans-32"/>
        <path d="M 4.890625 31.390625 
L 31.203125 31.390625 
L 31.203125 23.390625 
L 4.890625 23.390625 
z
" id="DejaVuSans-45"/>
        <path d="M 8.203125 72.90625 
L 55.078125 72.90625 
L 55.078125 68.703125 
L 28.609375 0 
L 18.3125 0 
L 43.21875 64.59375 
L 8.203125 64.59375 
z
" id="DejaVuSans-55"/>
       </defs>
       <use xlink:href="#DejaVuSans-48"/>
       <use x="63.623047" xlink:href="#DejaVuSans-49"/>
       <use x="127.246094" xlink:href="#DejaVuSans-47"/>
       <use x="160.9375" xlink:href="#DejaVuSans-48"/>
       <use x="224.560547" xlink:href="#DejaVuSans-49"/>
       <use x="288.183594" xlink:href="#DejaVuSans-32"/>
       <use x="319.970703" xlink:href="#DejaVuSans-45"/>
       <use x="356.054688" xlink:href="#DejaVuSans-32"/>
       <use x="387.841797" xlink:href="#DejaVuSans-48"/>
       <use x="451.464844" xlink:href="#DejaVuSans-49"/>
       <use x="515.087891" xlink:href="#DejaVuSans-47"/>
       <use x="548.779297" xlink:href="#DejaVuSans-48"/>
       <use x="612.402344" xlink:href="#DejaVuSans-55"/>
      </g>
     </g>
    </g>
    <g id="xtick_2">
     <g id="line2d_2">
      <g>
       <use style="stroke:#000000;stroke-width:0.8;" x="102.535" xlink:href="#mbc0609467a" y="463.276875"/>
      </g>
     </g>
     <g id="text_2">
      <!-- 01/08 - 01/14 -->
      <g transform="translate(105.294375 537.878437)rotate(-90)scale(0.1 -0.1)">
       <defs>
        <path d="M 31.78125 34.625 
Q 24.75 34.625 20.71875 30.859375 
Q 16.703125 27.09375 16.703125 20.515625 
Q 16.703125 13.921875 20.71875 10.15625 
Q 24.75 6.390625 31.78125 6.390625 
Q 38.8125 6.390625 42.859375 10.171875 
Q 46.921875 13.96875 46.921875 20.515625 
Q 46.921875 27.09375 42.890625 30.859375 
Q 38.875 34.625 31.78125 34.625 
z
M 21.921875 38.8125 
Q 15.578125 40.375 12.03125 44.71875 
Q 8.5 49.078125 8.5 55.328125 
Q 8.5 64.0625 14.71875 69.140625 
Q 20.953125 74.21875 31.78125 74.21875 
Q 42.671875 74.21875 48.875 69.140625 
Q 55.078125 64.0625 55.078125 55.328125 
Q 55.078125 49.078125 51.53125 44.71875 
Q 48 40.375 41.703125 38.8125 
Q 48.828125 37.15625 52.796875 32.3125 
Q 56.78125 27.484375 56.78125 20.515625 
Q 56.78125 9.90625 50.3125 4.234375 
Q 43.84375 -1.421875 31.78125 -1.421875 
Q 19.734375 -1.421875 13.25 4.234375 
Q 6.78125 9.90625 6.78125 20.515625 
Q 6.78125 27.484375 10.78125 32.3125 
Q 14.796875 37.15625 21.921875 38.8125 
z
M 18.3125 54.390625 
Q 18.3125 48.734375 21.84375 45.5625 
Q 25.390625 42.390625 31.78125 42.390625 
Q 38.140625 42.390625 41.71875 45.5625 
Q 45.3125 48.734375 45.3125 54.390625 
Q 45.3125 60.0625 41.71875 63.234375 
Q 38.140625 66.40625 31.78125 66.40625 
Q 25.390625 66.40625 21.84375 63.234375 
Q 18.3125 60.0625 18.3125 54.390625 
z
" id="DejaVuSans-56"/>
        <path d="M 37.796875 64.3125 
L 12.890625 25.390625 
L 37.796875 25.390625 
z
M 35.203125 72.90625 
L 47.609375 72.90625 
L 47.609375 25.390625 
L 58.015625 25.390625 
L 58.015625 17.1875 
L 47.609375 17.1875 
L 47.609375 0 
L 37.796875 0 
L 37.796875 17.1875 
L 4.890625 17.1875 
L 4.890625 26.703125 
z
" id="DejaVuSans-52"/>
       </defs>
       <use xlink:href="#DejaVuSans-48"/>
       <use x="63.623047" xlink:href="#DejaVuSans-49"/>
       <use x="127.246094" xlink:href="#DejaVuSans-47"/>
       <use x="160.9375" xlink:href="#DejaVuSans-48"/>
       <use x="224.560547" xlink:href="#DejaVuSans-56"/>
       <use x="288.183594" xlink:href="#DejaVuSans-32"/>
       <use x="319.970703" xlink:href="#DejaVuSans-45"/>
       <use x="356.054688" xlink:href="#DejaVuSans-32"/>
       <use x="387.841797" xlink:href="#DejaVuSans-48"/>
       <use x="451.464844" xlink:href="#DejaVuSans-49"/>
       <use x="515.087891" xlink:href="#DejaVuSans-47"/>
       <use x="548.779297" xlink:href="#DejaVuSans-49"/>
       <use x="612.402344" xlink:href="#DejaVuSans-52"/>
      </g>
     </g>
    </g>
    <g id="xtick_3">
     <g id="line2d_3">
      <g>
       <use style="stroke:#000000;stroke-width:0.8;" x="131.468333" xlink:href="#mbc0609467a" y="463.276875"/>
      </g>
     </g>
     <g id="text_3">
      <!-- 01/15 - 01/21 -->
      <g transform="translate(134.227708 537.878437)rotate(-90)scale(0.1 -0.1)">
       <defs>
        <path d="M 10.796875 72.90625 
L 49.515625 72.90625 
L 49.515625 64.59375 
L 19.828125 64.59375 
L 19.828125 46.734375 
Q 21.96875 47.46875 24.109375 47.828125 
Q 26.265625 48.1875 28.421875 48.1875 
Q 40.625 48.1875 47.75 41.5 
Q 54.890625 34.8125 54.890625 23.390625 
Q 54.890625 11.625 47.5625 5.09375 
Q 40.234375 -1.421875 26.90625 -1.421875 
Q 22.3125 -1.421875 17.546875 -0.640625 
Q 12.796875 0.140625 7.71875 1.703125 
L 7.71875 11.625 
Q 12.109375 9.234375 16.796875 8.0625 
Q 21.484375 6.890625 26.703125 6.890625 
Q 35.15625 6.890625 40.078125 11.328125 
Q 45.015625 15.765625 45.015625 23.390625 
Q 45.015625 31 40.078125 35.4375 
Q 35.15625 39.890625 26.703125 39.890625 
Q 22.75 39.890625 18.8125 39.015625 
Q 14.890625 38.140625 10.796875 36.28125 
z
" id="DejaVuSans-53"/>
        <path d="M 19.1875 8.296875 
L 53.609375 8.296875 
L 53.609375 0 
L 7.328125 0 
L 7.328125 8.296875 
Q 12.9375 14.109375 22.625 23.890625 
Q 32.328125 33.6875 34.8125 36.53125 
Q 39.546875 41.84375 41.421875 45.53125 
Q 43.3125 49.21875 43.3125 52.78125 
Q 43.3125 58.59375 39.234375 62.25 
Q 35.15625 65.921875 28.609375 65.921875 
Q 23.96875 65.921875 18.8125 64.3125 
Q 13.671875 62.703125 7.8125 59.421875 
L 7.8125 69.390625 
Q 13.765625 71.78125 18.9375 73 
Q 24.125 74.21875 28.421875 74.21875 
Q 39.75 74.21875 46.484375 68.546875 
Q 53.21875 62.890625 53.21875 53.421875 
Q 53.21875 48.921875 51.53125 44.890625 
Q 49.859375 40.875 45.40625 35.40625 
Q 44.1875 33.984375 37.640625 27.21875 
Q 31.109375 20.453125 19.1875 8.296875 
z
" id="DejaVuSans-50"/>
       </defs>
       <use xlink:href="#DejaVuSans-48"/>
       <use x="63.623047" xlink:href="#DejaVuSans-49"/>
       <use x="127.246094" xlink:href="#DejaVuSans-47"/>
       <use x="160.9375" xlink:href="#DejaVuSans-49"/>
       <use x="224.560547" xlink:href="#DejaVuSans-53"/>
       <use x="288.183594" xlink:href="#DejaVuSans-32"/>
       <use x="319.970703" xlink:href="#DejaVuSans-45"/>
       <use x="356.054688" xlink:href="#DejaVuSans-32"/>
       <use x="387.841797" xlink:href="#DejaVuSans-48"/>
       <use x="451.464844" xlink:href="#DejaVuSans-49"/>
       <use x="515.087891" xlink:href="#DejaVuSans-47"/>
       <use x="548.779297" xlink:href="#DejaVuSans-50"/>
       <use x="612.402344" xlink:href="#DejaVuSans-49"/>
      </g>
     </g>
    </g>
    <g id="xtick_4">
     <g id="line2d_4">
      <g>
       <use style="stroke:#000000;stroke-width:0.8;" x="160.401667" xlink:href="#mbc0609467a" y="463.276875"/>
      </g>
     </g>
     <g id="text_4">
      <!-- 01/22 - 01/28 -->
      <g transform="translate(163.161042 537.878437)rotate(-90)scale(0.1 -0.1)">
       <use xlink:href="#DejaVuSans-48"/>
       <use x="63.623047" xlink:href="#DejaVuSans-49"/>
       <use x="127.246094" xlink:href="#DejaVuSans-47"/>
       <use x="160.9375" xlink:href="#DejaVuSans-50"/>
       <use x="224.560547" xlink:href="#DejaVuSans-50"/>
       <use x="288.183594" xlink:href="#DejaVuSans-32"/>
       <use x="319.970703" xlink:href="#DejaVuSans-45"/>
       <use x="356.054688" xlink:href="#DejaVuSans-32"/>
       <use x="387.841797" xlink:href="#DejaVuSans-48"/>
       <use x="451.464844" xlink:href="#DejaVuSans-49"/>
       <use x="515.087891" xlink:href="#DejaVuSans-47"/>
       <use x="548.779297" xlink:href="#DejaVuSans-50"/>
       <use x="612.402344" xlink:href="#DejaVuSans-56"/>
      </g>
     </g>
    </g>
    <g id="xtick_5">
     <g id="line2d_5">
      <g>
       <use style="stroke:#000000;stroke-width:0.8;" x="189.335" xlink:href="#mbc0609467a" y="463.276875"/>
      </g>
     </g>
     <g id="text_5">
      <!-- 01/29 - 02/04 -->
      <g transform="translate(192.094375 537.878437)rotate(-90)scale(0.1 -0.1)">
       <defs>
        <path d="M 10.984375 1.515625 
L 10.984375 10.5 
Q 14.703125 8.734375 18.5 7.8125 
Q 22.3125 6.890625 25.984375 6.890625 
Q 35.75 6.890625 40.890625 13.453125 
Q 46.046875 20.015625 46.78125 33.40625 
Q 43.953125 29.203125 39.59375 26.953125 
Q 35.25 24.703125 29.984375 24.703125 
Q 19.046875 24.703125 12.671875 31.3125 
Q 6.296875 37.9375 6.296875 49.421875 
Q 6.296875 60.640625 12.9375 67.421875 
Q 19.578125 74.21875 30.609375 74.21875 
Q 43.265625 74.21875 49.921875 64.515625 
Q 56.59375 54.828125 56.59375 36.375 
Q 56.59375 19.140625 48.40625 8.859375 
Q 40.234375 -1.421875 26.421875 -1.421875 
Q 22.703125 -1.421875 18.890625 -0.6875 
Q 15.09375 0.046875 10.984375 1.515625 
z
M 30.609375 32.421875 
Q 37.25 32.421875 41.125 36.953125 
Q 45.015625 41.5 45.015625 49.421875 
Q 45.015625 57.28125 41.125 61.84375 
Q 37.25 66.40625 30.609375 66.40625 
Q 23.96875 66.40625 20.09375 61.84375 
Q 16.21875 57.28125 16.21875 49.421875 
Q 16.21875 41.5 20.09375 36.953125 
Q 23.96875 32.421875 30.609375 32.421875 
z
" id="DejaVuSans-57"/>
       </defs>
       <use xlink:href="#DejaVuSans-48"/>
       <use x="63.623047" xlink:href="#DejaVuSans-49"/>
       <use x="127.246094" xlink:href="#DejaVuSans-47"/>
       <use x="160.9375" xlink:href="#DejaVuSans-50"/>
       <use x="224.560547" xlink:href="#DejaVuSans-57"/>
       <use x="288.183594" xlink:href="#DejaVuSans-32"/>
       <use x="319.970703" xlink:href="#DejaVuSans-45"/>
       <use x="356.054688" xlink:href="#DejaVuSans-32"/>
       <use x="387.841797" xlink:href="#DejaVuSans-48"/>
       <use x="451.464844" xlink:href="#DejaVuSans-50"/>
       <use x="515.087891" xlink:href="#DejaVuSans-47"/>
       <use x="548.779297" xlink:href="#DejaVuSans-48"/>
       <use x="612.402344" xlink:href="#DejaVuSans-52"/>
      </g>
     </g>
    </g>
    <g id="xtick_6">
     <g id="line2d_6">
      <g>
       <use style="stroke:#000000;stroke-width:0.8;" x="218.268333" xlink:href="#mbc0609467a" y="463.276875"/>
      </g>
     </g>
     <g id="text_6">
      <!-- 02/05 - 02/11 -->
      <g transform="translate(221.027708 537.878437)rotate(-90)scale(0.1 -0.1)">
       <use xlink:href="#DejaVuSans-48"/>
       <use x="63.623047" xlink:href="#DejaVuSans-50"/>
       <use x="127.246094" xlink:href="#DejaVuSans-47"/>
       <use x="160.9375" xlink:href="#DejaVuSans-48"/>
       <use x="224.560547" xlink:href="#DejaVuSans-53"/>
       <use x="288.183594" xlink:href="#DejaVuSans-32"/>
       <use x="319.970703" xlink:href="#DejaVuSans-45"/>
       <use x="356.054688" xlink:href="#DejaVuSans-32"/>
       <use x="387.841797" xlink:href="#DejaVuSans-48"/>
       <use x="451.464844" xlink:href="#DejaVuSans-50"/>
       <use x="515.087891" xlink:href="#DejaVuSans-47"/>
       <use x="548.779297" xlink:href="#DejaVuSans-49"/>
       <use x="612.402344" xlink:href="#DejaVuSans-49"/>
      </g>
     </g>
    </g>
    <g id="xtick_7">
     <g id="line2d_7">
      <g>
       <use style="stroke:#000000;stroke-width:0.8;" x="247.201667" xlink:href="#mbc0609467a" y="463.276875"/>
      </g>
     </g>
     <g id="text_7">
      <!-- 02/12 - 02/18 -->
      <g transform="translate(249.961042 537.878437)rotate(-90)scale(0.1 -0.1)">
       <use xlink:href="#DejaVuSans-48"/>
       <use x="63.623047" xlink:href="#DejaVuSans-50"/>
       <use x="127.246094" xlink:href="#DejaVuSans-47"/>
       <use x="160.9375" xlink:href="#DejaVuSans-49"/>
       <use x="224.560547" xlink:href="#DejaVuSans-50"/>
       <use x="288.183594" xlink:href="#DejaVuSans-32"/>
       <use x="319.970703" xlink:href="#DejaVuSans-45"/>
       <use x="356.054688" xlink:href="#DejaVuSans-32"/>
       <use x="387.841797" xlink:href="#DejaVuSans-48"/>
       <use x="451.464844" xlink:href="#DejaVuSans-50"/>
       <use x="515.087891" xlink:href="#DejaVuSans-47"/>
       <use x="548.779297" xlink:href="#DejaVuSans-49"/>
       <use x="612.402344" xlink:href="#DejaVuSans-56"/>
      </g>
     </g>
    </g>
    <g id="xtick_8">
     <g id="line2d_8">
      <g>
       <use style="stroke:#000000;stroke-width:0.8;" x="276.135" xlink:href="#mbc0609467a" y="463.276875"/>
      </g>
     </g>
     <g id="text_8">
      <!-- 02/19 - 02/25 -->
      <g transform="translate(278.894375 537.878437)rotate(-90)scale(0.1 -0.1)">
       <use xlink:href="#DejaVuSans-48"/>
       <use x="63.623047" xlink:href="#DejaVuSans-50"/>
       <use x="127.246094" xlink:href="#DejaVuSans-47"/>
       <use x="160.9375" xlink:href="#DejaVuSans-49"/>
       <use x="224.560547" xlink:href="#DejaVuSans-57"/>
       <use x="288.183594" xlink:href="#DejaVuSans-32"/>
       <use x="319.970703" xlink:href="#DejaVuSans-45"/>
       <use x="356.054688" xlink:href="#DejaVuSans-32"/>
       <use x="387.841797" xlink:href="#DejaVuSans-48"/>
       <use x="451.464844" xlink:href="#DejaVuSans-50"/>
       <use x="515.087891" xlink:href="#DejaVuSans-47"/>
       <use x="548.779297" xlink:href="#DejaVuSans-50"/>
       <use x="612.402344" xlink:href="#DejaVuSans-53"/>
      </g>
     </g>
    </g>
    <g id="xtick_9">
     <g id="line2d_9">
      <g>
       <use style="stroke:#000000;stroke-width:0.8;" x="305.068333" xlink:href="#mbc0609467a" y="463.276875"/>
      </g>
     </g>
     <g id="text_9">
      <!-- 02/26 - 03/04 -->
      <g transform="translate(307.827708 537.878437)rotate(-90)scale(0.1 -0.1)">
       <defs>
        <path d="M 33.015625 40.375 
Q 26.375 40.375 22.484375 35.828125 
Q 18.609375 31.296875 18.609375 23.390625 
Q 18.609375 15.53125 22.484375 10.953125 
Q 26.375 6.390625 33.015625 6.390625 
Q 39.65625 6.390625 43.53125 10.953125 
Q 47.40625 15.53125 47.40625 23.390625 
Q 47.40625 31.296875 43.53125 35.828125 
Q 39.65625 40.375 33.015625 40.375 
z
M 52.59375 71.296875 
L 52.59375 62.3125 
Q 48.875 64.0625 45.09375 64.984375 
Q 41.3125 65.921875 37.59375 65.921875 
Q 27.828125 65.921875 22.671875 59.328125 
Q 17.53125 52.734375 16.796875 39.40625 
Q 19.671875 43.65625 24.015625 45.921875 
Q 28.375 48.1875 33.59375 48.1875 
Q 44.578125 48.1875 50.953125 41.515625 
Q 57.328125 34.859375 57.328125 23.390625 
Q 57.328125 12.15625 50.6875 5.359375 
Q 44.046875 -1.421875 33.015625 -1.421875 
Q 20.359375 -1.421875 13.671875 8.265625 
Q 6.984375 17.96875 6.984375 36.375 
Q 6.984375 53.65625 15.1875 63.9375 
Q 23.390625 74.21875 37.203125 74.21875 
Q 40.921875 74.21875 44.703125 73.484375 
Q 48.484375 72.75 52.59375 71.296875 
z
" id="DejaVuSans-54"/>
        <path d="M 40.578125 39.3125 
Q 47.65625 37.796875 51.625 33 
Q 55.609375 28.21875 55.609375 21.1875 
Q 55.609375 10.40625 48.1875 4.484375 
Q 40.765625 -1.421875 27.09375 -1.421875 
Q 22.515625 -1.421875 17.65625 -0.515625 
Q 12.796875 0.390625 7.625 2.203125 
L 7.625 11.71875 
Q 11.71875 9.328125 16.59375 8.109375 
Q 21.484375 6.890625 26.8125 6.890625 
Q 36.078125 6.890625 40.9375 10.546875 
Q 45.796875 14.203125 45.796875 21.1875 
Q 45.796875 27.640625 41.28125 31.265625 
Q 36.765625 34.90625 28.71875 34.90625 
L 20.21875 34.90625 
L 20.21875 43.015625 
L 29.109375 43.015625 
Q 36.375 43.015625 40.234375 45.921875 
Q 44.09375 48.828125 44.09375 54.296875 
Q 44.09375 59.90625 40.109375 62.90625 
Q 36.140625 65.921875 28.71875 65.921875 
Q 24.65625 65.921875 20.015625 65.03125 
Q 15.375 64.15625 9.8125 62.3125 
L 9.8125 71.09375 
Q 15.4375 72.65625 20.34375 73.4375 
Q 25.25 74.21875 29.59375 74.21875 
Q 40.828125 74.21875 47.359375 69.109375 
Q 53.90625 64.015625 53.90625 55.328125 
Q 53.90625 49.265625 50.4375 45.09375 
Q 46.96875 40.921875 40.578125 39.3125 
z
" id="DejaVuSans-51"/>
       </defs>
       <use xlink:href="#DejaVuSans-48"/>
       <use x="63.623047" xlink:href="#DejaVuSans-50"/>
       <use x="127.246094" xlink:href="#DejaVuSans-47"/>
       <use x="160.9375" xlink:href="#DejaVuSans-50"/>
       <use x="224.560547" xlink:href="#DejaVuSans-54"/>
       <use x="288.183594" xlink:href="#DejaVuSans-32"/>
       <use x="319.970703" xlink:href="#DejaVuSans-45"/>
       <use x="356.054688" xlink:href="#DejaVuSans-32"/>
       <use x="387.841797" xlink:href="#DejaVuSans-48"/>
       <use x="451.464844" xlink:href="#DejaVuSans-51"/>
       <use x="515.087891" xlink:href="#DejaVuSans-47"/>
       <use x="548.779297" xlink:href="#DejaVuSans-48"/>
       <use x="612.402344" xlink:href="#DejaVuSans-52"/>
      </g>
     </g>
    </g>
    <g id="xtick_10">
     <g id="line2d_10">
      <g>
       <use style="stroke:#000000;stroke-width:0.8;" x="334.001667" xlink:href="#mbc0609467a" y="463.276875"/>
      </g>
     </g>
     <g id="text_10">
      <!-- 03/05 - 03/11 -->
      <g transform="translate(336.761042 537.878437)rotate(-90)scale(0.1 -0.1)">
       <use xlink:href="#DejaVuSans-48"/>
       <use x="63.623047" xlink:href="#DejaVuSans-51"/>
       <use x="127.246094" xlink:href="#DejaVuSans-47"/>
       <use x="160.9375" xlink:href="#DejaVuSans-48"/>
       <use x="224.560547" xlink:href="#DejaVuSans-53"/>
       <use x="288.183594" xlink:href="#DejaVuSans-32"/>
       <use x="319.970703" xlink:href="#DejaVuSans-45"/>
       <use x="356.054688" xlink:href="#DejaVuSans-32"/>
       <use x="387.841797" xlink:href="#DejaVuSans-48"/>
       <use x="451.464844" xlink:href="#DejaVuSans-51"/>
       <use x="515.087891" xlink:href="#DejaVuSans-47"/>
       <use x="548.779297" xlink:href="#DejaVuSans-49"/>
       <use x="612.402344" xlink:href="#DejaVuSans-49"/>
      </g>
     </g>
    </g>
    <g id="xtick_11">
     <g id="line2d_11">
      <g>
       <use style="stroke:#000000;stroke-width:0.8;" x="362.935" xlink:href="#mbc0609467a" y="463.276875"/>
      </g>
     </g>
     <g id="text_11">
      <!-- 03/12 - 03/18 -->
      <g transform="translate(365.694375 537.878437)rotate(-90)scale(0.1 -0.1)">
       <use xlink:href="#DejaVuSans-48"/>
       <use x="63.623047" xlink:href="#DejaVuSans-51"/>
       <use x="127.246094" xlink:href="#DejaVuSans-47"/>
       <use x="160.9375" xlink:href="#DejaVuSans-49"/>
       <use x="224.560547" xlink:href="#DejaVuSans-50"/>
       <use x="288.183594" xlink:href="#DejaVuSans-32"/>
       <use x="319.970703" xlink:href="#DejaVuSans-45"/>
       <use x="356.054688" xlink:href="#DejaVuSans-32"/>
       <use x="387.841797" xlink:href="#DejaVuSans-48"/>
       <use x="451.464844" xlink:href="#DejaVuSans-51"/>
       <use x="515.087891" xlink:href="#DejaVuSans-47"/>
       <use x="548.779297" xlink:href="#DejaVuSans-49"/>
       <use x="612.402344" xlink:href="#DejaVuSans-56"/>
      </g>
     </g>
    </g>
    <g id="xtick_12">
     <g id="line2d_12">
      <g>
       <use style="stroke:#000000;stroke-width:0.8;" x="391.868333" xlink:href="#mbc0609467a" y="463.276875"/>
      </g>
     </g>
     <g id="text_12">
      <!-- 03/19 - 03/25 -->
      <g transform="translate(394.627708 537.878437)rotate(-90)scale(0.1 -0.1)">
       <use xlink:href="#DejaVuSans-48"/>
       <use x="63.623047" xlink:href="#DejaVuSans-51"/>
       <use x="127.246094" xlink:href="#DejaVuSans-47"/>
       <use x="160.9375" xlink:href="#DejaVuSans-49"/>
       <use x="224.560547" xlink:href="#DejaVuSans-57"/>
       <use x="288.183594" xlink:href="#DejaVuSans-32"/>
       <use x="319.970703" xlink:href="#DejaVuSans-45"/>
       <use x="356.054688" xlink:href="#DejaVuSans-32"/>
       <use x="387.841797" xlink:href="#DejaVuSans-48"/>
       <use x="451.464844" xlink:href="#DejaVuSans-51"/>
       <use x="515.087891" xlink:href="#DejaVuSans-47"/>
       <use x="548.779297" xlink:href="#DejaVuSans-50"/>
       <use x="612.402344" xlink:href="#DejaVuSans-53"/>
      </g>
     </g>
    </g>
    <g id="xtick_13">
     <g id="line2d_13">
      <g>
       <use style="stroke:#000000;stroke-width:0.8;" x="420.801667" xlink:href="#mbc0609467a" y="463.276875"/>
      </g>
     </g>
     <g id="text_13">
      <!-- 03/26 - 04/01 -->
      <g transform="translate(423.561042 537.878437)rotate(-90)scale(0.1 -0.1)">
       <use xlink:href="#DejaVuSans-48"/>
       <use x="63.623047" xlink:href="#DejaVuSans-51"/>
       <use x="127.246094" xlink:href="#DejaVuSans-47"/>
       <use x="160.9375" xlink:href="#DejaVuSans-50"/>
       <use x="224.560547" xlink:href="#DejaVuSans-54"/>
       <use x="288.183594" xlink:href="#DejaVuSans-32"/>
       <use x="319.970703" xlink:href="#DejaVuSans-45"/>
       <use x="356.054688" xlink:href="#DejaVuSans-32"/>
       <use x="387.841797" xlink:href="#DejaVuSans-48"/>
       <use x="451.464844" xlink:href="#DejaVuSans-52"/>
       <use x="515.087891" xlink:href="#DejaVuSans-47"/>
       <use x="548.779297" xlink:href="#DejaVuSans-48"/>
       <use x="612.402344" xlink:href="#DejaVuSans-49"/>
      </g>
     </g>
    </g>
    <g id="xtick_14">
     <g id="line2d_14">
      <g>
       <use style="stroke:#000000;stroke-width:0.8;" x="449.735" xlink:href="#mbc0609467a" y="463.276875"/>
      </g>
     </g>
     <g id="text_14">
      <!-- 04/02 - 04/08 -->
      <g transform="translate(452.494375 537.878437)rotate(-90)scale(0.1 -0.1)">
       <use xlink:href="#DejaVuSans-48"/>
       <use x="63.623047" xlink:href="#DejaVuSans-52"/>
       <use x="127.246094" xlink:href="#DejaVuSans-47"/>
       <use x="160.9375" xlink:href="#DejaVuSans-48"/>
       <use x="224.560547" xlink:href="#DejaVuSans-50"/>
       <use x="288.183594" xlink:href="#DejaVuSans-32"/>
       <use x="319.970703" xlink:href="#DejaVuSans-45"/>
       <use x="356.054688" xlink:href="#DejaVuSans-32"/>
       <use x="387.841797" xlink:href="#DejaVuSans-48"/>
       <use x="451.464844" xlink:href="#DejaVuSans-52"/>
       <use x="515.087891" xlink:href="#DejaVuSans-47"/>
       <use x="548.779297" xlink:href="#DejaVuSans-48"/>
       <use x="612.402344" xlink:href="#DejaVuSans-56"/>
      </g>
     </g>
    </g>
    <g id="xtick_15">
     <g id="line2d_15">
      <g>
       <use style="stroke:#000000;stroke-width:0.8;" x="478.668333" xlink:href="#mbc0609467a" y="463.276875"/>
      </g>
     </g>
     <g id="text_15">
      <!-- 04/09 - 04/15 -->
      <g transform="translate(481.427708 537.878437)rotate(-90)scale(0.1 -0.1)">
       <use xlink:href="#DejaVuSans-48"/>
       <use x="63.623047" xlink:href="#DejaVuSans-52"/>
       <use x="127.246094" xlink:href="#DejaVuSans-47"/>
       <use x="160.9375" xlink:href="#DejaVuSans-48"/>
       <use x="224.560547" xlink:href="#DejaVuSans-57"/>
       <use x="288.183594" xlink:href="#DejaVuSans-32"/>
       <use x="319.970703" xlink:href="#DejaVuSans-45"/>
       <use x="356.054688" xlink:href="#DejaVuSans-32"/>
       <use x="387.841797" xlink:href="#DejaVuSans-48"/>
       <use x="451.464844" xlink:href="#DejaVuSans-52"/>
       <use x="515.087891" xlink:href="#DejaVuSans-47"/>
       <use x="548.779297" xlink:href="#DejaVuSans-49"/>
       <use x="612.402344" xlink:href="#DejaVuSans-53"/>
      </g>
     </g>
    </g>
    <g id="xtick_16">
     <g id="line2d_16">
      <g>
       <use style="stroke:#000000;stroke-width:0.8;" x="507.601667" xlink:href="#mbc0609467a" y="463.276875"/>
      </g>
     </g>
     <g id="text_16">
      <!-- 04/16 - 04/22 -->
      <g transform="translate(510.361042 537.878437)rotate(-90)scale(0.1 -0.1)">
       <use xlink:href="#DejaVuSans-48"/>
       <use x="63.623047" xlink:href="#DejaVuSans-52"/>
       <use x="127.246094" xlink:href="#DejaVuSans-47"/>
       <use x="160.9375" xlink:href="#DejaVuSans-49"/>
       <use x="224.560547" xlink:href="#DejaVuSans-54"/>
       <use x="288.183594" xlink:href="#DejaVuSans-32"/>
       <use x="319.970703" xlink:href="#DejaVuSans-45"/>
       <use x="356.054688" xlink:href="#DejaVuSans-32"/>
       <use x="387.841797" xlink:href="#DejaVuSans-48"/>
       <use x="451.464844" xlink:href="#DejaVuSans-52"/>
       <use x="515.087891" xlink:href="#DejaVuSans-47"/>
       <use x="548.779297" xlink:href="#DejaVuSans-50"/>
       <use x="612.402344" xlink:href="#DejaVuSans-50"/>
      </g>
     </g>
    </g>
    <g id="xtick_17">
     <g id="line2d_17">
      <g>
       <use style="stroke:#000000;stroke-width:0.8;" x="536.535" xlink:href="#mbc0609467a" y="463.276875"/>
      </g>
     </g>
     <g id="text_17">
      <!-- 04/23 - 04/29 -->
      <g transform="translate(539.294375 537.878437)rotate(-90)scale(0.1 -0.1)">
       <use xlink:href="#DejaVuSans-48"/>
       <use x="63.623047" xlink:href="#DejaVuSans-52"/>
       <use x="127.246094" xlink:href="#DejaVuSans-47"/>
       <use x="160.9375" xlink:href="#DejaVuSans-50"/>
       <use x="224.560547" xlink:href="#DejaVuSans-51"/>
       <use x="288.183594" xlink:href="#DejaVuSans-32"/>
       <use x="319.970703" xlink:href="#DejaVuSans-45"/>
       <use x="356.054688" xlink:href="#DejaVuSans-32"/>
       <use x="387.841797" xlink:href="#DejaVuSans-48"/>
       <use x="451.464844" xlink:href="#DejaVuSans-52"/>
       <use x="515.087891" xlink:href="#DejaVuSans-47"/>
       <use x="548.779297" xlink:href="#DejaVuSans-50"/>
       <use x="612.402344" xlink:href="#DejaVuSans-57"/>
      </g>
     </g>
    </g>
    <g id="xtick_18">
     <g id="line2d_18">
      <g>
       <use style="stroke:#000000;stroke-width:0.8;" x="565.468333" xlink:href="#mbc0609467a" y="463.276875"/>
      </g>
     </g>
     <g id="text_18">
      <!-- 04/30 - 05/06 -->
      <g transform="translate(568.227708 537.878437)rotate(-90)scale(0.1 -0.1)">
       <use xlink:href="#DejaVuSans-48"/>
       <use x="63.623047" xlink:href="#DejaVuSans-52"/>
       <use x="127.246094" xlink:href="#DejaVuSans-47"/>
       <use x="160.9375" xlink:href="#DejaVuSans-51"/>
       <use x="224.560547" xlink:href="#DejaVuSans-48"/>
       <use x="288.183594" xlink:href="#DejaVuSans-32"/>
       <use x="319.970703" xlink:href="#DejaVuSans-45"/>
       <use x="356.054688" xlink:href="#DejaVuSans-32"/>
       <use x="387.841797" xlink:href="#DejaVuSans-48"/>
       <use x="451.464844" xlink:href="#DejaVuSans-53"/>
       <use x="515.087891" xlink:href="#DejaVuSans-47"/>
       <use x="548.779297" xlink:href="#DejaVuSans-48"/>
       <use x="612.402344" xlink:href="#DejaVuSans-54"/>
      </g>
     </g>
    </g>
    <g id="xtick_19">
     <g id="line2d_19">
      <g>
       <use style="stroke:#000000;stroke-width:0.8;" x="594.401667" xlink:href="#mbc0609467a" y="463.276875"/>
      </g>
     </g>
     <g id="text_19">
      <!-- 05/07 - 05/13 -->
      <g transform="translate(597.161042 537.878437)rotate(-90)scale(0.1 -0.1)">
       <use xlink:href="#DejaVuSans-48"/>
       <use x="63.623047" xlink:href="#DejaVuSans-53"/>
       <use x="127.246094" xlink:href="#DejaVuSans-47"/>
       <use x="160.9375" xlink:href="#DejaVuSans-48"/>
       <use x="224.560547" xlink:href="#DejaVuSans-55"/>
       <use x="288.183594" xlink:href="#DejaVuSans-32"/>
       <use x="319.970703" xlink:href="#DejaVuSans-45"/>
       <use x="356.054688" xlink:href="#DejaVuSans-32"/>
       <use x="387.841797" xlink:href="#DejaVuSans-48"/>
       <use x="451.464844" xlink:href="#DejaVuSans-53"/>
       <use x="515.087891" xlink:href="#DejaVuSans-47"/>
       <use x="548.779297" xlink:href="#DejaVuSans-49"/>
       <use x="612.402344" xlink:href="#DejaVuSans-51"/>
      </g>
     </g>
    </g>
    <g id="xtick_20">
     <g id="line2d_20">
      <g>
       <use style="stroke:#000000;stroke-width:0.8;" x="623.335" xlink:href="#mbc0609467a" y="463.276875"/>
      </g>
     </g>
     <g id="text_20">
      <!-- 05/14 - 05/20 -->
      <g transform="translate(626.094375 537.878437)rotate(-90)scale(0.1 -0.1)">
       <use xlink:href="#DejaVuSans-48"/>
       <use x="63.623047" xlink:href="#DejaVuSans-53"/>
       <use x="127.246094" xlink:href="#DejaVuSans-47"/>
       <use x="160.9375" xlink:href="#DejaVuSans-49"/>
       <use x="224.560547" xlink:href="#DejaVuSans-52"/>
       <use x="288.183594" xlink:href="#DejaVuSans-32"/>
       <use x="319.970703" xlink:href="#DejaVuSans-45"/>
       <use x="356.054688" xlink:href="#DejaVuSans-32"/>
       <use x="387.841797" xlink:href="#DejaVuSans-48"/>
       <use x="451.464844" xlink:href="#DejaVuSans-53"/>
       <use x="515.087891" xlink:href="#DejaVuSans-47"/>
       <use x="548.779297" xlink:href="#DejaVuSans-50"/>
       <use x="612.402344" xlink:href="#DejaVuSans-48"/>
      </g>
     </g>
    </g>
    <g id="xtick_21">
     <g id="line2d_21">
      <g>
       <use style="stroke:#000000;stroke-width:0.8;" x="652.268333" xlink:href="#mbc0609467a" y="463.276875"/>
      </g>
     </g>
     <g id="text_21">
      <!-- 05/21 - 05/27 -->
      <g transform="translate(655.027708 537.878437)rotate(-90)scale(0.1 -0.1)">
       <use xlink:href="#DejaVuSans-48"/>
       <use x="63.623047" xlink:href="#DejaVuSans-53"/>
       <use x="127.246094" xlink:href="#DejaVuSans-47"/>
       <use x="160.9375" xlink:href="#DejaVuSans-50"/>
       <use x="224.560547" xlink:href="#DejaVuSans-49"/>
       <use x="288.183594" xlink:href="#DejaVuSans-32"/>
       <use x="319.970703" xlink:href="#DejaVuSans-45"/>
       <use x="356.054688" xlink:href="#DejaVuSans-32"/>
       <use x="387.841797" xlink:href="#DejaVuSans-48"/>
       <use x="451.464844" xlink:href="#DejaVuSans-53"/>
       <use x="515.087891" xlink:href="#DejaVuSans-47"/>
       <use x="548.779297" xlink:href="#DejaVuSans-50"/>
       <use x="612.402344" xlink:href="#DejaVuSans-55"/>
      </g>
     </g>
    </g>
    <g id="xtick_22">
     <g id="line2d_22">
      <g>
       <use style="stroke:#000000;stroke-width:0.8;" x="681.201667" xlink:href="#mbc0609467a" y="463.276875"/>
      </g>
     </g>
     <g id="text_22">
      <!-- 05/28 - 06/03 -->
      <g transform="translate(683.961042 537.878437)rotate(-90)scale(0.1 -0.1)">
       <use xlink:href="#DejaVuSans-48"/>
       <use x="63.623047" xlink:href="#DejaVuSans-53"/>
       <use x="127.246094" xlink:href="#DejaVuSans-47"/>
       <use x="160.9375" xlink:href="#DejaVuSans-50"/>
       <use x="224.560547" xlink:href="#DejaVuSans-56"/>
       <use x="288.183594" xlink:href="#DejaVuSans-32"/>
       <use x="319.970703" xlink:href="#DejaVuSans-45"/>
       <use x="356.054688" xlink:href="#DejaVuSans-32"/>
       <use x="387.841797" xlink:href="#DejaVuSans-48"/>
       <use x="451.464844" xlink:href="#DejaVuSans-54"/>
       <use x="515.087891" xlink:href="#DejaVuSans-47"/>
       <use x="548.779297" xlink:href="#DejaVuSans-48"/>
       <use x="612.402344" xlink:href="#DejaVuSans-51"/>
      </g>
     </g>
    </g>
    <g id="xtick_23">
     <g id="line2d_23">
      <g>
       <use style="stroke:#000000;stroke-width:0.8;" x="710.135" xlink:href="#mbc0609467a" y="463.276875"/>
      </g>
     </g>
     <g id="text_23">
      <!-- 06/04 - 06/10 -->
      <g transform="translate(712.894375 537.878437)rotate(-90)scale(0.1 -0.1)">
       <use xlink:href="#DejaVuSans-48"/>
       <use x="63.623047" xlink:href="#DejaVuSans-54"/>
       <use x="127.246094" xlink:href="#DejaVuSans-47"/>
       <use x="160.9375" xlink:href="#DejaVuSans-48"/>
       <use x="224.560547" xlink:href="#DejaVuSans-52"/>
       <use x="288.183594" xlink:href="#DejaVuSans-32"/>
       <use x="319.970703" xlink:href="#DejaVuSans-45"/>
       <use x="356.054688" xlink:href="#DejaVuSans-32"/>
       <use x="387.841797" xlink:href="#DejaVuSans-48"/>
       <use x="451.464844" xlink:href="#DejaVuSans-54"/>
       <use x="515.087891" xlink:href="#DejaVuSans-47"/>
       <use x="548.779297" xlink:href="#DejaVuSans-49"/>
       <use x="612.402344" xlink:href="#DejaVuSans-48"/>
      </g>
     </g>
    </g>
    <g id="xtick_24">
     <g id="line2d_24">
      <g>
       <use style="stroke:#000000;stroke-width:0.8;" x="739.068333" xlink:href="#mbc0609467a" y="463.276875"/>
      </g>
     </g>
     <g id="text_24">
      <!-- 06/11 - 06/17 -->
      <g transform="translate(741.827708 537.878437)rotate(-90)scale(0.1 -0.1)">
       <use xlink:href="#DejaVuSans-48"/>
       <use x="63.623047" xlink:href="#DejaVuSans-54"/>
       <use x="127.246094" xlink:href="#DejaVuSans-47"/>
       <use x="160.9375" xlink:href="#DejaVuSans-49"/>
       <use x="224.560547" xlink:href="#DejaVuSans-49"/>
       <use x="288.183594" xlink:href="#DejaVuSans-32"/>
       <use x="319.970703" xlink:href="#DejaVuSans-45"/>
       <use x="356.054688" xlink:href="#DejaVuSans-32"/>
       <use x="387.841797" xlink:href="#DejaVuSans-48"/>
       <use x="451.464844" xlink:href="#DejaVuSans-54"/>
       <use x="515.087891" xlink:href="#DejaVuSans-47"/>
       <use x="548.779297" xlink:href="#DejaVuSans-49"/>
       <use x="612.402344" xlink:href="#DejaVuSans-55"/>
      </g>
     </g>
    </g>
    <g id="xtick_25">
     <g id="line2d_25">
      <g>
       <use style="stroke:#000000;stroke-width:0.8;" x="768.001667" xlink:href="#mbc0609467a" y="463.276875"/>
      </g>
     </g>
     <g id="text_25">
      <!-- 06/18 - 06/24 -->
      <g transform="translate(770.761042 537.878437)rotate(-90)scale(0.1 -0.1)">
       <use xlink:href="#DejaVuSans-48"/>
       <use x="63.623047" xlink:href="#DejaVuSans-54"/>
       <use x="127.246094" xlink:href="#DejaVuSans-47"/>
       <use x="160.9375" xlink:href="#DejaVuSans-49"/>
       <use x="224.560547" xlink:href="#DejaVuSans-56"/>
       <use x="288.183594" xlink:href="#DejaVuSans-32"/>
       <use x="319.970703" xlink:href="#DejaVuSans-45"/>
       <use x="356.054688" xlink:href="#DejaVuSans-32"/>
       <use x="387.841797" xlink:href="#DejaVuSans-48"/>
       <use x="451.464844" xlink:href="#DejaVuSans-54"/>
       <use x="515.087891" xlink:href="#DejaVuSans-47"/>
       <use x="548.779297" xlink:href="#DejaVuSans-50"/>
       <use x="612.402344" xlink:href="#DejaVuSans-52"/>
      </g>
     </g>
    </g>
    <g id="xtick_26">
     <g id="line2d_26">
      <g>
       <use style="stroke:#000000;stroke-width:0.8;" x="796.935" xlink:href="#mbc0609467a" y="463.276875"/>
      </g>
     </g>
     <g id="text_26">
      <!-- 06/25 - 07/01 -->
      <g transform="translate(799.694375 537.878437)rotate(-90)scale(0.1 -0.1)">
       <use xlink:href="#DejaVuSans-48"/>
       <use x="63.623047" xlink:href="#DejaVuSans-54"/>
       <use x="127.246094" xlink:href="#DejaVuSans-47"/>
       <use x="160.9375" xlink:href="#DejaVuSans-50"/>
       <use x="224.560547" xlink:href="#DejaVuSans-53"/>
       <use x="288.183594" xlink:href="#DejaVuSans-32"/>
       <use x="319.970703" xlink:href="#DejaVuSans-45"/>
       <use x="356.054688" xlink:href="#DejaVuSans-32"/>
       <use x="387.841797" xlink:href="#DejaVuSans-48"/>
       <use x="451.464844" xlink:href="#DejaVuSans-55"/>
       <use x="515.087891" xlink:href="#DejaVuSans-47"/>
       <use x="548.779297" xlink:href="#DejaVuSans-48"/>
       <use x="612.402344" xlink:href="#DejaVuSans-49"/>
      </g>
     </g>
    </g>
    <g id="xtick_27">
     <g id="line2d_27">
      <g>
       <use style="stroke:#000000;stroke-width:0.8;" x="825.868333" xlink:href="#mbc0609467a" y="463.276875"/>
      </g>
     </g>
     <g id="text_27">
      <!-- 07/02 - 07/08 -->
      <g transform="translate(828.627708 537.878437)rotate(-90)scale(0.1 -0.1)">
       <use xlink:href="#DejaVuSans-48"/>
       <use x="63.623047" xlink:href="#DejaVuSans-55"/>
       <use x="127.246094" xlink:href="#DejaVuSans-47"/>
       <use x="160.9375" xlink:href="#DejaVuSans-48"/>
       <use x="224.560547" xlink:href="#DejaVuSans-50"/>
       <use x="288.183594" xlink:href="#DejaVuSans-32"/>
       <use x="319.970703" xlink:href="#DejaVuSans-45"/>
       <use x="356.054688" xlink:href="#DejaVuSans-32"/>
       <use x="387.841797" xlink:href="#DejaVuSans-48"/>
       <use x="451.464844" xlink:href="#DejaVuSans-55"/>
       <use x="515.087891" xlink:href="#DejaVuSans-47"/>
       <use x="548.779297" xlink:href="#DejaVuSans-48"/>
       <use x="612.402344" xlink:href="#DejaVuSans-56"/>
      </g>
     </g>
    </g>
    <g id="text_28">
     <!--  -->
     <g transform="translate(449.735 554.035937)scale(0.16 -0.16)"/>
     <!--  User Registration Cohort Date -->
     <g transform="translate(327.0975 571.952437)scale(0.16 -0.16)">
      <defs>
       <path d="M 8.6875 72.90625 
L 18.609375 72.90625 
L 18.609375 28.609375 
Q 18.609375 16.890625 22.84375 11.734375 
Q 27.09375 6.59375 36.625 6.59375 
Q 46.09375 6.59375 50.34375 11.734375 
Q 54.59375 16.890625 54.59375 28.609375 
L 54.59375 72.90625 
L 64.5 72.90625 
L 64.5 27.390625 
Q 64.5 13.140625 57.4375 5.859375 
Q 50.390625 -1.421875 36.625 -1.421875 
Q 22.796875 -1.421875 15.734375 5.859375 
Q 8.6875 13.140625 8.6875 27.390625 
z
" id="DejaVuSans-85"/>
       <path d="M 44.28125 53.078125 
L 44.28125 44.578125 
Q 40.484375 46.53125 36.375 47.5 
Q 32.28125 48.484375 27.875 48.484375 
Q 21.1875 48.484375 17.84375 46.4375 
Q 14.5 44.390625 14.5 40.28125 
Q 14.5 37.15625 16.890625 35.375 
Q 19.28125 33.59375 26.515625 31.984375 
L 29.59375 31.296875 
Q 39.15625 29.25 43.1875 25.515625 
Q 47.21875 21.78125 47.21875 15.09375 
Q 47.21875 7.46875 41.1875 3.015625 
Q 35.15625 -1.421875 24.609375 -1.421875 
Q 20.21875 -1.421875 15.453125 -0.5625 
Q 10.6875 0.296875 5.421875 2 
L 5.421875 11.28125 
Q 10.40625 8.6875 15.234375 7.390625 
Q 20.0625 6.109375 24.8125 6.109375 
Q 31.15625 6.109375 34.5625 8.28125 
Q 37.984375 10.453125 37.984375 14.40625 
Q 37.984375 18.0625 35.515625 20.015625 
Q 33.0625 21.96875 24.703125 23.78125 
L 21.578125 24.515625 
Q 13.234375 26.265625 9.515625 29.90625 
Q 5.8125 33.546875 5.8125 39.890625 
Q 5.8125 47.609375 11.28125 51.796875 
Q 16.75 56 26.8125 56 
Q 31.78125 56 36.171875 55.265625 
Q 40.578125 54.546875 44.28125 53.078125 
z
" id="DejaVuSans-115"/>
       <path d="M 56.203125 29.59375 
L 56.203125 25.203125 
L 14.890625 25.203125 
Q 15.484375 15.921875 20.484375 11.0625 
Q 25.484375 6.203125 34.421875 6.203125 
Q 39.59375 6.203125 44.453125 7.46875 
Q 49.3125 8.734375 54.109375 11.28125 
L 54.109375 2.78125 
Q 49.265625 0.734375 44.1875 -0.34375 
Q 39.109375 -1.421875 33.890625 -1.421875 
Q 20.796875 -1.421875 13.15625 6.1875 
Q 5.515625 13.8125 5.515625 26.8125 
Q 5.515625 40.234375 12.765625 48.109375 
Q 20.015625 56 32.328125 56 
Q 43.359375 56 49.78125 48.890625 
Q 56.203125 41.796875 56.203125 29.59375 
z
M 47.21875 32.234375 
Q 47.125 39.59375 43.09375 43.984375 
Q 39.0625 48.390625 32.421875 48.390625 
Q 24.90625 48.390625 20.390625 44.140625 
Q 15.875 39.890625 15.1875 32.171875 
z
" id="DejaVuSans-101"/>
       <path d="M 41.109375 46.296875 
Q 39.59375 47.171875 37.8125 47.578125 
Q 36.03125 48 33.890625 48 
Q 26.265625 48 22.1875 43.046875 
Q 18.109375 38.09375 18.109375 28.8125 
L 18.109375 0 
L 9.078125 0 
L 9.078125 54.6875 
L 18.109375 54.6875 
L 18.109375 46.1875 
Q 20.953125 51.171875 25.484375 53.578125 
Q 30.03125 56 36.53125 56 
Q 37.453125 56 38.578125 55.875 
Q 39.703125 55.765625 41.0625 55.515625 
z
" id="DejaVuSans-114"/>
       <path d="M 44.390625 34.1875 
Q 47.5625 33.109375 50.5625 29.59375 
Q 53.5625 26.078125 56.59375 19.921875 
L 66.609375 0 
L 56 0 
L 46.6875 18.703125 
Q 43.0625 26.03125 39.671875 28.421875 
Q 36.28125 30.8125 30.421875 30.8125 
L 19.671875 30.8125 
L 19.671875 0 
L 9.8125 0 
L 9.8125 72.90625 
L 32.078125 72.90625 
Q 44.578125 72.90625 50.734375 67.671875 
Q 56.890625 62.453125 56.890625 51.90625 
Q 56.890625 45.015625 53.6875 40.46875 
Q 50.484375 35.9375 44.390625 34.1875 
z
M 19.671875 64.796875 
L 19.671875 38.921875 
L 32.078125 38.921875 
Q 39.203125 38.921875 42.84375 42.21875 
Q 46.484375 45.515625 46.484375 51.90625 
Q 46.484375 58.296875 42.84375 61.546875 
Q 39.203125 64.796875 32.078125 64.796875 
z
" id="DejaVuSans-82"/>
       <path d="M 45.40625 27.984375 
Q 45.40625 37.75 41.375 43.109375 
Q 37.359375 48.484375 30.078125 48.484375 
Q 22.859375 48.484375 18.828125 43.109375 
Q 14.796875 37.75 14.796875 27.984375 
Q 14.796875 18.265625 18.828125 12.890625 
Q 22.859375 7.515625 30.078125 7.515625 
Q 37.359375 7.515625 41.375 12.890625 
Q 45.40625 18.265625 45.40625 27.984375 
z
M 54.390625 6.78125 
Q 54.390625 -7.171875 48.1875 -13.984375 
Q 42 -20.796875 29.203125 -20.796875 
Q 24.46875 -20.796875 20.265625 -20.09375 
Q 16.0625 -19.390625 12.109375 -17.921875 
L 12.109375 -9.1875 
Q 16.0625 -11.328125 19.921875 -12.34375 
Q 23.78125 -13.375 27.78125 -13.375 
Q 36.625 -13.375 41.015625 -8.765625 
Q 45.40625 -4.15625 45.40625 5.171875 
L 45.40625 9.625 
Q 42.625 4.78125 38.28125 2.390625 
Q 33.9375 0 27.875 0 
Q 17.828125 0 11.671875 7.65625 
Q 5.515625 15.328125 5.515625 27.984375 
Q 5.515625 40.671875 11.671875 48.328125 
Q 17.828125 56 27.875 56 
Q 33.9375 56 38.28125 53.609375 
Q 42.625 51.21875 45.40625 46.390625 
L 45.40625 54.6875 
L 54.390625 54.6875 
z
" id="DejaVuSans-103"/>
       <path d="M 9.421875 54.6875 
L 18.40625 54.6875 
L 18.40625 0 
L 9.421875 0 
z
M 9.421875 75.984375 
L 18.40625 75.984375 
L 18.40625 64.59375 
L 9.421875 64.59375 
z
" id="DejaVuSans-105"/>
       <path d="M 18.3125 70.21875 
L 18.3125 54.6875 
L 36.8125 54.6875 
L 36.8125 47.703125 
L 18.3125 47.703125 
L 18.3125 18.015625 
Q 18.3125 11.328125 20.140625 9.421875 
Q 21.96875 7.515625 27.59375 7.515625 
L 36.8125 7.515625 
L 36.8125 0 
L 27.59375 0 
Q 17.1875 0 13.234375 3.875 
Q 9.28125 7.765625 9.28125 18.015625 
L 9.28125 47.703125 
L 2.6875 47.703125 
L 2.6875 54.6875 
L 9.28125 54.6875 
L 9.28125 70.21875 
z
" id="DejaVuSans-116"/>
       <path d="M 34.28125 27.484375 
Q 23.390625 27.484375 19.1875 25 
Q 14.984375 22.515625 14.984375 16.5 
Q 14.984375 11.71875 18.140625 8.90625 
Q 21.296875 6.109375 26.703125 6.109375 
Q 34.1875 6.109375 38.703125 11.40625 
Q 43.21875 16.703125 43.21875 25.484375 
L 43.21875 27.484375 
z
M 52.203125 31.203125 
L 52.203125 0 
L 43.21875 0 
L 43.21875 8.296875 
Q 40.140625 3.328125 35.546875 0.953125 
Q 30.953125 -1.421875 24.3125 -1.421875 
Q 15.921875 -1.421875 10.953125 3.296875 
Q 6 8.015625 6 15.921875 
Q 6 25.140625 12.171875 29.828125 
Q 18.359375 34.515625 30.609375 34.515625 
L 43.21875 34.515625 
L 43.21875 35.40625 
Q 43.21875 41.609375 39.140625 45 
Q 35.0625 48.390625 27.6875 48.390625 
Q 23 48.390625 18.546875 47.265625 
Q 14.109375 46.140625 10.015625 43.890625 
L 10.015625 52.203125 
Q 14.9375 54.109375 19.578125 55.046875 
Q 24.21875 56 28.609375 56 
Q 40.484375 56 46.34375 49.84375 
Q 52.203125 43.703125 52.203125 31.203125 
z
" id="DejaVuSans-97"/>
       <path d="M 30.609375 48.390625 
Q 23.390625 48.390625 19.1875 42.75 
Q 14.984375 37.109375 14.984375 27.296875 
Q 14.984375 17.484375 19.15625 11.84375 
Q 23.34375 6.203125 30.609375 6.203125 
Q 37.796875 6.203125 41.984375 11.859375 
Q 46.1875 17.53125 46.1875 27.296875 
Q 46.1875 37.015625 41.984375 42.703125 
Q 37.796875 48.390625 30.609375 48.390625 
z
M 30.609375 56 
Q 42.328125 56 49.015625 48.375 
Q 55.71875 40.765625 55.71875 27.296875 
Q 55.71875 13.875 49.015625 6.21875 
Q 42.328125 -1.421875 30.609375 -1.421875 
Q 18.84375 -1.421875 12.171875 6.21875 
Q 5.515625 13.875 5.515625 27.296875 
Q 5.515625 40.765625 12.171875 48.375 
Q 18.84375 56 30.609375 56 
z
" id="DejaVuSans-111"/>
       <path d="M 54.890625 33.015625 
L 54.890625 0 
L 45.90625 0 
L 45.90625 32.71875 
Q 45.90625 40.484375 42.875 44.328125 
Q 39.84375 48.1875 33.796875 48.1875 
Q 26.515625 48.1875 22.3125 43.546875 
Q 18.109375 38.921875 18.109375 30.90625 
L 18.109375 0 
L 9.078125 0 
L 9.078125 54.6875 
L 18.109375 54.6875 
L 18.109375 46.1875 
Q 21.34375 51.125 25.703125 53.5625 
Q 30.078125 56 35.796875 56 
Q 45.21875 56 50.046875 50.171875 
Q 54.890625 44.34375 54.890625 33.015625 
z
" id="DejaVuSans-110"/>
       <path d="M 64.40625 67.28125 
L 64.40625 56.890625 
Q 59.421875 61.53125 53.78125 63.8125 
Q 48.140625 66.109375 41.796875 66.109375 
Q 29.296875 66.109375 22.65625 58.46875 
Q 16.015625 50.828125 16.015625 36.375 
Q 16.015625 21.96875 22.65625 14.328125 
Q 29.296875 6.6875 41.796875 6.6875 
Q 48.140625 6.6875 53.78125 8.984375 
Q 59.421875 11.28125 64.40625 15.921875 
L 64.40625 5.609375 
Q 59.234375 2.09375 53.4375 0.328125 
Q 47.65625 -1.421875 41.21875 -1.421875 
Q 24.65625 -1.421875 15.125 8.703125 
Q 5.609375 18.84375 5.609375 36.375 
Q 5.609375 53.953125 15.125 64.078125 
Q 24.65625 74.21875 41.21875 74.21875 
Q 47.75 74.21875 53.53125 72.484375 
Q 59.328125 70.75 64.40625 67.28125 
z
" id="DejaVuSans-67"/>
       <path d="M 54.890625 33.015625 
L 54.890625 0 
L 45.90625 0 
L 45.90625 32.71875 
Q 45.90625 40.484375 42.875 44.328125 
Q 39.84375 48.1875 33.796875 48.1875 
Q 26.515625 48.1875 22.3125 43.546875 
Q 18.109375 38.921875 18.109375 30.90625 
L 18.109375 0 
L 9.078125 0 
L 9.078125 75.984375 
L 18.109375 75.984375 
L 18.109375 46.1875 
Q 21.34375 51.125 25.703125 53.5625 
Q 30.078125 56 35.796875 56 
Q 45.21875 56 50.046875 50.171875 
Q 54.890625 44.34375 54.890625 33.015625 
z
" id="DejaVuSans-104"/>
       <path d="M 19.671875 64.796875 
L 19.671875 8.109375 
L 31.59375 8.109375 
Q 46.6875 8.109375 53.6875 14.9375 
Q 60.6875 21.78125 60.6875 36.53125 
Q 60.6875 51.171875 53.6875 57.984375 
Q 46.6875 64.796875 31.59375 64.796875 
z
M 9.8125 72.90625 
L 30.078125 72.90625 
Q 51.265625 72.90625 61.171875 64.09375 
Q 71.09375 55.28125 71.09375 36.53125 
Q 71.09375 17.671875 61.125 8.828125 
Q 51.171875 0 30.078125 0 
L 9.8125 0 
z
" id="DejaVuSans-68"/>
      </defs>
      <use xlink:href="#DejaVuSans-32"/>
      <use x="31.787109" xlink:href="#DejaVuSans-85"/>
      <use x="104.980469" xlink:href="#DejaVuSans-115"/>
      <use x="157.080078" xlink:href="#DejaVuSans-101"/>
      <use x="218.603516" xlink:href="#DejaVuSans-114"/>
      <use x="259.716797" xlink:href="#DejaVuSans-32"/>
      <use x="291.503906" xlink:href="#DejaVuSans-82"/>
      <use x="356.486328" xlink:href="#DejaVuSans-101"/>
      <use x="418.009766" xlink:href="#DejaVuSans-103"/>
      <use x="481.486328" xlink:href="#DejaVuSans-105"/>
      <use x="509.269531" xlink:href="#DejaVuSans-115"/>
      <use x="561.369141" xlink:href="#DejaVuSans-116"/>
      <use x="600.578125" xlink:href="#DejaVuSans-114"/>
      <use x="641.691406" xlink:href="#DejaVuSans-97"/>
      <use x="702.970703" xlink:href="#DejaVuSans-116"/>
      <use x="742.179688" xlink:href="#DejaVuSans-105"/>
      <use x="769.962891" xlink:href="#DejaVuSans-111"/>
      <use x="831.144531" xlink:href="#DejaVuSans-110"/>
      <use x="894.523438" xlink:href="#DejaVuSans-32"/>
      <use x="926.310547" xlink:href="#DejaVuSans-67"/>
      <use x="996.134766" xlink:href="#DejaVuSans-111"/>
      <use x="1057.316406" xlink:href="#DejaVuSans-104"/>
      <use x="1120.695312" xlink:href="#DejaVuSans-111"/>
      <use x="1181.876953" xlink:href="#DejaVuSans-114"/>
      <use x="1222.990234" xlink:href="#DejaVuSans-116"/>
      <use x="1262.199219" xlink:href="#DejaVuSans-32"/>
      <use x="1293.986328" xlink:href="#DejaVuSans-68"/>
      <use x="1370.988281" xlink:href="#DejaVuSans-97"/>
      <use x="1432.267578" xlink:href="#DejaVuSans-116"/>
      <use x="1471.476562" xlink:href="#DejaVuSans-101"/>
     </g>
    </g>
   </g>
   <g id="matplotlib.axis_2">
    <g id="ytick_1">
     <g id="line2d_28">
      <defs>
       <path d="M 0 0 
L -3.5 0 
" id="mc8b809f2b2" style="stroke:#000000;stroke-width:0.8;"/>
      </defs>
      <g>
       <use style="stroke:#000000;stroke-width:0.8;" x="59.135" xlink:href="#mc8b809f2b2" y="463.276875"/>
      </g>
     </g>
     <g id="text_29">
      <!-- 0 -->
      <g transform="translate(45.7725 467.076094)scale(0.1 -0.1)">
       <use xlink:href="#DejaVuSans-48"/>
      </g>
     </g>
    </g>
    <g id="ytick_2">
     <g id="line2d_29">
      <g>
       <use style="stroke:#000000;stroke-width:0.8;" x="59.135" xlink:href="#mc8b809f2b2" y="369.572932"/>
      </g>
     </g>
     <g id="text_30">
      <!-- 500 -->
      <g transform="translate(33.0475 373.372151)scale(0.1 -0.1)">
       <use xlink:href="#DejaVuSans-53"/>
       <use x="63.623047" xlink:href="#DejaVuSans-48"/>
       <use x="127.246094" xlink:href="#DejaVuSans-48"/>
      </g>
     </g>
    </g>
    <g id="ytick_3">
     <g id="line2d_30">
      <g>
       <use style="stroke:#000000;stroke-width:0.8;" x="59.135" xlink:href="#mc8b809f2b2" y="275.868989"/>
      </g>
     </g>
     <g id="text_31">
      <!-- 1000 -->
      <g transform="translate(26.685 279.668208)scale(0.1 -0.1)">
       <use xlink:href="#DejaVuSans-49"/>
       <use x="63.623047" xlink:href="#DejaVuSans-48"/>
       <use x="127.246094" xlink:href="#DejaVuSans-48"/>
       <use x="190.869141" xlink:href="#DejaVuSans-48"/>
      </g>
     </g>
    </g>
    <g id="ytick_4">
     <g id="line2d_31">
      <g>
       <use style="stroke:#000000;stroke-width:0.8;" x="59.135" xlink:href="#mc8b809f2b2" y="182.165046"/>
      </g>
     </g>
     <g id="text_32">
      <!-- 1500 -->
      <g transform="translate(26.685 185.964264)scale(0.1 -0.1)">
       <use xlink:href="#DejaVuSans-49"/>
       <use x="63.623047" xlink:href="#DejaVuSans-53"/>
       <use x="127.246094" xlink:href="#DejaVuSans-48"/>
       <use x="190.869141" xlink:href="#DejaVuSans-48"/>
      </g>
     </g>
    </g>
    <g id="ytick_5">
     <g id="line2d_32">
      <g>
       <use style="stroke:#000000;stroke-width:0.8;" x="59.135" xlink:href="#mc8b809f2b2" y="88.461103"/>
      </g>
     </g>
     <g id="text_33">
      <!-- 2000 -->
      <g transform="translate(26.685 92.260321)scale(0.1 -0.1)">
       <use xlink:href="#DejaVuSans-50"/>
       <use x="63.623047" xlink:href="#DejaVuSans-48"/>
       <use x="127.246094" xlink:href="#DejaVuSans-48"/>
       <use x="190.869141" xlink:href="#DejaVuSans-48"/>
      </g>
     </g>
    </g>
    <g id="text_34">
     <!-- Number of Users/Tests Ordered -->
     <g transform="translate(19.3575 370.886875)rotate(-90)scale(0.16 -0.16)">
      <defs>
       <path d="M 9.8125 72.90625 
L 23.09375 72.90625 
L 55.421875 11.921875 
L 55.421875 72.90625 
L 64.984375 72.90625 
L 64.984375 0 
L 51.703125 0 
L 19.390625 60.984375 
L 19.390625 0 
L 9.8125 0 
z
" id="DejaVuSans-78"/>
       <path d="M 8.5 21.578125 
L 8.5 54.6875 
L 17.484375 54.6875 
L 17.484375 21.921875 
Q 17.484375 14.15625 20.5 10.265625 
Q 23.53125 6.390625 29.59375 6.390625 
Q 36.859375 6.390625 41.078125 11.03125 
Q 45.3125 15.671875 45.3125 23.6875 
L 45.3125 54.6875 
L 54.296875 54.6875 
L 54.296875 0 
L 45.3125 0 
L 45.3125 8.40625 
Q 42.046875 3.421875 37.71875 1 
Q 33.40625 -1.421875 27.6875 -1.421875 
Q 18.265625 -1.421875 13.375 4.4375 
Q 8.5 10.296875 8.5 21.578125 
z
M 31.109375 56 
z
" id="DejaVuSans-117"/>
       <path d="M 52 44.1875 
Q 55.375 50.25 60.0625 53.125 
Q 64.75 56 71.09375 56 
Q 79.640625 56 84.28125 50.015625 
Q 88.921875 44.046875 88.921875 33.015625 
L 88.921875 0 
L 79.890625 0 
L 79.890625 32.71875 
Q 79.890625 40.578125 77.09375 44.375 
Q 74.3125 48.1875 68.609375 48.1875 
Q 61.625 48.1875 57.5625 43.546875 
Q 53.515625 38.921875 53.515625 30.90625 
L 53.515625 0 
L 44.484375 0 
L 44.484375 32.71875 
Q 44.484375 40.625 41.703125 44.40625 
Q 38.921875 48.1875 33.109375 48.1875 
Q 26.21875 48.1875 22.15625 43.53125 
Q 18.109375 38.875 18.109375 30.90625 
L 18.109375 0 
L 9.078125 0 
L 9.078125 54.6875 
L 18.109375 54.6875 
L 18.109375 46.1875 
Q 21.1875 51.21875 25.484375 53.609375 
Q 29.78125 56 35.6875 56 
Q 41.65625 56 45.828125 52.96875 
Q 50 49.953125 52 44.1875 
z
" id="DejaVuSans-109"/>
       <path d="M 48.6875 27.296875 
Q 48.6875 37.203125 44.609375 42.84375 
Q 40.53125 48.484375 33.40625 48.484375 
Q 26.265625 48.484375 22.1875 42.84375 
Q 18.109375 37.203125 18.109375 27.296875 
Q 18.109375 17.390625 22.1875 11.75 
Q 26.265625 6.109375 33.40625 6.109375 
Q 40.53125 6.109375 44.609375 11.75 
Q 48.6875 17.390625 48.6875 27.296875 
z
M 18.109375 46.390625 
Q 20.953125 51.265625 25.265625 53.625 
Q 29.59375 56 35.59375 56 
Q 45.5625 56 51.78125 48.09375 
Q 58.015625 40.1875 58.015625 27.296875 
Q 58.015625 14.40625 51.78125 6.484375 
Q 45.5625 -1.421875 35.59375 -1.421875 
Q 29.59375 -1.421875 25.265625 0.953125 
Q 20.953125 3.328125 18.109375 8.203125 
L 18.109375 0 
L 9.078125 0 
L 9.078125 75.984375 
L 18.109375 75.984375 
z
" id="DejaVuSans-98"/>
       <path d="M 37.109375 75.984375 
L 37.109375 68.5 
L 28.515625 68.5 
Q 23.6875 68.5 21.796875 66.546875 
Q 19.921875 64.59375 19.921875 59.515625 
L 19.921875 54.6875 
L 34.71875 54.6875 
L 34.71875 47.703125 
L 19.921875 47.703125 
L 19.921875 0 
L 10.890625 0 
L 10.890625 47.703125 
L 2.296875 47.703125 
L 2.296875 54.6875 
L 10.890625 54.6875 
L 10.890625 58.5 
Q 10.890625 67.625 15.140625 71.796875 
Q 19.390625 75.984375 28.609375 75.984375 
z
" id="DejaVuSans-102"/>
       <path d="M -0.296875 72.90625 
L 61.375 72.90625 
L 61.375 64.59375 
L 35.5 64.59375 
L 35.5 0 
L 25.59375 0 
L 25.59375 64.59375 
L -0.296875 64.59375 
z
" id="DejaVuSans-84"/>
       <path d="M 39.40625 66.21875 
Q 28.65625 66.21875 22.328125 58.203125 
Q 16.015625 50.203125 16.015625 36.375 
Q 16.015625 22.609375 22.328125 14.59375 
Q 28.65625 6.59375 39.40625 6.59375 
Q 50.140625 6.59375 56.421875 14.59375 
Q 62.703125 22.609375 62.703125 36.375 
Q 62.703125 50.203125 56.421875 58.203125 
Q 50.140625 66.21875 39.40625 66.21875 
z
M 39.40625 74.21875 
Q 54.734375 74.21875 63.90625 63.9375 
Q 73.09375 53.65625 73.09375 36.375 
Q 73.09375 19.140625 63.90625 8.859375 
Q 54.734375 -1.421875 39.40625 -1.421875 
Q 24.03125 -1.421875 14.8125 8.828125 
Q 5.609375 19.09375 5.609375 36.375 
Q 5.609375 53.65625 14.8125 63.9375 
Q 24.03125 74.21875 39.40625 74.21875 
z
" id="DejaVuSans-79"/>
       <path d="M 45.40625 46.390625 
L 45.40625 75.984375 
L 54.390625 75.984375 
L 54.390625 0 
L 45.40625 0 
L 45.40625 8.203125 
Q 42.578125 3.328125 38.25 0.953125 
Q 33.9375 -1.421875 27.875 -1.421875 
Q 17.96875 -1.421875 11.734375 6.484375 
Q 5.515625 14.40625 5.515625 27.296875 
Q 5.515625 40.1875 11.734375 48.09375 
Q 17.96875 56 27.875 56 
Q 33.9375 56 38.25 53.625 
Q 42.578125 51.265625 45.40625 46.390625 
z
M 14.796875 27.296875 
Q 14.796875 17.390625 18.875 11.75 
Q 22.953125 6.109375 30.078125 6.109375 
Q 37.203125 6.109375 41.296875 11.75 
Q 45.40625 17.390625 45.40625 27.296875 
Q 45.40625 37.203125 41.296875 42.84375 
Q 37.203125 48.484375 30.078125 48.484375 
Q 22.953125 48.484375 18.875 42.84375 
Q 14.796875 37.203125 14.796875 27.296875 
z
" id="DejaVuSans-100"/>
      </defs>
      <use xlink:href="#DejaVuSans-78"/>
      <use x="74.804688" xlink:href="#DejaVuSans-117"/>
      <use x="138.183594" xlink:href="#DejaVuSans-109"/>
      <use x="235.595703" xlink:href="#DejaVuSans-98"/>
      <use x="299.072266" xlink:href="#DejaVuSans-101"/>
      <use x="360.595703" xlink:href="#DejaVuSans-114"/>
      <use x="401.708984" xlink:href="#DejaVuSans-32"/>
      <use x="433.496094" xlink:href="#DejaVuSans-111"/>
      <use x="494.677734" xlink:href="#DejaVuSans-102"/>
      <use x="529.882812" xlink:href="#DejaVuSans-32"/>
      <use x="561.669922" xlink:href="#DejaVuSans-85"/>
      <use x="634.863281" xlink:href="#DejaVuSans-115"/>
      <use x="686.962891" xlink:href="#DejaVuSans-101"/>
      <use x="748.486328" xlink:href="#DejaVuSans-114"/>
      <use x="789.599609" xlink:href="#DejaVuSans-115"/>
      <use x="841.699219" xlink:href="#DejaVuSans-47"/>
      <use x="875.390625" xlink:href="#DejaVuSans-84"/>
      <use x="919.474609" xlink:href="#DejaVuSans-101"/>
      <use x="980.998047" xlink:href="#DejaVuSans-115"/>
      <use x="1033.097656" xlink:href="#DejaVuSans-116"/>
      <use x="1072.306641" xlink:href="#DejaVuSans-115"/>
      <use x="1124.40625" xlink:href="#DejaVuSans-32"/>
      <use x="1156.193359" xlink:href="#DejaVuSans-79"/>
      <use x="1234.904297" xlink:href="#DejaVuSans-114"/>
      <use x="1274.267578" xlink:href="#DejaVuSans-100"/>
      <use x="1337.744141" xlink:href="#DejaVuSans-101"/>
      <use x="1399.267578" xlink:href="#DejaVuSans-114"/>
      <use x="1438.130859" xlink:href="#DejaVuSans-101"/>
      <use x="1499.654297" xlink:href="#DejaVuSans-100"/>
     </g>
    </g>
   </g>
   <g id="patch_57">
    <path d="M 59.135 463.276875 
L 59.135 28.396875 
" style="fill:none;stroke:#000000;stroke-linecap:square;stroke-linejoin:miter;stroke-width:0.8;"/>
   </g>
   <g id="patch_58">
    <path d="M 840.335 463.276875 
L 840.335 28.396875 
" style="fill:none;stroke:#000000;stroke-linecap:square;stroke-linejoin:miter;stroke-width:0.8;"/>
   </g>
   <g id="patch_59">
    <path d="M 59.135 463.276875 
L 840.335 463.276875 
" style="fill:none;stroke:#000000;stroke-linecap:square;stroke-linejoin:miter;stroke-width:0.8;"/>
   </g>
   <g id="patch_60">
    <path d="M 59.135 28.396875 
L 840.335 28.396875 
" style="fill:none;stroke:#000000;stroke-linecap:square;stroke-linejoin:miter;stroke-width:0.8;"/>
   </g>
   <g id="text_35">
    <!-- Invitae Total Registered Users vs Total Initial Orders from Users -->
    <g transform="translate(135.094375 22.396875)scale(0.2 -0.2)">
     <defs>
      <path d="M 9.8125 72.90625 
L 19.671875 72.90625 
L 19.671875 0 
L 9.8125 0 
z
" id="DejaVuSans-73"/>
      <path d="M 2.984375 54.6875 
L 12.5 54.6875 
L 29.59375 8.796875 
L 46.6875 54.6875 
L 56.203125 54.6875 
L 35.6875 0 
L 23.484375 0 
z
" id="DejaVuSans-118"/>
      <path d="M 9.421875 75.984375 
L 18.40625 75.984375 
L 18.40625 0 
L 9.421875 0 
z
" id="DejaVuSans-108"/>
     </defs>
     <use xlink:href="#DejaVuSans-73"/>
     <use x="29.492188" xlink:href="#DejaVuSans-110"/>
     <use x="92.871094" xlink:href="#DejaVuSans-118"/>
     <use x="152.050781" xlink:href="#DejaVuSans-105"/>
     <use x="179.833984" xlink:href="#DejaVuSans-116"/>
     <use x="219.042969" xlink:href="#DejaVuSans-97"/>
     <use x="280.322266" xlink:href="#DejaVuSans-101"/>
     <use x="341.845703" xlink:href="#DejaVuSans-32"/>
     <use x="373.632812" xlink:href="#DejaVuSans-84"/>
     <use x="417.716797" xlink:href="#DejaVuSans-111"/>
     <use x="478.898438" xlink:href="#DejaVuSans-116"/>
     <use x="518.107422" xlink:href="#DejaVuSans-97"/>
     <use x="579.386719" xlink:href="#DejaVuSans-108"/>
     <use x="607.169922" xlink:href="#DejaVuSans-32"/>
     <use x="638.957031" xlink:href="#DejaVuSans-82"/>
     <use x="703.939453" xlink:href="#DejaVuSans-101"/>
     <use x="765.462891" xlink:href="#DejaVuSans-103"/>
     <use x="828.939453" xlink:href="#DejaVuSans-105"/>
     <use x="856.722656" xlink:href="#DejaVuSans-115"/>
     <use x="908.822266" xlink:href="#DejaVuSans-116"/>
     <use x="948.03125" xlink:href="#DejaVuSans-101"/>
     <use x="1009.554688" xlink:href="#DejaVuSans-114"/>
     <use x="1048.417969" xlink:href="#DejaVuSans-101"/>
     <use x="1109.941406" xlink:href="#DejaVuSans-100"/>
     <use x="1173.417969" xlink:href="#DejaVuSans-32"/>
     <use x="1205.205078" xlink:href="#DejaVuSans-85"/>
     <use x="1278.398438" xlink:href="#DejaVuSans-115"/>
     <use x="1330.498047" xlink:href="#DejaVuSans-101"/>
     <use x="1392.021484" xlink:href="#DejaVuSans-114"/>
     <use x="1433.134766" xlink:href="#DejaVuSans-115"/>
     <use x="1485.234375" xlink:href="#DejaVuSans-32"/>
     <use x="1517.021484" xlink:href="#DejaVuSans-118"/>
     <use x="1576.201172" xlink:href="#DejaVuSans-115"/>
     <use x="1628.300781" xlink:href="#DejaVuSans-32"/>
     <use x="1660.087891" xlink:href="#DejaVuSans-84"/>
     <use x="1704.171875" xlink:href="#DejaVuSans-111"/>
     <use x="1765.353516" xlink:href="#DejaVuSans-116"/>
     <use x="1804.5625" xlink:href="#DejaVuSans-97"/>
     <use x="1865.841797" xlink:href="#DejaVuSans-108"/>
     <use x="1893.625" xlink:href="#DejaVuSans-32"/>
     <use x="1925.412109" xlink:href="#DejaVuSans-73"/>
     <use x="1954.904297" xlink:href="#DejaVuSans-110"/>
     <use x="2018.283203" xlink:href="#DejaVuSans-105"/>
     <use x="2046.066406" xlink:href="#DejaVuSans-116"/>
     <use x="2085.275391" xlink:href="#DejaVuSans-105"/>
     <use x="2113.058594" xlink:href="#DejaVuSans-97"/>
     <use x="2174.337891" xlink:href="#DejaVuSans-108"/>
     <use x="2202.121094" xlink:href="#DejaVuSans-32"/>
     <use x="2233.908203" xlink:href="#DejaVuSans-79"/>
     <use x="2312.619141" xlink:href="#DejaVuSans-114"/>
     <use x="2351.982422" xlink:href="#DejaVuSans-100"/>
     <use x="2415.458984" xlink:href="#DejaVuSans-101"/>
     <use x="2476.982422" xlink:href="#DejaVuSans-114"/>
     <use x="2518.095703" xlink:href="#DejaVuSans-115"/>
     <use x="2570.195312" xlink:href="#DejaVuSans-32"/>
     <use x="2601.982422" xlink:href="#DejaVuSans-102"/>
     <use x="2637.1875" xlink:href="#DejaVuSans-114"/>
     <use x="2676.050781" xlink:href="#DejaVuSans-111"/>
     <use x="2737.232422" xlink:href="#DejaVuSans-109"/>
     <use x="2834.644531" xlink:href="#DejaVuSans-32"/>
     <use x="2866.431641" xlink:href="#DejaVuSans-85"/>
     <use x="2939.625" xlink:href="#DejaVuSans-115"/>
     <use x="2991.724609" xlink:href="#DejaVuSans-101"/>
     <use x="3053.248047" xlink:href="#DejaVuSans-114"/>
     <use x="3094.361328" xlink:href="#DejaVuSans-115"/>
    </g>
   </g>
   <g id="legend_1">
    <g id="patch_61">
     <path d="M 715.924062 66.03125 
L 833.335 66.03125 
Q 835.335 66.03125 835.335 64.03125 
L 835.335 35.396875 
Q 835.335 33.396875 833.335 33.396875 
L 715.924062 33.396875 
Q 713.924062 33.396875 713.924062 35.396875 
L 713.924062 64.03125 
Q 713.924062 66.03125 715.924062 66.03125 
z
" style="fill:#ffffff;opacity:0.8;stroke:#cccccc;stroke-linejoin:miter;"/>
    </g>
    <g id="patch_62">
     <path d="M 717.924062 44.995312 
L 737.924062 44.995312 
L 737.924062 37.995312 
L 717.924062 37.995312 
z
" style="fill:#194066;"/>
    </g>
    <g id="text_36">
     <!-- Customers -->
     <g transform="translate(745.924062 44.995312)scale(0.1 -0.1)">
      <use xlink:href="#DejaVuSans-67"/>
      <use x="69.824219" xlink:href="#DejaVuSans-117"/>
      <use x="133.203125" xlink:href="#DejaVuSans-115"/>
      <use x="185.302734" xlink:href="#DejaVuSans-116"/>
      <use x="224.511719" xlink:href="#DejaVuSans-111"/>
      <use x="285.693359" xlink:href="#DejaVuSans-109"/>
      <use x="383.105469" xlink:href="#DejaVuSans-101"/>
      <use x="444.628906" xlink:href="#DejaVuSans-114"/>
      <use x="485.742188" xlink:href="#DejaVuSans-115"/>
     </g>
    </g>
    <g id="patch_63">
     <path d="M 717.924062 59.673437 
L 737.924062 59.673437 
L 737.924062 52.673437 
L 717.924062 52.673437 
z
" style="fill:#d8b7ce;"/>
    </g>
    <g id="text_37">
     <!-- total_new_orders -->
     <g transform="translate(745.924062 59.673437)scale(0.1 -0.1)">
      <defs>
       <path d="M 50.984375 -16.609375 
L 50.984375 -23.578125 
L -0.984375 -23.578125 
L -0.984375 -16.609375 
z
" id="DejaVuSans-95"/>
       <path d="M 4.203125 54.6875 
L 13.1875 54.6875 
L 24.421875 12.015625 
L 35.59375 54.6875 
L 46.1875 54.6875 
L 57.421875 12.015625 
L 68.609375 54.6875 
L 77.59375 54.6875 
L 63.28125 0 
L 52.6875 0 
L 40.921875 44.828125 
L 29.109375 0 
L 18.5 0 
z
" id="DejaVuSans-119"/>
      </defs>
      <use xlink:href="#DejaVuSans-116"/>
      <use x="39.208984" xlink:href="#DejaVuSans-111"/>
      <use x="100.390625" xlink:href="#DejaVuSans-116"/>
      <use x="139.599609" xlink:href="#DejaVuSans-97"/>
      <use x="200.878906" xlink:href="#DejaVuSans-108"/>
      <use x="228.662109" xlink:href="#DejaVuSans-95"/>
      <use x="278.662109" xlink:href="#DejaVuSans-110"/>
      <use x="342.041016" xlink:href="#DejaVuSans-101"/>
      <use x="403.564453" xlink:href="#DejaVuSans-119"/>
      <use x="485.351562" xlink:href="#DejaVuSans-95"/>
      <use x="535.351562" xlink:href="#DejaVuSans-111"/>
      <use x="596.533203" xlink:href="#DejaVuSans-114"/>
      <use x="635.896484" xlink:href="#DejaVuSans-100"/>
      <use x="699.373047" xlink:href="#DejaVuSans-101"/>
      <use x="760.896484" xlink:href="#DejaVuSans-114"/>
      <use x="802.009766" xlink:href="#DejaVuSans-115"/>
     </g>
    </g>
   </g>
  </g>
 </g>
 <defs>
  <clipPath id="p05cc96529b">
   <rect height="434.88" width="781.2" x="59.135" y="28.396875"/>
  </clipPath>
 </defs>
</svg>
